<?xml version="1.0" encoding="UTF-8" standalone="no"?>
<!-- Created with Inkscape (http://www.inkscape.org/) -->

<svg
   version="1.1"
   id="svg1"
   width="381.99884"
   height="279.97543"
   viewBox="0 0 381.99884 279.97543"
   sodipodi:docname="outline.svg"
   inkscape:version="1.3.2 (091e20e, 2023-11-25, custom)"
   xmlns:inkscape="http://www.inkscape.org/namespaces/inkscape"
   xmlns:sodipodi="http://sodipodi.sourceforge.net/DTD/sodipodi-0.dtd"
   xmlns="http://www.w3.org/2000/svg"
   xmlns:svg="http://www.w3.org/2000/svg">
  <sodipodi:namedview
     id="namedview1"
     pagecolor="#ffffff"
     bordercolor="#000000"
     borderopacity="0.25"
     inkscape:showpageshadow="2"
     inkscape:pageopacity="0.0"
     inkscape:pagecheckerboard="0"
     inkscape:deskcolor="#d1d1d1"
     showgrid="false"
     inkscape:zoom="1.5368294"
     inkscape:cx="229.69368"
     inkscape:cy="284.67701"
     inkscape:window-width="2560"
     inkscape:window-height="1494"
     inkscape:window-x="-11"
     inkscape:window-y="-11"
     inkscape:window-maximized="1"
     inkscape:current-layer="g1" />
  <defs
     id="defs1" />
  <g
     id="g1"
     transform="translate(-163.72932,-259.50467)">
    <path
       style="display:inline;fill:none;stroke:#1a1a1a"
       d="m 257.5161,538.88165 c -13.05076,-2.35797 -26.20133,-3.2074 -39.08549,-5.67961 -20.48767,-6.36204 -37.57796,-17.22403 -47.26652,-37.21766 -6.61602,-13.4093 -1.34009,-29.76373 7.31694,-41.11058 9.56173,-6.55555 13.65449,-20.83494 2.19262,-29.77253 -10.38042,-6.67118 -15.99972,-19.99207 -10.36343,-33.11614 5.26084,-8.60173 8.43168,-8.40964 15.195,-17.95276 7.82262,-12.76321 -1.85105,-24.08654 -10.62908,-32.33639 -9.22347,-12.78097 -8.07125,-33.93216 -3.49468,-42.33214 6.30514,-11.28574 16.38576,-24.62428 31.17468,-22.26785 9.17723,-1.25264 16.49488,-8.82235 26.33718,-8.691 11.80228,-0.0231 21.75123,8.56155 29.30203,14.18429 9.3389,6.95426 31.01848,-2.06133 46.19026,-6.4162 12.02421,-4.79914 24.70324,-7.52027 36.64041,-12.48429 10.58291,-0.68117 20.86764,-4.06186 31.39433,-3.64901 15.75761,0.23151 30.22353,6.8276 44.80591,11.96409 13.41761,7.87067 29.75903,4.96993 44.5095,8.08691 20.53735,0.52009 41.79548,-1.66679 61.81821,3.60651 14.08541,3.90624 21.01853,18.14278 21.38753,32.72918 -0.77747,60.85694 0.27927,121.00638 -1.01947,181.84883 -2.30528,10.41387 -5.4599,22.26769 -13.75503,29.80855 -14.23637,13.68246 -35.90286,9.51671 -53.85522,10.27289 -50.77962,0.0496 -101.57438,0.56614 -152.34474,0.0305 -13.19797,-2.10017 -26.65562,-6.23362 -39.76344,-1.48372 -8.7899,1.75549 -17.74063,2.23351 -26.6875,1.9781 z"
       id="path5"
       sodipodi:nodetypes="sccccccccccsccccccccccccss"
       inkscape:export-filename="outline.png"
       inkscape:export-xdpi="96"
       inkscape:export-ydpi="96" />
    <path
       style="display:none;fill:none;stroke:#1a1a1a;stroke-width:3.64724;stroke-dasharray:none"
       d="m 257.5161,538.88165 c -13.05076,-2.35797 -26.20133,-3.2074 -39.08549,-5.67961 -20.48767,-6.36204 -37.57796,-17.22403 -47.26652,-37.21766 -6.61602,-13.4093 -1.34009,-29.76373 7.31694,-41.11058 9.56173,-6.55555 13.65449,-20.83494 2.19262,-29.77253 -10.38042,-6.67118 -15.99972,-19.99207 -10.36343,-33.11614 5.26084,-8.60173 8.43168,-8.40964 15.195,-17.95276 7.82262,-12.76321 -1.85105,-24.08654 -10.62908,-32.33639 -9.22347,-12.78097 -8.07125,-33.93216 -3.49468,-42.33214 6.30514,-11.28574 16.38576,-24.62428 31.17468,-22.26785 9.17723,-1.25264 16.49488,-8.82235 26.33718,-8.691 11.80228,-0.0231 21.75123,8.56155 29.30203,14.18429 9.3389,6.95426 31.01848,-2.06133 46.19026,-6.4162 12.02421,-4.79914 24.70324,-7.52027 36.64041,-12.48429 10.58291,-0.68117 20.86764,-4.06186 31.39433,-3.64901 15.75761,0.23151 30.22353,6.8276 44.80591,11.96409 13.41761,7.87067 29.75903,4.96993 44.5095,8.08691 20.53735,0.52009 41.79548,-1.66679 61.81821,3.60651 14.08541,3.90624 21.01853,18.14278 21.38753,32.72918 -0.77747,60.85694 0.27927,121.00638 -1.01947,181.84883 -2.30528,10.41387 -5.4599,22.26769 -13.75503,29.80855 -14.23637,13.68246 -35.90286,9.51671 -53.85522,10.27289 -50.77962,0.0496 -101.57438,0.56614 -152.34474,0.0305 -13.19797,-2.10017 -26.65562,-6.23362 -39.76344,-1.48372 -8.7899,1.75549 -17.74063,2.23351 -26.6875,1.9781 z"
       id="path1"
       sodipodi:nodetypes="sccccccccccsccccccccccccss"
       inkscape:export-filename="silkscreen.png"
       inkscape:export-xdpi="96"
       inkscape:export-ydpi="96"
       inkscape:label="silkscreen" />
  </g>
</svg>
