999
"DXF R12 Output" (www.mydxf.blogspot.com)
 0 
SECTION
 2 
HEADER
 9 
$ACADVER
 1 
AC1009
 9 
$EXTMIN
 10 
 0 
 20 
 0 
 9 
$EXTMAX
 10 
 8.5 
 20 
 11 
 0 
ENDSEC
 0 
SECTION
 2 
ENTITIES
0
LINE
8
Image
10
69.213881
20
57.657920
11
70.577896
21
57.591556
0
LINE
8
Image
10
70.577896
20
57.591556
11
71.927927
21
57.680504
0
LINE
8
Image
10
71.927927
20
57.680504
11
74.600852
21
58.133502
0
LINE
8
Image
10
74.600852
20
58.133502
11
77.262299
21
58.635249
0
LINE
8
Image
10
77.262299
20
58.635249
11
79.941909
21
58.804080
0
LINE
8
Image
10
79.941909
20
58.804080
11
82.801944
21
58.248477
0
LINE
8
Image
10
82.801944
20
58.248477
11
85.682577
21
57.904782
0
LINE
8
Image
10
85.682577
20
57.904782
11
91.486918
21
57.670596
0
LINE
8
Image
10
91.486918
20
57.670596
11
97.317494
21
57.736492
0
LINE
8
Image
10
97.317494
20
57.736492
11
103.136861
21
57.737438
0
LINE
8
Image
10
103.136861
20
57.737438
11
118.959325
21
57.758092
0
LINE
8
Image
10
118.959325
20
57.758092
11
126.868937
21
57.794839
0
LINE
8
Image
10
126.868937
20
57.794839
11
134.766968
21
58.014231
0
LINE
8
Image
10
134.766968
20
58.014231
11
136.841441
21
58.515697
0
LINE
8
Image
10
136.841441
20
58.515697
11
138.761941
21
59.407382
0
LINE
8
Image
10
138.761941
20
59.407382
11
140.399369
21
60.715299
0
LINE
8
Image
10
140.399369
20
60.715299
11
141.071587
21
61.533473
0
LINE
8
Image
10
141.071587
20
61.533473
11
141.624626
21
62.465459
0
LINE
8
Image
10
141.624626
20
62.465459
11
142.484080
21
64.371371
0
LINE
8
Image
10
142.484080
20
64.371371
11
143.043919
21
66.351312
0
LINE
8
Image
10
143.043919
20
66.351312
11
143.365942
21
68.388115
0
LINE
8
Image
10
143.365942
20
68.388115
11
143.511947
21
70.464612
0
LINE
8
Image
10
143.511947
20
70.464612
11
143.523103
21
74.668011
0
LINE
8
Image
10
143.523103
20
74.668011
11
143.571782
21
78.824166
0
LINE
8
Image
10
143.571782
20
78.824166
11
143.777006
21
98.715722
0
LINE
8
Image
10
143.777006
20
98.715722
11
143.827393
21
118.596285
0
LINE
8
Image
10
143.827393
20
118.596285
11
143.532431
21
120.002460
0
LINE
8
Image
10
143.532431
20
120.002460
11
142.954099
21
121.257202
0
LINE
8
Image
10
142.954099
20
121.257202
11
142.135216
21
122.353723
0
LINE
8
Image
10
142.135216
20
122.353723
11
141.118600
21
123.285237
0
LINE
8
Image
10
141.118600
20
123.285237
11
139.947069
21
124.044958
0
LINE
8
Image
10
139.947069
20
124.044958
11
138.663441
21
124.626099
0
LINE
8
Image
10
138.663441
20
124.626099
11
137.310534
21
125.021875
0
LINE
8
Image
10
137.310534
20
125.021875
11
135.931167
21
125.225499
0
LINE
8
Image
10
135.931167
20
125.225499
11
131.295352
21
125.562648
0
LINE
8
Image
10
131.295352
20
125.562648
11
126.649451
21
125.598139
0
LINE
8
Image
10
126.649451
20
125.598139
11
122.008914
21
125.683634
0
LINE
8
Image
10
122.008914
20
125.683634
11
119.695485
21
125.855027
0
LINE
8
Image
10
119.695485
20
125.855027
11
117.389191
21
126.170794
0
LINE
8
Image
10
117.389191
20
126.170794
11
115.387352
21
126.287886
0
LINE
8
Image
10
115.387352
20
126.287886
11
113.415509
21
126.567999
0
LINE
8
Image
10
113.415509
20
126.567999
11
111.518029
21
127.118195
0
LINE
8
Image
10
111.518029
20
127.118195
11
109.739279
21
128.045536
0
LINE
8
Image
10
109.739279
20
128.045536
11
104.244393
21
129.910274
0
LINE
8
Image
10
104.244393
20
129.910274
11
101.446834
21
130.628796
0
LINE
8
Image
10
101.446834
20
130.628796
11
98.550878
21
130.913812
0
LINE
8
Image
10
98.550878
20
130.913812
11
96.433229
21
130.847992
0
LINE
8
Image
10
96.433229
20
130.847992
11
94.327989
21
130.544288
0
LINE
8
Image
10
94.327989
20
130.544288
11
92.220998
21
130.169741
0
LINE
8
Image
10
92.220998
20
130.169741
11
90.098094
21
129.891389
0
LINE
8
Image
10
90.098094
20
129.891389
11
81.763229
21
127.057366
0
LINE
8
Image
10
81.763229
20
127.057366
11
73.374076
21
124.357466
0
LINE
8
Image
10
73.374076
20
124.357466
11
71.935802
21
124.028003
0
LINE
8
Image
10
71.935802
20
124.028003
11
70.635033
21
124.074958
0
LINE
8
Image
10
70.635033
20
124.074958
11
69.442724
21
124.420655
0
LINE
8
Image
10
69.442724
20
124.420655
11
68.329833
21
124.987418
0
LINE
8
Image
10
68.329833
20
124.987418
11
66.226131
21
126.473438
0
LINE
8
Image
10
66.226131
20
126.473438
11
64.091578
21
127.911612
0
LINE
8
Image
10
64.091578
20
127.911612
11
63.010545
21
128.302966
0
LINE
8
Image
10
63.010545
20
128.302966
11
61.890091
21
128.541548
0
LINE
8
Image
10
61.890091
20
128.541548
11
60.751279
21
128.626056
0
LINE
8
Image
10
60.751279
20
128.626056
11
59.615173
21
128.555190
0
LINE
8
Image
10
59.615173
20
128.555190
11
58.502837
21
128.327647
0
LINE
8
Image
10
58.502837
20
128.327647
11
57.435335
21
127.942126
0
LINE
8
Image
10
57.435335
20
127.942126
11
56.433731
21
127.397326
0
LINE
8
Image
10
56.433731
20
127.397326
11
55.519089
21
126.691945
0
LINE
8
Image
10
55.519089
20
126.691945
11
53.329976
21
126.452306
0
LINE
8
Image
10
53.329976
20
126.452306
11
51.169522
21
126.092319
0
LINE
8
Image
10
51.169522
20
126.092319
11
50.155570
21
125.764156
0
LINE
8
Image
10
50.155570
20
125.764156
11
49.215417
21
125.282260
0
LINE
8
Image
10
49.215417
20
125.282260
11
48.371274
21
124.605416
0
LINE
8
Image
10
48.371274
20
124.605416
11
47.645353
21
123.692408
0
LINE
8
Image
10
47.645353
20
123.692408
11
45.932325
21
121.315323
0
LINE
8
Image
10
45.932325
20
121.315323
11
45.189363
21
120.027022
0
LINE
8
Image
10
45.189363
20
120.027022
11
44.584746
21
118.684816
0
LINE
8
Image
10
44.584746
20
118.684816
11
44.165459
21
117.298156
0
LINE
8
Image
10
44.165459
20
117.298156
11
43.978484
21
115.876491
0
LINE
8
Image
10
43.978484
20
115.876491
11
44.070804
21
114.429273
0
LINE
8
Image
10
44.070804
20
114.429273
11
44.489404
21
112.965951
0
LINE
8
Image
10
44.489404
20
112.965951
11
44.914674
21
111.935621
0
LINE
8
Image
10
44.914674
20
111.935621
11
45.479161
21
110.992654
0
LINE
8
Image
10
45.479161
20
110.992654
11
46.874639
21
109.278934
0
LINE
8
Image
10
46.874639
20
109.278934
11
48.373547
21
107.645043
0
LINE
8
Image
10
48.373547
20
107.645043
11
49.673593
21
105.911234
0
LINE
8
Image
10
49.673593
20
105.911234
11
50.001738
21
104.756747
0
LINE
8
Image
10
50.001738
20
104.756747
11
50.078088
21
103.629786
0
LINE
8
Image
10
50.078088
20
103.629786
11
49.923146
21
102.548560
0
LINE
8
Image
10
49.923146
20
102.548560
11
49.557415
21
101.531277
0
LINE
8
Image
10
49.557415
20
101.531277
11
49.001398
21
100.596145
0
LINE
8
Image
10
49.001398
20
100.596145
11
48.275598
21
99.761373
0
LINE
8
Image
10
48.275598
20
99.761373
11
47.400517
21
99.045170
0
LINE
8
Image
10
47.400517
20
99.045170
11
46.396658
21
98.465744
0
LINE
8
Image
10
46.396658
20
98.465744
11
44.947496
21
96.703014
0
LINE
8
Image
10
44.947496
20
96.703014
11
44.366861
21
95.651582
0
LINE
8
Image
10
44.366861
20
95.651582
11
43.951925
21
94.542312
0
LINE
8
Image
10
43.951925
20
94.542312
11
43.754989
21
93.416861
0
LINE
8
Image
10
43.754989
20
93.416861
11
43.828353
21
92.316885
0
LINE
8
Image
10
43.828353
20
92.316885
11
44.224319
21
91.284039
0
LINE
8
Image
10
44.224319
20
91.284039
11
44.995189
21
90.359979
0
LINE
8
Image
10
44.995189
20
90.359979
11
46.538302
21
88.910342
0
LINE
8
Image
10
46.538302
20
88.910342
11
48.144968
21
87.457193
0
LINE
8
Image
10
48.144968
20
87.457193
11
48.826297
21
86.659920
0
LINE
8
Image
10
48.826297
20
86.659920
11
49.348509
21
85.778511
0
LINE
8
Image
10
49.348509
20
85.778511
11
49.653270
21
84.785215
0
LINE
8
Image
10
49.653270
20
84.785215
11
49.682245
21
83.652279
0
LINE
8
Image
10
49.682245
20
83.652279
11
48.200173
21
81.692906
0
LINE
8
Image
10
48.200173
20
81.692906
11
46.532516
21
79.838004
0
LINE
8
Image
10
46.532516
20
79.838004
11
45.073147
21
77.857711
0
LINE
8
Image
10
45.073147
20
77.857711
11
44.544657
21
76.748710
0
LINE
8
Image
10
44.544657
20
76.748710
11
44.215942
21
75.522162
0
LINE
8
Image
10
44.215942
20
75.522162
11
43.795330
21
73.718592
0
LINE
8
Image
10
43.795330
20
73.718592
11
43.792301
21
71.940721
0
LINE
8
Image
10
43.792301
20
71.940721
11
44.154518
21
70.213768
0
LINE
8
Image
10
44.154518
20
70.213768
11
44.829640
21
68.562954
0
LINE
8
Image
10
44.829640
20
68.562954
11
45.765328
21
67.013501
0
LINE
8
Image
10
45.765328
20
67.013501
11
46.909245
21
65.590630
0
LINE
8
Image
10
46.909245
20
65.590630
11
48.209050
21
64.319561
0
LINE
8
Image
10
48.209050
20
64.319561
11
49.612405
21
63.225516
0
LINE
8
Image
10
49.612405
20
63.225516
11
51.949950
21
61.651791
0
LINE
8
Image
10
51.949950
20
61.651791
11
54.472020
21
60.395468
0
LINE
8
Image
10
54.472020
20
60.395468
11
57.120301
21
59.414393
0
LINE
8
Image
10
57.120301
20
59.414393
11
59.836477
21
58.666412
0
LINE
8
Image
10
59.836477
20
58.666412
11
62.178804
21
58.581956
0
LINE
8
Image
10
62.178804
20
58.581956
11
64.518627
21
58.206833
0
LINE
8
Image
10
64.518627
20
58.206833
11
66.861726
21
57.809377
0
LINE
8
Image
10
66.861726
20
57.809377
11
69.213881
21
57.657920
0
LINE
8
Image
10
69.213881
20
57.657920
11
69.213881
21
57.657920
0
LINE
8
Image
10
68.134382
20
57.404076
11
62.947174
21
58.144106
0
LINE
8
Image
10
62.947174
20
58.144106
11
57.793026
21
58.906805
0
LINE
8
Image
10
57.793026
20
58.906805
11
55.763786
21
59.606413
0
LINE
8
Image
10
55.763786
20
59.606413
11
53.764654
21
60.448646
0
LINE
8
Image
10
53.764654
20
60.448646
11
51.830239
21
61.442317
0
LINE
8
Image
10
51.830239
20
61.442317
11
49.995150
21
62.596238
0
LINE
8
Image
10
49.995150
20
62.596238
11
48.293994
21
63.919223
0
LINE
8
Image
10
48.293994
20
63.919223
11
46.761382
21
65.420085
0
LINE
8
Image
10
46.761382
20
65.420085
11
45.431920
21
67.107635
0
LINE
8
Image
10
45.431920
20
67.107635
11
44.340219
21
68.990687
0
LINE
8
Image
10
44.340219
20
68.990687
11
43.819479
21
70.353556
0
LINE
8
Image
10
43.819479
20
70.353556
11
43.555220
21
71.764820
0
LINE
8
Image
10
43.555220
20
71.764820
11
43.525091
21
73.199821
0
LINE
8
Image
10
43.525091
20
73.199821
11
43.706736
21
74.633901
0
LINE
8
Image
10
43.706736
20
74.633901
11
44.077803
21
76.042402
0
LINE
8
Image
10
44.077803
20
76.042402
11
44.615937
21
77.400665
0
LINE
8
Image
10
44.615937
20
77.400665
11
45.298786
21
78.684033
0
LINE
8
Image
10
45.298786
20
78.684033
11
46.103995
21
79.867848
0
LINE
8
Image
10
46.103995
20
79.867848
11
47.027741
21
80.597151
0
LINE
8
Image
10
47.027741
20
80.597151
11
47.863243
21
81.460885
0
LINE
8
Image
10
47.863243
20
81.460885
11
48.553002
21
82.424088
0
LINE
8
Image
10
48.553002
20
82.424088
11
49.039518
21
83.451796
0
LINE
8
Image
10
49.039518
20
83.451796
11
49.265293
21
84.509048
0
LINE
8
Image
10
49.265293
20
84.509048
11
49.172827
21
85.560880
0
LINE
8
Image
10
49.172827
20
85.560880
11
48.704621
21
86.572328
0
LINE
8
Image
10
48.704621
20
86.572328
11
47.803176
21
87.508431
0
LINE
8
Image
10
47.803176
20
87.508431
11
45.761231
21
89.101880
0
LINE
8
Image
10
45.761231
20
89.101880
11
44.857666
21
90.073910
0
LINE
8
Image
10
44.857666
20
90.073910
11
44.124790
21
91.138876
0
LINE
8
Image
10
44.124790
20
91.138876
11
43.631919
21
92.278830
0
LINE
8
Image
10
43.631919
20
92.278830
11
43.448364
21
93.475820
0
LINE
8
Image
10
43.448364
20
93.475820
11
43.643440
21
94.711899
0
LINE
8
Image
10
43.643440
20
94.711899
11
44.286461
21
95.969115
0
LINE
8
Image
10
44.286461
20
95.969115
11
44.660742
21
96.788984
0
LINE
8
Image
10
44.660742
20
96.788984
11
45.156401
21
97.508702
0
LINE
8
Image
10
45.156401
20
97.508702
11
46.397729
21
98.740295
0
LINE
8
Image
10
46.397729
20
98.740295
11
47.782189
21
99.849117
0
LINE
8
Image
10
47.782189
20
99.849117
11
49.081528
21
101.020393
0
LINE
8
Image
10
49.081528
20
101.020393
11
49.650187
21
102.268040
0
LINE
8
Image
10
49.650187
20
102.268040
11
49.841882
21
103.474905
0
LINE
8
Image
10
49.841882
20
103.474905
11
49.713639
21
104.635924
0
LINE
8
Image
10
49.713639
20
104.635924
11
49.322484
21
105.746032
0
LINE
8
Image
10
49.322484
20
105.746032
11
48.725443
21
106.800164
0
LINE
8
Image
10
48.725443
20
106.800164
11
47.979540
21
107.793255
0
LINE
8
Image
10
47.979540
20
107.793255
11
46.269254
21
109.576053
0
LINE
8
Image
10
46.269254
20
109.576053
11
45.296332
21
110.766668
0
LINE
8
Image
10
45.296332
20
110.766668
11
44.554764
21
112.095671
0
LINE
8
Image
10
44.554764
20
112.095671
11
44.051351
21
113.523786
0
LINE
8
Image
10
44.051351
20
113.523786
11
43.792892
21
115.011737
0
LINE
8
Image
10
43.792892
20
115.011737
11
43.786190
21
116.520251
0
LINE
8
Image
10
43.786190
20
116.520251
11
44.038043
21
118.010052
0
LINE
8
Image
10
44.038043
20
118.010052
11
44.555253
21
119.441866
0
LINE
8
Image
10
44.555253
20
119.441866
11
45.344621
21
120.776417
0
LINE
8
Image
10
45.344621
20
120.776417
11
46.786951
21
123.044395
0
LINE
8
Image
10
46.786951
20
123.044395
11
47.655821
21
124.117192
0
LINE
8
Image
10
47.655821
20
124.117192
11
48.627017
21
125.075822
0
LINE
8
Image
10
48.627017
20
125.075822
11
49.703432
21
125.865257
0
LINE
8
Image
10
49.703432
20
125.865257
11
50.887958
21
126.430470
0
LINE
8
Image
10
50.887958
20
126.430470
11
52.183487
21
126.716431
0
LINE
8
Image
10
52.183487
20
126.716431
11
53.592911
21
126.668112
0
LINE
8
Image
10
53.592911
20
126.668112
11
55.339888
21
127.172115
0
LINE
8
Image
10
55.339888
20
127.172115
11
57.011109
21
127.955175
0
LINE
8
Image
10
57.011109
20
127.955175
11
58.715324
21
128.669575
0
LINE
8
Image
10
58.715324
20
128.669575
11
59.613788
21
128.892368
0
LINE
8
Image
10
59.613788
20
128.892368
11
60.561281
21
128.967603
0
LINE
8
Image
10
60.561281
20
128.967603
11
61.709020
21
128.869117
0
LINE
8
Image
10
61.709020
20
128.869117
11
62.809098
21
128.592992
0
LINE
8
Image
10
62.809098
20
128.592992
11
64.859517
21
127.651314
0
LINE
8
Image
10
64.859517
20
127.651314
11
66.699022
21
126.429550
0
LINE
8
Image
10
66.699022
20
126.429550
11
68.314100
21
125.214681
0
LINE
8
Image
10
68.314100
20
125.214681
11
69.384006
21
124.712091
0
LINE
8
Image
10
69.384006
20
124.712091
11
70.701577
21
124.541661
0
LINE
8
Image
10
70.701577
20
124.541661
11
72.208372
21
124.639424
0
LINE
8
Image
10
72.208372
20
124.639424
11
73.845949
21
124.941413
0
LINE
8
Image
10
73.845949
20
124.941413
11
77.279686
21
125.902203
0
LINE
8
Image
10
77.279686
20
125.902203
11
80.535258
21
126.912298
0
LINE
8
Image
10
80.535258
20
126.912298
11
85.391109
21
128.547504
0
LINE
8
Image
10
85.391109
20
128.547504
11
87.829879
21
129.323788
0
LINE
8
Image
10
87.829879
20
129.323788
11
90.229687
21
130.215429
0
LINE
8
Image
10
90.229687
20
130.215429
11
92.317172
21
130.457677
0
LINE
8
Image
10
92.317172
20
130.457677
11
94.388469
21
130.806709
0
LINE
8
Image
10
94.388469
20
130.806709
11
96.456977
21
131.101468
0
LINE
8
Image
10
96.456977
20
131.101468
11
98.536093
21
131.180895
0
LINE
8
Image
10
98.536093
20
131.180895
11
101.604732
21
130.851558
0
LINE
8
Image
10
101.604732
20
130.851558
11
104.580139
21
130.084813
0
LINE
8
Image
10
104.580139
20
130.084813
11
110.390976
21
128.015400
0
LINE
8
Image
10
110.390976
20
128.015400
11
111.756181
21
127.359398
0
LINE
8
Image
10
111.756181
20
127.359398
11
113.179913
21
126.918520
0
LINE
8
Image
10
113.179913
20
126.918520
11
116.146960
21
126.473916
0
LINE
8
Image
10
116.146960
20
126.473916
11
119.180128
21
126.265139
0
LINE
8
Image
10
119.180128
20
126.265139
11
122.167433
21
125.875741
0
LINE
8
Image
10
122.167433
20
125.875741
11
130.396516
21
125.870237
0
LINE
8
Image
10
130.396516
20
125.870237
11
134.497024
21
125.639877
0
LINE
8
Image
10
134.497024
20
125.639877
11
136.522541
21
125.357460
0
LINE
8
Image
10
136.522541
20
125.357460
11
138.523480
21
124.921520
0
LINE
8
Image
10
138.523480
20
124.921520
11
139.859094
21
124.410103
0
LINE
8
Image
10
139.859094
20
124.410103
11
141.056950
21
123.672131
0
LINE
8
Image
10
141.056950
20
123.672131
11
142.096174
21
122.739305
0
LINE
8
Image
10
142.096174
20
122.739305
11
142.955894
21
121.643328
0
LINE
8
Image
10
142.955894
20
121.643328
11
143.615236
21
120.415900
0
LINE
8
Image
10
143.615236
20
120.415900
11
144.053326
21
119.088725
0
LINE
8
Image
10
144.053326
20
119.088725
11
144.249291
21
117.693502
0
LINE
8
Image
10
144.249291
20
117.693502
11
144.182257
21
116.261935
0
LINE
8
Image
10
144.182257
20
116.261935
11
143.969988
21
92.095843
0
LINE
8
Image
10
143.969988
20
92.095843
11
143.654279
21
67.932625
0
LINE
8
Image
10
143.654279
20
67.932625
11
143.177301
21
65.852099
0
LINE
8
Image
10
143.177301
20
65.852099
11
142.558032
21
63.811752
0
LINE
8
Image
10
142.558032
20
63.811752
11
141.641611
21
61.913933
0
LINE
8
Image
10
141.641611
20
61.913933
11
141.023574
21
61.050455
0
LINE
8
Image
10
141.023574
20
61.050455
11
140.273175
21
60.260991
0
LINE
8
Image
10
140.273175
20
60.260991
11
138.774270
21
59.113028
0
LINE
8
Image
10
138.774270
20
59.113028
11
137.125618
21
58.337184
0
LINE
8
Image
10
137.125618
20
58.337184
11
135.361771
21
57.862857
0
LINE
8
Image
10
135.361771
20
57.862857
11
133.517283
21
57.619447
0
LINE
8
Image
10
133.517283
20
57.619447
11
129.724601
21
57.542974
0
LINE
8
Image
10
129.724601
20
57.542974
11
126.024000
21
57.542959
0
LINE
8
Image
10
126.024000
20
57.542959
11
105.869167
21
57.480857
0
LINE
8
Image
10
105.869167
20
57.480857
11
85.716171
21
57.534889
0
LINE
8
Image
10
85.716171
20
57.534889
11
83.086840
21
58.007380
0
LINE
8
Image
10
83.086840
20
58.007380
11
80.446862
21
58.410827
0
LINE
8
Image
10
80.446862
20
58.410827
11
77.811356
21
58.474447
0
LINE
8
Image
10
77.811356
20
58.474447
11
76.500005
21
58.294202
0
LINE
8
Image
10
76.500005
20
58.294202
11
75.195441
21
57.927456
0
LINE
8
Image
10
75.195441
20
57.927456
11
71.680486
21
57.466251
0
LINE
8
Image
10
71.680486
20
57.466251
11
68.134382
21
57.404084
0
LINE
8
Image
10
68.134382
20
57.404084
11
68.134382
21
57.404076
0
LINE
8
Image
10
98.515826
20
131.202789
11
96.436702
21
131.123386
0
LINE
8
Image
10
96.436702
20
131.123386
11
94.368175
21
130.828679
0
LINE
8
Image
10
94.368175
20
130.828679
11
92.296859
21
130.479698
0
LINE
8
Image
10
92.296859
20
130.479698
11
90.209367
21
130.237474
0
LINE
8
Image
10
90.209367
20
130.237474
11
87.809551
21
129.345830
0
LINE
8
Image
10
87.809551
20
129.345830
11
85.370760
21
128.569539
0
LINE
8
Image
10
85.370760
20
128.569539
11
80.514880
21
126.934322
0
LINE
8
Image
10
80.514880
20
126.934322
11
77.259262
21
125.924235
0
LINE
8
Image
10
77.259262
20
125.924235
11
73.825421
21
124.963462
0
LINE
8
Image
10
73.825421
20
124.963462
11
72.187787
21
124.661481
0
LINE
8
Image
10
72.187787
20
124.661481
11
70.680944
21
124.563726
0
LINE
8
Image
10
70.680944
20
124.563726
11
69.363339
21
124.734161
0
LINE
8
Image
10
69.363339
20
124.734161
11
68.293420
21
125.236752
0
LINE
8
Image
10
68.293420
20
125.236752
11
66.678394
21
126.451592
0
LINE
8
Image
10
66.678394
20
126.451592
11
64.839001
21
127.673293
0
LINE
8
Image
10
64.839001
20
127.673293
11
62.788696
21
128.614907
0
LINE
8
Image
10
62.788696
20
128.614907
11
61.688655
21
128.891011
0
LINE
8
Image
10
61.688655
20
128.891011
11
60.540932
21
128.989489
0
LINE
8
Image
10
60.540932
20
128.989489
11
59.593431
21
128.914272
0
LINE
8
Image
10
59.593431
20
128.914272
11
58.694946
21
128.691526
0
LINE
8
Image
10
58.694946
20
128.691526
11
56.990666
21
127.977266
0
LINE
8
Image
10
56.990666
20
127.977266
11
55.319380
21
127.194347
0
LINE
8
Image
10
55.319380
20
127.194347
11
53.572374
21
126.690408
0
LINE
8
Image
10
53.572374
20
126.690408
11
52.162960
21
126.738708
0
LINE
8
Image
10
52.162960
20
126.738708
11
50.867457
21
126.452696
0
LINE
8
Image
10
50.867457
20
126.452696
11
49.682967
21
125.887412
0
LINE
8
Image
10
49.682967
20
125.887412
11
48.606593
21
125.097895
0
LINE
8
Image
10
48.606593
20
125.097895
11
47.635437
21
124.139183
0
LINE
8
Image
10
47.635437
20
124.139183
11
46.766603
21
123.066315
0
LINE
8
Image
10
46.766603
20
123.066315
11
45.324309
21
120.798269
0
LINE
8
Image
10
45.324309
20
120.798269
11
44.534936
21
119.463720
0
LINE
8
Image
10
44.534936
20
119.463720
11
44.017710
21
118.031910
0
LINE
8
Image
10
44.017710
20
118.031910
11
43.765834
21
116.542113
0
LINE
8
Image
10
43.765834
20
116.542113
11
43.772511
21
115.033604
0
LINE
8
Image
10
43.772511
20
115.033604
11
44.030943
21
113.545657
0
LINE
8
Image
10
44.030943
20
113.545657
11
44.534333
21
112.117547
0
LINE
8
Image
10
44.534333
20
112.117547
11
45.275884
21
110.788547
0
LINE
8
Image
10
45.275884
20
110.788547
11
46.248799
21
109.597934
0
LINE
8
Image
10
46.248799
20
109.597934
11
47.959076
21
107.815156
0
LINE
8
Image
10
47.959076
20
107.815156
11
48.704971
21
106.822084
0
LINE
8
Image
10
48.704971
20
106.822084
11
49.302005
21
105.767973
0
LINE
8
Image
10
49.302005
20
105.767973
11
49.693151
21
104.657886
0
LINE
8
Image
10
49.693151
20
104.657886
11
49.821387
21
103.496886
0
LINE
8
Image
10
49.821387
20
103.496886
11
49.629686
21
102.290034
0
LINE
8
Image
10
49.629686
20
102.290034
11
49.061025
21
101.042394
0
LINE
8
Image
10
49.061025
20
101.042394
11
47.761690
21
99.871105
0
LINE
8
Image
10
47.761690
20
99.871105
11
46.377235
21
98.762252
0
LINE
8
Image
10
46.377235
20
98.762252
11
45.135914
21
97.530628
0
LINE
8
Image
10
45.135914
20
97.530628
11
44.640256
21
96.810901
0
LINE
8
Image
10
44.640256
20
96.810901
11
44.265977
21
95.991028
0
LINE
8
Image
10
44.265977
20
95.991028
11
43.622951
21
94.733823
0
LINE
8
Image
10
43.622951
20
94.733823
11
43.427860
21
93.497771
0
LINE
8
Image
10
43.427860
20
93.497771
11
43.611392
21
92.300818
0
LINE
8
Image
10
43.611392
20
92.300818
11
44.104238
21
91.160906
0
LINE
8
Image
10
44.104238
20
91.160906
11
44.837088
21
90.095981
0
LINE
8
Image
10
44.837088
20
90.095981
11
45.740630
21
89.123988
0
LINE
8
Image
10
45.740630
20
89.123988
11
47.782552
21
87.530574
0
LINE
8
Image
10
47.782552
20
87.530574
11
48.683999
21
86.594459
0
LINE
8
Image
10
48.683999
20
86.594459
11
49.152211
21
85.582979
0
LINE
8
Image
10
49.152211
20
85.582979
11
49.244687
21
84.531102
0
LINE
8
Image
10
49.244687
20
84.531102
11
49.018924
21
83.473798
0
LINE
8
Image
10
49.018924
20
83.473798
11
48.532419
21
82.446037
0
LINE
8
Image
10
48.532419
20
82.446037
11
47.842671
21
81.482788
0
LINE
8
Image
10
47.842671
20
81.482788
11
47.007177
21
80.619022
0
LINE
8
Image
10
47.007177
20
80.619022
11
46.083434
21
79.889708
0
LINE
8
Image
10
46.083434
20
79.889708
11
45.278229
21
78.705907
0
LINE
8
Image
10
45.278229
20
78.705907
11
44.595387
21
77.422575
0
LINE
8
Image
10
44.595387
20
77.422575
11
44.057263
21
76.064362
0
LINE
8
Image
10
44.057263
20
76.064362
11
43.686208
21
74.655920
0
LINE
8
Image
10
43.686208
20
74.655920
11
43.504573
21
73.221898
0
LINE
8
Image
10
43.504573
20
73.221898
11
43.534713
21
71.786947
0
LINE
8
Image
10
43.534713
20
71.786947
11
43.798977
21
70.375719
0
LINE
8
Image
10
43.798977
20
70.375719
11
44.319719
21
69.012865
0
LINE
8
Image
10
44.319719
20
69.012865
11
45.411424
21
67.129803
0
LINE
8
Image
10
45.411424
20
67.129803
11
46.740898
21
65.442226
0
LINE
8
Image
10
46.740898
20
65.442226
11
48.273527
21
63.941325
0
LINE
8
Image
10
48.273527
20
63.941325
11
49.974702
21
62.618295
0
LINE
8
Image
10
49.974702
20
62.618295
11
51.809811
21
61.464328
0
LINE
8
Image
10
51.809811
20
61.464328
11
53.744243
21
60.470617
0
LINE
8
Image
10
53.744243
20
60.470617
11
55.743386
21
59.628356
0
LINE
8
Image
10
55.743386
20
59.628356
11
57.772629
21
58.928739
0
LINE
8
Image
10
57.772629
20
58.928739
11
62.926836
21
58.166029
0
LINE
8
Image
10
62.926836
20
58.166029
11
68.114102
21
57.425989
0
LINE
8
Image
10
68.114102
20
57.425989
11
71.660206
21
57.488212
0
LINE
8
Image
10
71.660206
20
57.488212
11
75.175161
21
57.949472
0
LINE
8
Image
10
75.175161
20
57.949472
11
76.479726
21
58.316209
0
LINE
8
Image
10
76.479726
20
58.316209
11
77.791085
21
58.496434
0
LINE
8
Image
10
77.791085
20
58.496434
11
80.426613
21
58.432755
0
LINE
8
Image
10
80.426613
20
58.432755
11
83.066613
21
58.029248
0
LINE
8
Image
10
83.066613
20
58.029248
11
85.695952
21
57.556730
0
LINE
8
Image
10
85.695952
20
57.556730
11
105.848818
21
57.502801
0
LINE
8
Image
10
105.848818
20
57.502801
11
126.003521
21
57.564985
0
LINE
8
Image
10
126.003521
20
57.564985
11
129.704130
21
57.565023
0
LINE
8
Image
10
129.704130
20
57.565023
11
133.496836
21
57.641547
0
LINE
8
Image
10
133.496836
20
57.641547
11
135.341336
21
57.884984
0
LINE
8
Image
10
135.341336
20
57.884984
11
137.105194
21
58.359335
0
LINE
8
Image
10
137.105194
20
58.359335
11
138.753854
21
59.135195
0
LINE
8
Image
10
138.753854
20
59.135195
11
140.252760
21
60.283163
0
LINE
8
Image
10
140.252760
20
60.283163
11
141.003162
21
61.072615
0
LINE
8
Image
10
141.003162
20
61.072615
11
141.621208
21
61.936061
0
LINE
8
Image
10
141.621208
20
61.936061
11
142.537658
21
63.833785
0
LINE
8
Image
10
142.537658
20
63.833785
11
143.156955
21
65.874037
0
LINE
8
Image
10
143.156955
20
65.874037
11
143.633946
21
67.954519
0
LINE
8
Image
10
143.633946
20
67.954519
11
143.949473
21
92.117726
0
LINE
8
Image
10
143.949473
20
92.117726
11
144.161561
21
116.283808
0
LINE
8
Image
10
144.161561
20
116.283808
11
144.228604
21
117.715389
0
LINE
8
Image
10
144.228604
20
117.715389
11
144.032663
21
119.110650
0
LINE
8
Image
10
144.032663
20
119.110650
11
143.594607
21
120.437880
0
LINE
8
Image
10
143.594607
20
120.437880
11
142.935305
21
121.665371
0
LINE
8
Image
10
142.935305
20
121.665371
11
142.075624
21
122.761411
0
LINE
8
Image
10
142.075624
20
122.761411
11
141.036434
21
123.694292
0
LINE
8
Image
10
141.036434
20
123.694292
11
139.838603
21
124.432303
0
LINE
8
Image
10
139.838603
20
124.432303
11
138.502999
21
124.943734
0
LINE
8
Image
10
138.502999
20
124.943734
11
136.502060
21
125.379662
0
LINE
8
Image
10
136.502060
20
125.379662
11
134.476538
21
125.662047
0
LINE
8
Image
10
134.476538
20
125.662047
11
130.376015
21
125.892313
0
LINE
8
Image
10
130.376015
20
125.892313
11
122.146912
21
125.897680
0
LINE
8
Image
10
122.146912
20
125.897680
11
119.159598
21
126.287118
0
LINE
8
Image
10
119.159598
20
126.287118
11
116.126404
21
126.495985
0
LINE
8
Image
10
116.126404
20
126.495985
11
113.159332
21
126.940679
0
LINE
8
Image
10
113.159332
20
126.940679
11
111.735593
21
127.381586
0
LINE
8
Image
10
111.735593
20
127.381586
11
110.370386
21
128.037599
0
LINE
8
Image
10
110.370386
20
128.037599
11
104.559710
21
130.106852
0
LINE
8
Image
10
104.559710
20
130.106852
11
101.584412
21
130.873489
0
LINE
8
Image
10
101.584412
20
130.873489
11
98.515826
21
131.202776
0
LINE
8
Image
10
98.515826
20
131.202776
11
98.515826
21
131.202789
0
LINE
8
Image
10
97.690555
20
130.711347
11
99.614467
21
130.642947
0
LINE
8
Image
10
99.614467
20
130.642947
11
101.519775
21
130.368215
0
LINE
8
Image
10
101.519775
20
130.368215
11
102.536766
21
130.143941
0
LINE
8
Image
10
102.536766
20
130.143941
11
103.258683
21
129.955839
0
LINE
8
Image
10
103.258683
20
129.955839
11
106.684918
21
128.835993
0
LINE
8
Image
10
106.684918
20
128.835993
11
110.071179
21
127.596811
0
LINE
8
Image
10
110.071179
20
127.596811
11
111.291002
21
127.002976
0
LINE
8
Image
10
111.291002
20
127.002976
11
112.575415
21
126.564834
0
LINE
8
Image
10
112.575415
20
126.564834
11
114.911464
21
126.116158
0
LINE
8
Image
10
114.911464
20
126.116158
11
117.282047
21
125.910139
0
LINE
8
Image
10
117.282047
20
125.910139
11
119.658857
21
125.741951
0
LINE
8
Image
10
119.658857
20
125.741951
11
122.013588
21
125.406768
0
LINE
8
Image
10
122.013588
20
125.406768
11
131.339620
21
125.369559
0
LINE
8
Image
10
131.339620
20
125.369559
11
134.386726
21
125.165480
0
LINE
8
Image
10
134.386726
20
125.165480
11
137.412628
21
124.681747
0
LINE
8
Image
10
137.412628
20
124.681747
11
138.743140
21
124.327614
0
LINE
8
Image
10
138.743140
20
124.327614
11
139.991797
21
123.752608
0
LINE
8
Image
10
139.991797
20
123.752608
11
141.267685
21
122.799694
0
LINE
8
Image
10
141.267685
20
122.799694
11
142.417100
21
121.445500
0
LINE
8
Image
10
142.417100
20
121.445500
11
143.215323
21
119.857623
0
LINE
8
Image
10
143.215323
20
119.857623
11
143.618502
21
118.129125
0
LINE
8
Image
10
143.618502
20
118.129125
11
143.582786
21
116.353068
0
LINE
8
Image
10
143.582786
20
116.353068
11
143.370199
21
92.200930
0
LINE
8
Image
10
143.370199
20
92.200930
11
143.055170
21
68.050134
0
LINE
8
Image
10
143.055170
20
68.050134
11
142.420115
21
65.381499
0
LINE
8
Image
10
142.420115
20
65.381499
11
142.000835
21
64.077787
0
LINE
8
Image
10
142.000835
20
64.077787
11
141.449070
21
62.823070
0
LINE
8
Image
10
141.449070
20
62.823070
11
140.300020
21
61.163884
0
LINE
8
Image
10
140.300020
20
61.163884
11
138.774299
21
59.839793
0
LINE
8
Image
10
138.774299
20
59.839793
11
137.531355
21
59.152549
0
LINE
8
Image
10
137.531355
20
59.152549
11
136.197368
21
58.674123
0
LINE
8
Image
10
136.197368
20
58.674123
11
134.807744
21
58.368739
0
LINE
8
Image
10
134.807744
20
58.368739
11
133.397891
21
58.200619
0
LINE
8
Image
10
133.397891
20
58.200619
11
132.556599
21
58.148941
0
LINE
8
Image
10
132.556599
20
58.148941
11
132.020199
21
58.129309
0
LINE
8
Image
10
132.020199
20
58.129309
11
125.978198
21
58.127192
0
LINE
8
Image
10
125.978198
20
58.127192
11
105.848366
21
58.064691
0
LINE
8
Image
10
105.848366
20
58.064691
11
85.718690
21
58.117376
0
LINE
8
Image
10
85.718690
20
58.117376
11
81.062133
21
58.915261
0
LINE
8
Image
10
81.062133
20
58.915261
11
79.546898
21
59.064484
0
LINE
8
Image
10
79.546898
20
59.064484
11
78.021999
21
59.073911
0
LINE
8
Image
10
78.021999
20
59.073911
11
76.511577
21
58.903115
0
LINE
8
Image
10
76.511577
20
58.903115
11
75.039768
21
58.511668
0
LINE
8
Image
10
75.039768
20
58.511668
11
72.893857
21
58.168212
0
LINE
8
Image
10
72.893857
20
58.168212
11
70.725827
21
58.001105
0
LINE
8
Image
10
70.725827
20
58.001105
11
68.625700
21
57.975256
0
LINE
8
Image
10
68.625700
20
57.975256
11
67.452644
21
58.100829
0
LINE
8
Image
10
67.452644
20
58.100829
11
62.665043
21
58.757880
0
LINE
8
Image
10
62.665043
20
58.757880
11
57.902336
21
59.465604
0
LINE
8
Image
10
57.902336
20
59.465604
11
55.568128
21
60.276335
0
LINE
8
Image
10
55.568128
20
60.276335
11
53.307791
21
61.275825
0
LINE
8
Image
10
53.307791
20
61.275825
11
51.250357
21
62.413698
0
LINE
8
Image
10
51.250357
20
62.413698
11
49.317373
21
63.757405
0
LINE
8
Image
10
49.317373
20
63.757405
11
47.563303
21
65.319663
0
LINE
8
Image
10
47.563303
20
65.319663
11
46.042609
21
67.113188
0
LINE
8
Image
10
46.042609
20
67.113188
11
45.095686
21
68.595952
0
LINE
8
Image
10
45.095686
20
68.595952
11
44.367262
21
70.195167
0
LINE
8
Image
10
44.367262
20
70.195167
11
44.216367
21
70.707796
0
LINE
8
Image
10
44.216367
20
70.707796
11
44.007423
21
71.917145
0
LINE
8
Image
10
44.007423
20
71.917145
11
43.979171
21
73.144339
0
LINE
8
Image
10
43.979171
20
73.144339
11
44.213204
21
74.854997
0
LINE
8
Image
10
44.213204
20
74.854997
11
44.715439
21
76.506201
0
LINE
8
Image
10
44.715439
20
76.506201
11
45.452991
21
78.069914
0
LINE
8
Image
10
45.452991
20
78.069914
11
46.392975
21
79.518101
0
LINE
8
Image
10
46.392975
20
79.518101
11
47.449324
21
80.387540
0
LINE
8
Image
10
47.449324
20
80.387540
11
48.375797
21
81.394986
0
LINE
8
Image
10
48.375797
20
81.394986
11
48.945697
21
82.223621
0
LINE
8
Image
10
48.945697
20
82.223621
11
49.392805
21
83.129521
0
LINE
8
Image
10
49.392805
20
83.129521
11
49.667822
21
84.094066
0
LINE
8
Image
10
49.667822
20
84.094066
11
49.721451
21
85.098633
0
LINE
8
Image
10
49.721451
20
85.098633
11
49.563573
21
85.924726
0
LINE
8
Image
10
49.563573
20
85.924726
11
49.218763
21
86.688306
0
LINE
8
Image
10
49.218763
20
86.688306
11
48.721575
21
87.367599
0
LINE
8
Image
10
48.721575
20
87.367599
11
48.106563
21
87.940831
0
LINE
8
Image
10
48.106563
20
87.940831
11
46.980180
21
88.746018
0
LINE
8
Image
10
46.980180
20
88.746018
11
45.936673
21
89.655453
0
LINE
8
Image
10
45.936673
20
89.655453
11
44.689305
21
91.161717
0
LINE
8
Image
10
44.689305
20
91.161717
11
44.234463
21
92.024205
0
LINE
8
Image
10
44.234463
20
92.024205
11
43.956952
21
92.961190
0
LINE
8
Image
10
43.956952
20
92.961190
11
43.909096
21
93.700876
0
LINE
8
Image
10
43.909096
20
93.700876
11
44.027083
21
94.429625
0
LINE
8
Image
10
44.027083
20
94.429625
11
44.673702
21
95.756366
0
LINE
8
Image
10
44.673702
20
95.756366
11
45.459701
21
97.181598
0
LINE
8
Image
10
45.459701
20
97.181598
11
46.365264
21
98.125379
0
LINE
8
Image
10
46.365264
20
98.125379
11
47.371943
21
98.961685
0
LINE
8
Image
10
47.371943
20
98.961685
11
49.355583
21
100.669755
0
LINE
8
Image
10
49.355583
20
100.669755
11
49.937975
21
101.746174
0
LINE
8
Image
10
49.937975
20
101.746174
11
50.214996
21
102.691093
0
LINE
8
Image
10
50.214996
20
102.691093
11
50.298025
21
103.670390
0
LINE
8
Image
10
50.298025
20
103.670390
11
50.194699
21
104.649148
0
LINE
8
Image
10
50.194699
20
104.649148
11
49.912654
21
105.592446
0
LINE
8
Image
10
49.912654
20
105.592446
11
49.348110
21
106.742692
0
LINE
8
Image
10
49.348110
20
106.742692
11
48.626678
21
107.799433
0
LINE
8
Image
10
48.626678
20
107.799433
11
46.897855
21
109.692964
0
LINE
8
Image
10
46.897855
20
109.692964
11
45.537262
21
111.309368
0
LINE
8
Image
10
45.537262
20
111.309368
11
44.638536
21
113.220392
0
LINE
8
Image
10
44.638536
20
113.220392
11
44.235014
21
115.295619
0
LINE
8
Image
10
44.235014
20
115.295619
11
44.360031
21
117.404630
0
LINE
8
Image
10
44.360031
20
117.404630
11
44.434445
21
117.751895
0
LINE
8
Image
10
44.434445
20
117.751895
11
44.828975
21
118.966977
0
LINE
8
Image
10
44.828975
20
118.966977
11
45.417844
21
120.100585
0
LINE
8
Image
10
45.417844
20
120.100585
11
46.335616
21
121.590415
0
LINE
8
Image
10
46.335616
20
121.590415
11
47.926943
21
123.760646
0
LINE
8
Image
10
47.926943
20
123.760646
11
48.879510
21
124.707434
0
LINE
8
Image
10
48.879510
20
124.707434
11
49.965364
21
125.501282
0
LINE
8
Image
10
49.965364
20
125.501282
11
50.788977
21
125.910166
0
LINE
8
Image
10
50.788977
20
125.910166
11
51.670698
21
126.168648
0
LINE
8
Image
10
51.670698
20
126.168648
11
52.583419
21
126.265659
0
LINE
8
Image
10
52.583419
20
126.265659
11
53.500029
21
126.190129
0
LINE
8
Image
10
53.500029
20
126.190129
11
54.527174
21
126.399900
0
LINE
8
Image
10
54.527174
20
126.399900
11
55.515924
21
126.755985
0
LINE
8
Image
10
55.515924
20
126.755985
11
57.625631
21
127.748635
0
LINE
8
Image
10
57.625631
20
127.748635
11
58.702821
21
128.183991
0
LINE
8
Image
10
58.702821
20
128.183991
11
59.834517
21
128.454587
0
LINE
8
Image
10
59.834517
20
128.454587
11
61.011359
21
128.470311
0
LINE
8
Image
10
61.011359
20
128.470311
11
62.166508
21
128.263246
0
LINE
8
Image
10
62.166508
20
128.263246
11
63.280786
21
127.876804
0
LINE
8
Image
10
63.280786
20
127.876804
11
64.335013
21
127.354398
0
LINE
8
Image
10
64.335013
20
127.354398
11
65.212478
21
126.823163
0
LINE
8
Image
10
65.212478
20
126.823163
11
66.786541
21
125.706437
0
LINE
8
Image
10
66.786541
20
125.706437
11
68.375587
21
124.563357
0
LINE
8
Image
10
68.375587
20
124.563357
11
69.264450
21
124.233114
0
LINE
8
Image
10
69.264450
20
124.233114
11
70.198407
21
124.085333
0
LINE
8
Image
10
70.198407
20
124.085333
11
72.095253
21
124.155629
0
LINE
8
Image
10
72.095253
20
124.155629
11
75.517240
21
124.895845
0
LINE
8
Image
10
75.517240
20
124.895845
11
78.867956
21
125.926062
0
LINE
8
Image
10
78.867956
20
125.926062
11
81.179959
21
126.675885
0
LINE
8
Image
10
81.179959
20
126.675885
11
85.739496
21
128.177133
0
LINE
8
Image
10
85.739496
20
128.177133
11
90.280683
21
129.748046
0
LINE
8
Image
10
90.280683
20
129.748046
11
93.559162
21
130.194161
0
LINE
8
Image
10
93.559162
20
130.194161
11
96.834796
21
130.664267
0
LINE
8
Image
10
96.834796
20
130.664267
11
97.690558
21
130.711294
0
LINE
8
Image
10
97.690558
20
130.711294
11
97.690555
21
130.711347
 0 
ENDSEC
 0 
EOF