<?xml version="1.0" encoding="UTF-8" standalone="no"?>
<!-- Created with Inkscape (http://www.inkscape.org/) -->

<svg
   version="1.1"
   id="svg1"
   width="381.01276"
   height="278.94064"
   viewBox="0 0 381.01276 278.94064"
   xmlns="http://www.w3.org/2000/svg"
   xmlns:svg="http://www.w3.org/2000/svg">
  <defs
     id="defs1" />
  <g
     id="g1"
     transform="translate(-164.13682,-259.92221)">
    <path
       id="path5-0"
       style="display:inline;fill:#4d4d4d"
       d="m 372.34375,259.95703 c -10.52668,-0.41285 -20.81163,2.96727 -31.39453,3.64844 -11.93716,4.96401 -24.61643,7.68524 -36.64063,12.48437 -15.17176,4.35487 -36.85251,13.37027 -46.1914,6.41602 -7.55079,-5.62274 -17.49852,-14.20669 -29.30078,-14.18359 -9.84229,-0.13135 -17.16067,7.43681 -26.33789,8.68945 -14.78891,-2.35643 -24.8687,10.9838 -31.17383,22.26953 -9.35018,12.82851 -7.45472,31.16145 3.49414,42.33203 8.77802,8.24984 18.45152,19.57274 10.6289,32.33594 -5.94995,6.37099 -15.05829,10.24606 -18.12304,19.0918 -8.97106,12.71737 2.9106,25.30538 13.29101,31.97656 11.46186,8.93758 3.13985,22.32336 -6.42187,28.8789 -8.65702,11.34684 -13.28203,27.70009 -6.66602,41.10938 9.68855,19.99361 30.35806,31.75125 50.84571,38.11328 12.88414,2.47221 26.03519,3.32172 39.08593,5.67969 8.94686,0.25541 17.89761,-0.22303 26.6875,-1.97852 13.10781,-4.74989 26.56572,-0.61579 39.76367,1.48438 50.77031,0.53564 101.56419,0.0183 152.34376,-0.0312 17.95234,-0.75618 39.61911,3.40901 53.85546,-10.27344 8.29513,-7.54085 10.47402,-18.58028 12.7793,-28.99414 1.29874,-60.84239 1.21667,-121.80523 1.99414,-182.66211 2.07109,-14.50505 -7.30132,-28.82423 -21.38672,-32.73047 -20.02271,-5.27329 -41.28103,-3.08538 -61.81836,-3.60547 -14.75045,-3.11697 -31.09217,-0.21723 -44.50976,-8.08789 -14.58237,-5.13648 -29.0471,-11.73138 -44.80469,-11.96289 z m -3.11914,1.85742 c 4.85528,-0.0786 9.71113,0.3357 14.47266,1.29688 1.35646,0.26623 2.54099,0.53259 3.84375,0.84765 0.76589,0.18743 1.95283,0.49699 2.72851,0.71094 8.76452,2.4226 17.18497,5.89204 25.74805,8.91602 2.97708,1.68296 6.16226,3.00203 9.46484,3.90039 11.63766,3.21654 23.90869,1.92299 35.67188,4.37695 11.7443,0.33698 23.50163,-0.25199 35.24804,0.14063 7.63135,0.25345 15.42863,0.93688 22.95313,2.59961 3.3951,0.69278 6.76545,1.70587 9.74805,3.51171 1.60152,0.93077 3.37621,2.24257 4.82226,3.60157 6.60357,6.07916 10.10953,15.4515 8.75,24.36523 -0.77231,60.8529 -0.70559,121.71637 -1.99414,182.5625 -1.50264,6.71889 -2.87449,13.59234 -6.07031,19.75586 -2.30738,4.56461 -5.90381,8.39945 -10.10938,11.27539 -5.97479,4.04954 -13.22403,5.63386 -20.32031,6.19531 -0.96803,0.075 -2.08522,0.14632 -3.17969,0.19532 -0.56492,0.032 -1.45081,0.0539 -2.02734,0.0742 -7.61133,0.20611 -15.22596,-0.28649 -22.83594,0.008 -50.72035,0.0628 -101.44255,0.55477 -152.16211,0.0371 -5.88043,-0.91317 -11.69617,-2.23234 -17.59961,-3.01563 -7.57094,-1.03633 -15.48257,-1.07113 -22.76172,1.52539 -5.35755,1.13812 -10.83567,1.68026 -16.30468,1.92969 -2.60439,0.1069 -5.26728,0.14076 -7.9375,0.0977 -1.49919,0.065 -2.96702,-0.19792 -4.4336,-0.47461 -11.98069,-1.98661 -24.24046,-2.91624 -36.0957,-5.15821 -5.95881,-1.79914 -11.77868,-4.09142 -17.36523,-6.84179 -10.59028,-5.23689 -20.47516,-12.42017 -27.45899,-22.0625 -2.56525,-3.60328 -4.86788,-7.45832 -6.33203,-11.64844 -0.2081,-0.61503 -0.44454,-1.43916 -0.57031,-1.9375 -0.76433,-3.00172 -1.04274,-6.11734 -0.89649,-9.20899 0.44835,-8.72336 3.93129,-17.13007 9.12305,-24.08984 2.77648,-2.03138 5.37215,-4.3669 7.49414,-7.09375 3.09852,-3.94983 5.45633,-8.8661 5.08594,-13.99805 -0.26655,-4.28394 -2.76541,-8.15726 -6.10352,-10.74218 -2.89591,-1.93813 -5.7229,-4.017 -8.20117,-6.48047 -3.46542,-3.43394 -6.61235,-7.58261 -7.48242,-12.49414 -0.69552,-3.71398 0.49936,-7.56453 2.70898,-10.56446 0.71097,-1.92769 1.66392,-3.78604 2.97071,-5.38671 4.16882,-5.17716 10.19599,-8.36936 14.72461,-13.1836 0.98093,-1.18989 1.59842,-2.65482 2.20117,-4.06836 1.89764,-4.61652 1.76312,-9.93148 -0.0957,-14.53711 -2.37207,-6.05756 -6.79079,-11.0201 -11.39453,-15.49804 -7.96431,-7.18424 -11.60955,-18.65234 -9.59179,-29.14649 0.0925,-0.49278 0.20175,-0.94137 0.28125,-1.3125 0.74151,-3.13567 1.99593,-6.15186 3.71679,-8.87695 1.29297,-1.79189 2.2846,-3.76809 3.46875,-5.63086 3.59093,-5.70353 7.87474,-11.24261 13.71875,-14.78125 3.95854,-2.42089 8.77597,-3.43749 13.35938,-2.60352 2.63007,-0.27805 5.18255,-1.12329 7.61914,-2.13867 5.39049,-2.23691 10.43197,-5.62779 16.32226,-6.41992 5.95299,-0.71353 11.88065,1.25594 17.00977,4.1582 1.11627,0.61766 2.32553,1.37122 3.31641,2.00782 2.03486,1.33289 4.00528,2.75913 5.94922,4.2207 2.00889,1.42753 3.84624,3.11769 6.00585,4.32031 4.32103,2.2002 9.36452,2.10401 14.0586,1.54102 8.77619,-1.15959 17.18062,-4.0704 25.59765,-6.69141 2.90169,-0.98086 5.9061,-1.65616 8.73829,-2.83398 11.31534,-4.28067 23.17361,-6.97959 34.39648,-11.61133 8.3347,-0.56856 16.45112,-2.77343 24.77148,-3.46289 1.1316,-0.10146 2.16506,-0.14874 3.23438,-0.17774 z" />
  </g>
</svg>
