<?xml version="1.0" encoding="UTF-8" standalone="no"?>
<!-- Created with Inkscape (http://www.inkscape.org/) -->

<svg
   version="1.1"
   id="svg1"
   width="381.01346"
   height="278.94073"
   viewBox="0 0 381.01346 278.94074"
   sodipodi:docname="design1-outline.svg"
   inkscape:version="1.3.2 (091e20e, 2023-11-25, custom)"
   xmlns:inkscape="http://www.inkscape.org/namespaces/inkscape"
   xmlns:sodipodi="http://sodipodi.sourceforge.net/DTD/sodipodi-0.dtd"
   xmlns="http://www.w3.org/2000/svg"
   xmlns:svg="http://www.w3.org/2000/svg">
  <defs
     id="defs1" />
  <sodipodi:namedview
     id="namedview1"
     pagecolor="#ffffff"
     bordercolor="#000000"
     borderopacity="0.25"
     inkscape:showpageshadow="2"
     inkscape:pageopacity="0.0"
     inkscape:pagecheckerboard="0"
     inkscape:deskcolor="#d1d1d1"
     showgrid="false"
     inkscape:zoom="2"
     inkscape:cx="552"
     inkscape:cy="462.75"
     inkscape:window-width="2560"
     inkscape:window-height="1494"
     inkscape:window-x="-11"
     inkscape:window-y="-11"
     inkscape:window-maximized="1"
     inkscape:current-layer="g1" />
  <g
     inkscape:groupmode="layer"
     inkscape:label="Image"
     id="g1"
     transform="translate(-164.21432,-260.00494)">
    <path
       style="fill:#000000"
       d="m 257.5161,538.88165 c -13.05076,-2.35797 -26.20133,-3.2074 -39.08549,-5.67961 -20.48767,-6.36204 -41.15676,-18.11873 -50.84532,-38.11236 -6.61602,-13.4093 -1.99078,-29.76373 6.66625,-41.11058 9.56173,-6.55555 17.88398,-19.94024 6.42211,-28.87783 -10.38042,-6.67118 -22.26261,-19.26004 -13.29154,-31.97743 3.06476,-8.84574 12.17315,-12.72047 18.12311,-19.09147 7.82262,-12.76321 -1.85105,-24.08654 -10.62908,-32.33639 -10.94887,-11.17059 -12.84487,-29.50362 -3.49468,-42.33214 6.30514,-11.28574 16.38576,-24.62428 31.17468,-22.26785 9.17723,-1.25264 16.49488,-8.82235 26.33718,-8.691 11.80228,-0.0231 21.75123,8.56155 29.30203,14.18429 9.3389,6.95426 31.01848,-2.06133 46.19026,-6.4162 12.02421,-4.79914 24.70324,-7.52027 36.64041,-12.48429 10.58291,-0.68117 20.86764,-4.06186 31.39433,-3.64901 15.75761,0.23151 30.22353,6.8276 44.80591,11.96409 13.41761,7.87067 29.75903,4.96993 44.5095,8.08691 20.53735,0.52009 41.79548,-1.66679 61.81821,3.60651 14.08541,3.90624 23.45862,18.22412 21.38753,32.72918 -0.77747,60.85694 -0.69677,121.81974 -1.99551,182.66219 -2.30528,10.41387 -4.48386,21.45433 -12.77899,28.99519 -14.23637,13.68246 -35.90286,9.51671 -53.85522,10.27289 -50.77962,0.0496 -101.57438,0.56614 -152.34474,0.0305 -13.19797,-2.10017 -26.65562,-6.23362 -39.76344,-1.48372 -8.7899,1.75549 -17.74063,2.23351 -26.6875,1.9781 z"
       id="path5"
       inkscape:export-filename="path5.svg"
       inkscape:export-xdpi="96"
       inkscape:export-ydpi="96" />
  </g>
</svg>
