#VRML V2.0 utf8
# 3D model generated by easyeda2kicad.py (https://github.com/uPesy/easyeda2kicad.py)

Shape{
    appearance Appearance {
        material  Material 	{
            diffuseColor 1.0 1.0 1.0
            specularColor 0.5019607843137255 0.5019607843137255 0.5019607843137255
            ambientIntensity 1.0
            transparency 0.0
            shininess 0.5
        }
    }
    geometry IndexedFaceSet {
        ccw TRUE
        solid FALSE
        coord DEF co Coordinate {
            point [
                -0.11 0.2953 -0.0492, -0.1104 0.2953 -0.0525, -0.111 0.2953 -0.0404, -0.0595 0.2953 -0.1027, -0.0578 0.2953 -0.1029, -0.0632 0.2953 -0.1026, -0.1183 0.2953 -0.1968, -0.1409 0.2953 -0.1968, -0.1409 0.2953 -0.155, -0.0515 0.2953 -0.1968, -0.0675 0.2953 -0.1968, -0.0675 0.2953 -0.155, -0.0675 0.2953 -0.0407, -0.0675 0.2953 -0.0404, -0.0664 0.2953 -0.0404, 0.3023 0.2953 -0.1968, -0.0269 0.2953 -0.1968, -0.0269 0.2953 -0.155, -0.0401 0.2953 -0.0403, -0.0401 0.2953 -0.0404, -0.0501 0.2953 -0.0404, 0.039 0.2953 -0.1021, 0.0395 0.2953 -0.103, -0.0269 0.2953 -0.103, -0.0063 0.2953 -0.0588, -0.0109 0.2953 -0.0627, -0.0269 0.2953 -0.0404, -0.0269 0.2953 -0.0648, 0.0153 0.2953 -0.0377, 0.0116 0.2953 -0.0404, 0.0088 0.2953 -0.0424, 0.0029 0.2953 -0.0494, -0.0004 0.2953 -0.0559, -0.0012 0.2953 -0.0562, -0.0269 0.2953 0.1024, 0.6299 0.2953 0.1024, 0.3701 0.2953 0.0, 0.6299 0.2953 0.0, 0.0396 0.2953 -0.0341, 0.0319 0.2953 -0.0333, 0.0238 0.2953 -0.0344, 0.363 0.2953 -0.0404, 0.0531 0.2953 -0.0404, 0.0525 0.2953 -0.0398, 0.0475 0.2953 -0.0369, 0.3587 0.2953 -0.0648, 0.0899 0.2953 -0.0648, 0.0878 0.2953 -0.0602, 0.0837 0.2953 -0.055, 0.0707 0.2953 -0.0477, 0.064 0.2953 -0.0469, 0.0565 0.2953 -0.0432, 0.062 0.2953 -0.047, 0.06 0.2953 -0.0473, 0.0825 0.2953 -0.0539, 0.077 0.2953 -0.0501, 0.0795 0.2953 -0.0976, 0.0848 0.2953 -0.0931, 0.3519 0.2953 -0.103, 0.0734 0.2953 -0.1007, 0.0887 0.2953 -0.0875, 0.0911 0.2953 -0.0811, 0.3574 0.2953 -0.0717, 0.0918 0.2953 -0.0744, 0.0918 0.2953 -0.0727, 0.0916 0.2953 -0.0717, 0.0906 0.2953 -0.0663, 0.0712 0.2953 -0.1014, 0.0704 0.2953 -0.103, 0.0695 0.2953 -0.105, 0.3512 0.2953 -0.107, 0.3428 0.2953 -0.155, 0.067 0.2953 -0.1082, 0.0679 0.2953 -0.107, 0.0557 0.2953 -0.1131, 0.0597 0.2953 -0.1124, 0.0637 0.2953 -0.1107, 0.0471 0.2953 -0.1112, 0.0509 0.2953 -0.1126, 0.055 0.2953 -0.1131, -0.0269 0.2953 -0.107, 0.041 0.2953 -0.1059, 0.0421 0.2953 -0.107, 0.0437 0.2953 -0.1088, -0.0164 0.2953 -0.0728, -0.0171 0.2953 -0.0784, -0.0269 0.2953 -0.0717, 0.0171 0.2953 -0.0921, 0.0159 0.2953 -0.0917, 0.0138 0.2953 -0.0819, 0.042 0.2953 -0.0847, 0.0191 0.2953 -0.0729, 0.045 0.2953 -0.0819, 0.0486 0.2953 -0.0799, 0.0181 0.2953 -0.0929, -0.0064 0.2953 -0.077, -0.0057 0.2953 -0.0737, -0.0046 0.2953 -0.0717, 0.0807 0.2953 -0.0717, -0.0141 0.2953 -0.0899, -0.0107 0.2953 -0.0946, -0.006 0.2953 -0.0985, -0.0008 0.2953 -0.101, 0.0146 0.2953 -0.0915, 0.0144 0.2953 -0.0915, 0.0139 0.2953 -0.0916, -0.0163 0.2953 -0.0845, 0.0797 0.2953 -0.0809, 0.0777 0.2953 -0.0844, 0.069 0.2953 -0.0863, 0.0746 0.2953 -0.0876, 0.0709 0.2953 -0.0899, 0.0627 0.2953 -0.0806, 0.0662 0.2953 -0.083, 0.0811 0.2953 -0.0741, 0.0809 0.2953 -0.0768, 0.0589 0.2953 -0.0792, 0.0548 0.2953 -0.0788, 0.0527 0.2953 -0.0789, -0.003 0.2953 -0.0875, -0.0049 0.2953 -0.0849, -0.0061 0.2953 -0.0818, -0.0065 0.2953 -0.0785, 0.0199 0.2953 -0.0968, 0.0199 0.2953 -0.0961, 0.0378 0.2953 -0.0944, 0.0195 0.2953 -0.0948, 0.0189 0.2953 -0.0936, 0.0171 0.2953 -0.1015, 0.0182 0.2953 -0.1007, 0.0186 0.2953 -0.1003, 0.0193 0.2953 -0.0992, 0.0198 0.2953 -0.098, 0.038 0.2953 -0.0979, 0.0378 0.2953 -0.0961, 0.0136 0.2953 -0.0917, 0.0059 0.2953 -0.0917, 0.0028 0.2953 -0.0912, 0.0049 0.2953 -0.1022, 0.015 0.2953 -0.1021, 0.016 0.2953 -0.1019, -0.0002 0.2953 -0.0898, -0.0028 0.2953 -0.0878, 0.0081 0.2953 -0.0651, 0.079 0.2953 -0.0662, 0.0805 0.2953 -0.07, 0.0067 0.2953 -0.0651, -0.0041 0.2953 -0.0708, -0.0021 0.2953 -0.0686, 0.0005 0.2953 -0.0667, 0.0035 0.2953 -0.0655, 0.0117 0.2953 -0.0548, 0.0155 0.2953 -0.0502, 0.0548 0.2953 -0.0598, 0.0159 0.2953 -0.0498, 0.0207 0.2953 -0.0464, 0.0522 0.2953 -0.0544, 0.078 0.2953 -0.0648, 0.0561 0.2953 -0.0591, 0.0081 0.2953 -0.0648, 0.0091 0.2953 -0.0603, 0.0599 0.2953 -0.0577, 0.0639 0.2953 -0.0572, 0.0656 0.2953 -0.0572, 0.0483 0.2953 -0.0499, 0.0261 0.2953 -0.0443, 0.0437 0.2953 -0.0465, 0.0318 0.2953 -0.0436, 0.0381 0.2953 -0.0443, 0.0699 0.2953 -0.0582, 0.0737 0.2953 -0.0602, 0.0767 0.2953 -0.0628, -0.0123 0.2953 -0.0648, -0.0143 0.2953 -0.0676, -0.0159 0.2953 -0.0717, -0.1409 0.2953 -0.0717, -0.1508 0.2953 -0.0792, -0.1541 0.2953 -0.0792, -0.1415 0.2953 -0.103, -0.1409 0.2953 -0.103, -0.1415 0.2953 -0.1031, -0.1409 0.2953 -0.107, -0.1449 0.2953 -0.1031, -0.1597 0.2953 -0.1032, -0.1596 0.2953 -0.103, -0.1449 0.2953 -0.103, -0.1573 0.2953 -0.0967, -0.1473 0.2953 -0.0966, -0.111 0.2953 -0.0789, -0.1157 0.2953 -0.0789, -0.1183 0.2953 -0.0717, -0.1157 0.2953 -0.0817, -0.1149 0.2953 -0.0894, -0.1149 0.2953 -0.0921, -0.1183 0.2953 -0.103, -0.111 0.2953 -0.0921, -0.1063 0.2953 -0.092, -0.111 0.2953 -0.1002, -0.1062 0.2953 -0.1001, -0.111 0.2953 -0.0816, -0.111 0.2953 -0.0893, -0.1064 0.2953 -0.0816, -0.1063 0.2953 -0.0893, -0.0913 0.2953 -0.0985, -0.0917 0.2953 -0.0999, -0.0917 0.2953 -0.0999, -0.1161 0.2953 -0.1002, -0.116 0.2953 -0.1029, -0.111 0.2953 -0.103, -0.111 0.2953 -0.1029, -0.1031 0.2953 -0.1028, -0.1 0.2953 -0.0857, -0.0885 0.2953 -0.0717, -0.0969 0.2953 -0.0856, -0.0885 0.2953 -0.0903, -0.0921 0.2953 -0.0985, -0.0919 0.2953 -0.0993, -0.0718 0.2953 -0.1026, -0.0703 0.2953 -0.102, -0.0675 0.2953 -0.103, -0.0703 0.2953 -0.0989, -0.0675 0.2953 -0.0717, -0.0715 0.2953 -0.0997, -0.0718 0.2953 -0.0998, -0.0718 0.2953 -0.0934, -0.0712 0.2953 -0.0928, -0.0708 0.2953 -0.0922, -0.0705 0.2953 -0.0913, -0.0704 0.2953 -0.0901, -0.0705 0.2953 -0.089, -0.0717 0.2953 -0.0933, -0.075 0.2953 -0.103, -0.0749 0.2953 -0.1031, -0.0718 0.2953 -0.107, -0.0749 0.2953 -0.103, -0.0718 0.2953 -0.103, -0.0721 0.2953 -0.1027, -0.0811 0.2953 -0.0859, -0.0811 0.2953 -0.0888, -0.0827 0.2953 -0.103, -0.0723 0.2953 -0.0864, -0.0733 0.2953 -0.0859, -0.0718 0.2953 -0.0717, -0.0709 0.2953 -0.088, -0.0714 0.2953 -0.0872, -0.0718 0.2953 -0.0869, -0.0817 0.2953 -0.0992, -0.0814 0.2953 -0.1002, -0.0808 0.2953 -0.101, -0.075 0.2953 -0.0853, -0.0771 0.2953 -0.0851, -0.0827 0.2953 -0.0717, -0.0792 0.2953 -0.0853, -0.0809 0.2953 -0.0952, -0.0815 0.2953 -0.096, -0.0818 0.2953 -0.0969, -0.0819 0.2953 -0.098, -0.0799 0.2953 -0.1017, -0.0792 0.2953 -0.1022, -0.0776 0.2953 -0.1028, -0.0768 0.2953 -0.0876, -0.0759 0.2953 -0.0876, -0.0735 0.2953 -0.0898, -0.0751 0.2953 -0.0878, -0.0744 0.2953 -0.0882, -0.0735 0.2953 -0.0902, -0.0736 0.2953 -0.0907, -0.0738 0.2953 -0.0911, -0.0741 0.2953 -0.0914, -0.0752 0.2953 -0.0921, -0.0787 0.2953 -0.0878, -0.077 0.2953 -0.0929, -0.0804 0.2953 -0.0884, -0.0782 0.2953 -0.0934, -0.0802 0.2953 -0.0945, -0.0739 0.2953 -0.0886, -0.0737 0.2953 -0.089, -0.0735 0.2953 -0.0894, -0.0734 0.2953 -0.1004, -0.0749 0.2953 -0.0951, -0.0731 0.2953 -0.0943, -0.0752 0.2953 -0.1006, -0.0754 0.2953 -0.1006, -0.0769 0.2953 -0.0959, -0.0769 0.2953 -0.1004, -0.0788 0.2953 -0.0983, -0.0788 0.2953 -0.0979, -0.0777 0.2953 -0.1002, -0.078 0.2953 -0.1, -0.0783 0.2953 -0.0997, -0.0786 0.2953 -0.0993, -0.0787 0.2953 -0.0989, -0.0786 0.2953 -0.0975, -0.0784 0.2953 -0.0971, -0.078 0.2953 -0.0967, -0.1183 0.2953 -0.0404, -0.121 0.2953 -0.0408, -0.1243 0.2953 -0.0409, -0.1117 0.2953 -0.0648, -0.1117 0.2953 -0.0648, -0.111 0.2953 -0.0648, -0.1183 0.2953 -0.0477, -0.1151 0.2953 -0.0648, -0.1151 0.2953 -0.0648, -0.111 0.2953 -0.0717, -0.1033 0.2953 -0.0788, -0.1183 0.2953 -0.0648, -0.1183 0.2953 -0.0583, -0.1174 0.2953 -0.0583, -0.1274 0.2953 -0.0583, -0.1298 0.2953 -0.0648, -0.1299 0.2953 -0.0649, -0.1333 0.2953 -0.065, -0.1332 0.2953 -0.0648, -0.1409 0.2953 -0.0648, -0.1409 0.2953 -0.0404, -0.0827 0.2953 -0.0404, -0.0827 0.2953 -0.0406, -0.0859 0.2953 -0.0406, -0.0827 0.2953 -0.051, -0.0851 0.2953 -0.051, -0.0858 0.2953 -0.0434, -0.0885 0.2953 -0.0404, -0.0885 0.2953 -0.0648, -0.0851 0.2953 -0.0538, -0.0827 0.2953 -0.0538, -0.0765 0.2953 -0.0537, -0.0827 0.2953 -0.0619, -0.0764 0.2953 -0.0618, -0.0827 0.2953 -0.0433, -0.0766 0.2953 -0.0433, -0.0765 0.2953 -0.051, -0.0733 0.2953 -0.0645, -0.0718 0.2953 -0.0648, -0.0827 0.2953 -0.0648, -0.0735 0.2953 -0.0405, -0.0718 0.2953 -0.0404, -0.0863 0.2953 -0.0619, -0.0862 0.2953 -0.0646, -0.0827 0.2953 -0.0646, -0.04 0.2953 -0.0616, -0.0496 0.2953 -0.0616, -0.0501 0.2953 -0.0648, -0.0495 0.2953 -0.0644, -0.0369 0.2953 -0.0643, -0.037 0.2953 -0.0404, -0.037 0.2953 -0.0402, -0.0501 0.2953 0.1024, -0.6299 0.2953 0.0, -0.6299 0.2953 0.1024, -0.3965 0.2953 0.0, -0.3965 0.2953 0.1024, -0.3701 0.2953 0.0, -0.1409 0.2953 0.1024, -0.363 0.2953 -0.0404, -0.3512 0.2953 -0.107, -0.3428 0.2953 -0.155, -0.3023 0.2953 -0.1968, -0.3411 0.2953 -0.1643, -0.3114 0.2953 -0.1958, -0.32 0.2953 -0.1927, -0.3276 0.2953 -0.1876, -0.3339 0.2953 -0.181, -0.3385 0.2953 -0.1731, 0.3411 0.2953 -0.1643, 0.3276 0.2953 -0.1876, 0.3339 0.2953 -0.181, 0.3385 0.2953 -0.1731, 0.32 0.2953 -0.1927, 0.3114 0.2953 -0.1958, -0.0687 0.2953 -0.0411, -0.0687 0.2953 -0.0443, -0.066 0.2953 -0.0432, -0.063 0.2953 -0.0428, -0.0675 0.2953 -0.061, -0.0685 0.2953 -0.0605, -0.0684 0.2953 -0.0441, -0.0675 0.2953 -0.0438, -0.0618 0.2953 -0.0429, -0.0598 0.2953 -0.0433, -0.0579 0.2953 -0.0442, -0.0543 0.2953 -0.0494, -0.0539 0.2953 -0.0526, -0.0623 0.2953 -0.0621, -0.0564 0.2953 -0.0454, -0.0563 0.2953 -0.0456, -0.0662 0.2953 -0.0616, -0.0634 0.2953 -0.0621, -0.0551 0.2953 -0.0473, -0.0539 0.2953 -0.0538, -0.0543 0.2953 -0.0561, -0.0551 0.2953 -0.058, -0.0562 0.2953 -0.0595, -0.0569 0.2953 -0.0602, -0.0602 0.2953 -0.0619, -0.0585 0.2953 -0.0613, -0.0515 0.2953 0.1024, -0.0599 0.2953 -0.0404, -0.0675 0.2953 0.1024, -0.063 0.2953 -0.04, -0.0661 0.2953 -0.0403, -0.0515 0.2953 -0.0404, -0.0524 0.2953 -0.0458, -0.0541 0.2953 -0.0435, -0.0547 0.2953 -0.0429, -0.057 0.2953 -0.0414, -0.0595 0.2953 -0.0404, -0.0512 0.2953 -0.0484, -0.0515 0.2953 -0.0478, -0.0515 0.2953 -0.0579, -0.0511 0.2953 -0.0567, -0.0506 0.2953 -0.0528, -0.0507 0.2953 -0.0516, -0.0515 0.2953 -0.0648, -0.0606 0.2953 -0.0648, -0.0604 0.2953 -0.0648, -0.0578 0.2953 -0.0642, -0.0555 0.2953 -0.0631, -0.0536 0.2953 -0.0615, -0.0534 0.2953 -0.0613, -0.052 0.2953 -0.0592, -0.0515 0.2953 -0.0717, -0.0619 0.2953 -0.0649, -0.0626 0.2953 -0.0648, -0.0685 0.2953 -0.0635, -0.0681 0.2953 -0.0637, -0.0675 0.2953 -0.0648, -0.0675 0.2953 -0.0639, -0.0655 0.2953 -0.0645, -0.0885 0.2953 -0.103, -0.0885 0.2953 -0.0985, -0.0835 0.2953 -0.0856, -0.0869 0.2953 -0.0856, -0.0901 0.2953 -0.1027, -0.09 0.2953 -0.103, -0.0888 0.2953 -0.1058, -0.0827 0.2953 -0.107, -0.0881 0.2953 -0.107, -0.0882 0.2953 -0.1069, -0.0885 0.2953 -0.1063, -0.0883 0.2953 -0.1102, -0.0871 0.2953 -0.1107, -0.0885 0.2953 -0.155, -0.0859 0.2953 -0.1108, -0.0827 0.2953 -0.155, -0.0865 0.2953 -0.1081, -0.0871 0.2953 -0.1079, -0.0857 0.2953 -0.1082, -0.0846 0.2953 -0.1081, -0.0876 0.2953 -0.1075, -0.084 0.2953 -0.1079, -0.084 0.2953 -0.1105, -0.0853 0.2953 -0.1108, -0.0912 0.2953 -0.107, -0.0907 0.2953 -0.108, -0.111 0.2953 -0.155, -0.0896 0.2953 -0.1093, -0.0894 0.2953 -0.1095, -0.0885 0.2953 -0.1101, -0.093 0.2953 -0.103, -0.0921 0.2953 -0.1054, -0.111 0.2953 -0.107, -0.1183 0.2953 -0.155, -0.111 0.2953 -0.1968, -0.0885 0.2953 -0.1968, -0.0827 0.2953 -0.1968, -0.0718 0.2953 -0.155, -0.0718 0.2953 -0.1968, -0.1183 0.2953 -0.107, -0.0515 0.2953 -0.155, -0.0675 0.2953 -0.107, -0.0515 0.2953 -0.107, -0.0515 0.2953 -0.103, -0.0484 0.2953 -0.0916, -0.0398 0.2953 -0.0916, -0.0397 0.2953 -0.0997, -0.0501 0.2953 -0.0717, -0.0495 0.2953 -0.0997, -0.0501 0.2953 -0.103, -0.0495 0.2953 -0.1025, -0.0366 0.2953 -0.1024, -0.0368 0.2953 -0.0784, -0.0501 0.2953 -0.107, -0.0501 0.2953 -0.155, -0.0501 0.2953 -0.1968, -0.0491 0.2953 -0.0784, -0.0491 0.2953 -0.0812, -0.0484 0.2953 -0.0889, -0.0398 0.2953 -0.0888, -0.0399 0.2953 -0.0811, -0.0537 0.2953 -0.0943, -0.0542 0.2953 -0.0895, -0.0531 0.2953 -0.0951, -0.0527 0.2953 -0.0962, -0.0529 0.2953 -0.1003, -0.0526 0.2953 -0.0993, -0.0632 0.2953 -0.0999, -0.0631 0.2953 -0.0999, -0.0624 0.2953 -0.101, -0.0547 0.2953 -0.0935, -0.056 0.2953 -0.0928, -0.0559 0.2953 -0.0883, -0.0582 0.2953 -0.0923, -0.0608 0.2953 -0.0875, -0.0598 0.2953 -0.0874, -0.0578 0.2953 -0.0877, -0.062 0.2953 -0.0852, -0.0632 0.2953 -0.0856, -0.0614 0.2953 -0.1019, -0.0607 0.2953 -0.1023, -0.0549 0.2953 -0.1023, -0.0539 0.2953 -0.1016, -0.0536 0.2953 -0.1012, -0.0642 0.2953 -0.0862, -0.065 0.2953 -0.087, -0.0656 0.2953 -0.088, -0.0542 0.2953 -0.0865, -0.0548 0.2953 -0.0862, -0.0571 0.2953 -0.0853, -0.0601 0.2953 -0.085, -0.0662 0.2953 -0.1026, -0.0663 0.2953 -0.0915, -0.0661 0.2953 -0.0894, -0.0633 0.2953 -0.0917, -0.0632 0.2953 -0.0903, -0.0629 0.2953 -0.0893, -0.0625 0.2953 -0.0886, -0.056 0.2953 -0.1027, -0.0524 0.2953 -0.0979, -0.0525 0.2953 -0.0974, -0.0621 0.2953 -0.0881, -0.0615 0.2953 -0.0878, -0.1206 0.2953 -0.103, -0.1395 0.2953 -0.0951, -0.1383 0.2953 -0.0976, -0.1365 0.2953 -0.0997, -0.139 0.2953 -0.0852, -0.1399 0.2953 -0.0875, -0.1402 0.2953 -0.0908, -0.1401 0.2953 -0.0923, -0.134 0.2953 -0.1015, -0.1313 0.2953 -0.1026, -0.1272 0.2953 -0.103, -0.1208 0.2953 -0.079, -0.1276 0.2953 -0.079, -0.1313 0.2953 -0.0794, -0.1342 0.2953 -0.0805, -0.1367 0.2953 -0.0822, -0.1375 0.2953 -0.0831, -0.1103 0.2953 -0.054, -0.1097 0.2953 -0.0568, -0.1092 0.2953 -0.0469, -0.1085 0.2953 -0.0593, -0.1067 0.2953 -0.0614, -0.1042 0.2953 -0.0632, -0.0978 0.2953 -0.0407, -0.1015 0.2953 -0.0411, -0.1044 0.2953 -0.0422, -0.1015 0.2953 -0.0642, -0.0974 0.2953 -0.0647, -0.0908 0.2953 -0.0647, -0.0909 0.2953 -0.0406, -0.1069 0.2953 -0.0439, -0.1077 0.2953 -0.0448, -0.1631 0.2953 -0.1033, -0.163 0.2953 -0.103, -0.3519 0.2953 -0.103, -0.3574 0.2953 -0.0717, -0.3587 0.2953 -0.0648, -0.1183 0.2953 0.1024, -0.111 0.2953 0.1024, -0.0885 0.2953 0.1024, -0.0827 0.2953 0.1024, -0.0718 0.2953 0.1024, 0.626 0.118 0.1024, 0.6299 0.1181 0.1024, 0.626 0.2756 0.1024, 0.6299 -0.2953 0.1024, 0.6299 -0.1181 0.1024, 0.626 -0.2756 0.1024, 0.626 -0.1181 0.1024, -0.6299 0.1181 0.1024, -0.626 0.118 0.1024, -0.626 0.2756 0.1024, -0.626 -0.1181 0.1024, -0.6299 -0.1181 0.1024, -0.626 -0.2756 0.1024, -0.6299 -0.2953 0.1024, -0.3701 -0.2756 0.1024, 0.3701 -0.2756 0.1024, -0.3701 0.2756 0.1024, 0.3701 0.2756 0.1024, 0.0744 0.1587 0.1024, -0.1508 -0.0 0.1024, 0.0744 -0.1587 0.1024, -0.626 0.118 0.0, -0.6299 0.1181 0.0, -0.626 0.2322 0.0, -0.4053 0.059 0.0, -0.4177 0.0945 0.0, -0.4276 0.1293 0.0, -0.4358 0.1275 0.0, -0.451 0.1602 0.0, -0.4589 0.1572 0.0, -0.4791 0.1869 0.0, -0.4865 0.1827 0.0, -0.5111 0.2087 0.0, -0.5179 0.2035 0.0, -0.5463 0.2251 0.0, -0.5522 0.2189 0.0, -0.5835 0.2356 0.0, -0.5886 0.2286 0.0, -0.622 0.24 0.0, -0.622 0.2874 0.0, -0.4276 0.2874 0.0, -0.3701 0.059 0.0, -0.4358 -0.1276 0.0, -0.4177 -0.0946 0.0, -0.4276 -0.1294 0.0, -0.4053 -0.0591 0.0, -0.3701 -0.0591 0.0, -0.4276 -0.2874 0.0, -0.6299 -0.2953 0.0, -0.6299 -0.1181 0.0, -0.626 -0.2323 0.0, -0.626 -0.1181 0.0, -0.3701 -0.2953 0.0, -0.622 -0.2874 0.0, -0.4589 -0.1572 0.0, -0.451 -0.1602 0.0, -0.4865 -0.1828 0.0, -0.4791 -0.1869 0.0, -0.5179 -0.2035 0.0, -0.5111 -0.2087 0.0, -0.5522 -0.2189 0.0, -0.5463 -0.2251 0.0, -0.5886 -0.2286 0.0, -0.5835 -0.2357 0.0, -0.622 -0.24 0.0, 0.6299 0.1181 0.0, 0.626 0.118 0.0, 0.626 0.2322 0.0, 0.4053 0.059 0.0, 0.3701 0.059 0.0, 0.4177 0.0945 0.0, 0.4358 0.1275 0.0, 0.5886 0.2286 0.0, 0.5522 0.2189 0.0, 0.5179 0.2035 0.0, 0.4865 0.1827 0.0, 0.4589 0.1572 0.0, 0.626 -0.1181 0.0, 0.6299 -0.1181 0.0, 0.626 -0.2323 0.0, 0.6299 -0.2953 0.0, 0.3701 -0.0591 0.0, 0.4053 -0.0591 0.0, 0.3701 -0.2953 0.0, 0.4177 -0.0946 0.0, 0.4358 -0.1276 0.0, 0.4589 -0.1572 0.0, 0.4865 -0.1828 0.0, 0.5179 -0.2035 0.0, 0.5522 -0.2189 0.0, 0.5886 -0.2286 0.0, -0.3411 -0.2953 -0.1643, 0.3023 -0.2953 -0.1968, -0.3023 -0.2953 -0.1968, -0.3385 -0.2953 -0.1731, -0.3339 -0.2953 -0.181, -0.3276 -0.2953 -0.1876, -0.3114 -0.2953 -0.1958, -0.32 -0.2953 -0.1927, 0.3114 -0.2953 -0.1958, 0.3385 -0.2953 -0.1731, 0.3411 -0.2953 -0.1643, 0.32 -0.2953 -0.1927, 0.3276 -0.2953 -0.1876, 0.3339 -0.2953 -0.181
            ]
        }
        coordIndex [
            0,1,2,-1,3,4,5,-1,6,7,8,-1,9,10,11,-1,12,13,14,-1,15,16,17,-1,18,19,20,-1,21,22,23,-1,24,25,26,-1,26,25,27,-1,28,29,26,-1,26,29,30,-1,26,30,31,-1,31,32,26,-1,26,32,33,-1,26,33,24,-1,34,35,36,-1,36,35,37,-1,38,39,34,-1,34,39,40,-1,34,40,28,-1,41,42,36,-1,36,42,43,-1,36,43,34,-1,34,43,44,-1,34,44,38,-1,45,46,41,-1,41,46,47,-1,41,47,48,-1,41,49,42,-1,42,49,50,-1,42,50,51,-1,51,50,52,-1,51,52,53,-1,48,54,41,-1,41,54,55,-1,41,55,49,-1,56,57,58,-1,56,58,59,-1,57,60,58,-1,58,60,61,-1,58,61,62,-1,62,61,63,-1,63,64,62,-1,62,64,65,-1,62,65,45,-1,45,65,66,-1,45,66,46,-1,67,59,68,-1,68,59,58,-1,68,58,69,-1,69,58,70,-1,71,72,70,-1,70,72,73,-1,70,73,69,-1,74,75,71,-1,71,75,76,-1,71,76,72,-1,77,78,17,-1,17,78,79,-1,17,79,74,-1,23,22,80,-1,22,81,80,-1,80,81,82,-1,80,82,17,-1,17,82,83,-1,17,83,77,-1,84,85,86,-1,87,88,89,-1,90,91,92,-1,92,91,93,-1,87,89,94,-1,95,96,91,-1,91,96,97,-1,91,97,98,-1,99,100,23,-1,23,100,101,-1,23,101,102,-1,88,103,89,-1,89,103,104,-1,89,104,105,-1,86,85,23,-1,23,85,106,-1,23,106,99,-1,107,108,109,-1,109,108,110,-1,109,110,111,-1,112,98,113,-1,113,98,114,-1,113,114,109,-1,109,114,115,-1,109,115,107,-1,112,116,98,-1,98,116,117,-1,98,117,91,-1,91,117,118,-1,91,118,93,-1,119,120,89,-1,89,120,121,-1,89,121,91,-1,91,121,122,-1,91,122,95,-1,123,124,125,-1,125,124,126,-1,125,126,89,-1,89,126,127,-1,89,127,94,-1,128,129,21,-1,21,129,130,-1,130,131,21,-1,21,131,132,-1,21,132,133,-1,133,132,123,-1,133,123,134,-1,134,123,125,-1,105,135,89,-1,89,135,136,-1,89,136,137,-1,102,138,23,-1,23,138,139,-1,23,139,21,-1,21,139,140,-1,21,140,128,-1,137,141,89,-1,89,141,142,-1,89,142,119,-1,143,144,145,-1,145,98,143,-1,143,98,97,-1,143,97,146,-1,146,97,147,-1,147,148,146,-1,146,148,149,-1,146,149,150,-1,151,152,153,-1,152,154,153,-1,153,154,155,-1,153,155,156,-1,157,153,158,-1,144,143,157,-1,157,143,159,-1,157,159,153,-1,153,159,160,-1,153,160,151,-1,158,161,157,-1,157,161,162,-1,157,162,163,-1,156,155,164,-1,164,155,165,-1,164,165,166,-1,166,165,167,-1,166,167,168,-1,169,170,163,-1,163,170,171,-1,163,171,157,-1,25,172,27,-1,27,172,173,-1,27,173,86,-1,86,173,174,-1,86,174,84,-1,175,176,177,-1,176,175,178,-1,178,175,179,-1,178,179,180,-1,180,179,181,-1,180,181,182,-1,183,184,185,-1,185,184,186,-1,185,186,187,-1,188,189,190,-1,190,189,191,-1,192,193,194,-1,195,196,197,-1,197,196,198,-1,191,199,200,-1,200,199,201,-1,200,201,202,-1,203,204,205,-1,195,197,193,-1,193,197,206,-1,193,206,194,-1,194,206,207,-1,194,207,208,-1,208,207,209,-1,208,209,210,-1,211,212,213,-1,213,212,214,-1,213,214,215,-1,215,214,203,-1,215,203,216,-1,216,203,205,-1,217,218,219,-1,219,218,220,-1,219,220,221,-1,222,223,224,-1,225,226,220,-1,226,227,220,-1,220,227,228,-1,220,228,221,-1,221,228,229,-1,222,224,220,-1,220,224,230,-1,220,230,225,-1,231,232,233,-1,233,232,234,-1,233,234,235,-1,235,234,236,-1,235,236,217,-1,237,238,239,-1,240,241,242,-1,229,243,221,-1,221,243,244,-1,221,244,242,-1,242,244,245,-1,242,245,240,-1,246,247,239,-1,239,247,248,-1,241,249,242,-1,242,249,250,-1,242,250,251,-1,251,250,252,-1,251,252,237,-1,253,254,238,-1,238,254,255,-1,238,255,239,-1,239,255,256,-1,239,256,246,-1,248,257,239,-1,239,257,258,-1,239,258,259,-1,260,261,262,-1,262,261,263,-1,262,263,264,-1,262,265,260,-1,260,265,266,-1,260,266,267,-1,267,268,260,-1,260,268,269,-1,260,269,270,-1,270,269,271,-1,270,271,272,-1,272,271,273,-1,272,273,238,-1,238,273,274,-1,238,274,253,-1,275,276,264,-1,264,276,277,-1,264,277,262,-1,278,279,223,-1,223,279,280,-1,223,280,224,-1,278,281,279,-1,279,281,282,-1,279,282,283,-1,283,282,284,-1,283,285,286,-1,284,287,283,-1,283,287,288,-1,283,288,289,-1,289,290,283,-1,283,290,291,-1,283,291,285,-1,286,292,283,-1,283,292,293,-1,283,293,294,-1,295,296,297,-1,298,299,300,-1,300,299,301,-1,302,303,190,-1,190,303,304,-1,190,304,188,-1,188,304,305,-1,190,306,302,-1,302,306,307,-1,302,307,308,-1,309,307,310,-1,310,307,306,-1,310,306,311,-1,311,306,190,-1,311,190,312,-1,312,190,175,-1,312,175,313,-1,313,175,314,-1,313,314,297,-1,297,314,315,-1,297,315,295,-1,316,317,318,-1,319,320,321,-1,316,318,322,-1,322,318,321,-1,322,321,323,-1,323,321,320,-1,323,320,324,-1,325,326,327,-1,327,326,328,-1,321,329,319,-1,319,329,330,-1,319,330,331,-1,332,333,334,-1,317,316,335,-1,335,316,336,-1,335,336,332,-1,325,327,324,-1,324,327,337,-1,324,337,323,-1,323,337,338,-1,323,338,334,-1,334,338,339,-1,334,339,332,-1,19,340,20,-1,20,340,341,-1,20,341,342,-1,342,341,343,-1,342,343,344,-1,26,345,346,-1,28,26,34,-1,34,26,346,-1,34,346,347,-1,348,349,350,-1,350,349,351,-1,350,351,352,-1,352,351,353,-1,352,353,354,-1,181,8,355,-1,355,8,356,-1,8,7,356,-1,356,7,357,-1,356,357,358,-1,358,357,359,-1,358,359,360,-1,361,362,360,-1,360,362,363,-1,360,363,358,-1,74,71,17,-1,17,71,364,-1,17,364,15,-1,365,364,366,-1,366,364,367,-1,365,368,364,-1,364,368,369,-1,364,369,15,-1,13,12,336,-1,336,12,370,-1,336,370,371,-1,372,373,374,-1,332,336,333,-1,333,336,371,-1,333,371,375,-1,375,371,376,-1,375,376,374,-1,374,376,377,-1,374,377,372,-1,373,378,374,-1,374,378,379,-1,374,379,380,-1,381,382,383,-1,380,384,374,-1,374,384,385,-1,374,385,386,-1,386,385,387,-1,387,385,383,-1,383,385,388,-1,383,388,381,-1,382,389,383,-1,383,389,390,-1,383,390,391,-1,391,392,383,-1,383,392,393,-1,383,393,394,-1,394,393,395,-1,396,397,398,-1,398,397,399,-1,398,399,400,-1,401,402,403,-1,403,404,401,-1,401,404,405,-1,401,405,406,-1,20,407,401,-1,401,407,408,-1,401,408,402,-1,409,410,342,-1,342,410,411,-1,342,411,20,-1,20,411,412,-1,20,412,407,-1,413,414,415,-1,415,416,413,-1,413,416,417,-1,413,417,418,-1,418,419,413,-1,413,419,420,-1,413,420,409,-1,413,421,414,-1,414,421,221,-1,414,221,422,-1,422,221,423,-1,375,424,333,-1,333,424,425,-1,333,425,426,-1,426,425,427,-1,426,427,428,-1,429,430,239,-1,239,430,431,-1,237,239,251,-1,251,239,431,-1,251,431,212,-1,212,431,432,-1,212,432,214,-1,433,430,434,-1,434,430,429,-1,434,429,435,-1,436,437,239,-1,239,437,438,-1,239,438,429,-1,429,438,439,-1,429,439,435,-1,440,441,442,-1,442,441,443,-1,442,443,444,-1,445,446,447,-1,447,446,448,-1,446,449,448,-1,448,449,437,-1,448,437,450,-1,450,437,436,-1,450,436,451,-1,451,436,444,-1,451,444,452,-1,452,444,443,-1,453,454,455,-1,454,456,455,-1,455,456,457,-1,455,457,442,-1,442,457,458,-1,442,458,440,-1,459,460,461,-1,6,462,463,-1,463,462,455,-1,463,455,464,-1,464,455,442,-1,464,442,465,-1,465,442,444,-1,259,231,239,-1,239,231,233,-1,239,233,436,-1,436,233,466,-1,436,466,444,-1,444,466,467,-1,444,467,465,-1,462,468,455,-1,455,468,461,-1,455,461,453,-1,453,461,460,-1,9,11,469,-1,469,11,470,-1,469,470,471,-1,471,470,219,-1,471,219,472,-1,217,219,235,-1,235,219,470,-1,235,470,233,-1,233,470,11,-1,233,11,466,-1,466,11,10,-1,466,10,467,-1,468,194,461,-1,461,194,208,-1,461,208,459,-1,459,208,210,-1,459,210,211,-1,211,210,305,-1,211,305,212,-1,212,305,304,-1,473,474,475,-1,476,477,478,-1,478,477,479,-1,478,479,480,-1,481,86,480,-1,480,86,23,-1,480,23,478,-1,478,23,80,-1,478,80,482,-1,482,80,17,-1,482,17,483,-1,483,17,16,-1,483,16,484,-1,476,485,486,-1,475,477,473,-1,473,477,476,-1,473,476,487,-1,487,476,486,-1,487,486,488,-1,488,486,489,-1,490,491,492,-1,492,491,493,-1,472,494,495,-1,496,497,5,-1,5,497,498,-1,490,499,491,-1,491,499,500,-1,491,500,501,-1,501,500,502,-1,503,504,502,-1,502,504,505,-1,502,505,501,-1,506,507,221,-1,498,508,5,-1,5,508,509,-1,5,509,3,-1,510,511,472,-1,472,511,512,-1,472,512,494,-1,507,513,221,-1,221,513,514,-1,221,514,515,-1,516,517,421,-1,421,517,518,-1,421,518,221,-1,221,518,519,-1,221,519,506,-1,520,219,521,-1,521,219,221,-1,521,221,522,-1,522,221,515,-1,523,524,502,-1,502,524,525,-1,502,525,526,-1,520,5,219,-1,219,5,4,-1,219,4,472,-1,472,4,527,-1,472,527,510,-1,495,528,472,-1,472,528,529,-1,472,529,421,-1,421,529,493,-1,421,493,516,-1,516,493,491,-1,526,530,502,-1,502,530,531,-1,502,531,503,-1,200,192,191,-1,191,192,194,-1,191,194,190,-1,190,194,532,-1,533,534,179,-1,179,534,535,-1,536,537,175,-1,175,537,538,-1,175,538,179,-1,179,538,539,-1,179,539,533,-1,535,540,179,-1,179,540,541,-1,179,541,542,-1,6,8,462,-1,462,8,181,-1,462,181,468,-1,468,181,179,-1,468,179,194,-1,194,179,542,-1,194,542,532,-1,532,543,190,-1,190,543,544,-1,190,544,175,-1,175,544,545,-1,175,545,546,-1,546,547,175,-1,175,547,548,-1,175,548,536,-1,345,26,344,-1,344,26,27,-1,344,27,342,-1,342,27,86,-1,342,86,476,-1,476,86,481,-1,476,481,485,-1,409,342,413,-1,413,342,476,-1,413,476,421,-1,421,476,478,-1,421,478,472,-1,472,478,482,-1,472,482,471,-1,471,482,483,-1,471,483,469,-1,469,483,484,-1,469,484,9,-1,303,298,304,-1,304,298,300,-1,304,300,212,-1,212,300,323,-1,212,323,251,-1,251,323,334,-1,251,334,242,-1,242,334,333,-1,242,333,221,-1,221,333,426,-1,221,426,423,-1,423,426,428,-1,549,550,300,-1,0,2,551,-1,296,295,301,-1,301,295,2,-1,301,2,300,-1,300,2,1,-1,300,1,549,-1,550,552,300,-1,300,552,553,-1,300,553,554,-1,322,555,2,-1,2,555,556,-1,2,556,557,-1,554,558,300,-1,300,558,559,-1,300,559,323,-1,323,559,560,-1,323,560,322,-1,322,560,561,-1,322,561,555,-1,557,562,2,-1,2,562,563,-1,2,563,551,-1,406,397,401,-1,401,397,396,-1,401,396,20,-1,20,396,347,-1,20,347,18,-1,18,347,346,-1,185,182,183,-1,183,182,181,-1,183,181,564,-1,564,181,355,-1,564,355,565,-1,565,355,566,-1,565,566,177,-1,177,566,567,-1,177,567,175,-1,175,567,568,-1,175,568,314,-1,314,568,354,-1,314,354,315,-1,315,354,353,-1,315,353,295,-1,295,353,569,-1,295,569,2,-1,2,569,570,-1,2,570,322,-1,322,570,571,-1,322,571,316,-1,316,571,572,-1,316,572,336,-1,336,572,573,-1,336,573,13,-1,13,573,398,-1,13,398,14,-1,14,398,400,-1,574,575,576,-1,576,575,35,-1,577,578,579,-1,579,578,580,-1,581,582,583,-1,584,585,586,-1,586,585,587,-1,586,587,588,-1,588,587,577,-1,588,577,589,-1,589,577,579,-1,581,583,349,-1,349,583,590,-1,349,590,35,-1,35,590,591,-1,35,591,576,-1,589,591,592,-1,592,591,590,-1,592,590,593,-1,593,590,588,-1,593,588,594,-1,594,588,589,-1,594,589,592,-1,595,596,597,-1,597,596,348,-1,598,599,600,-1,600,599,601,-1,600,601,602,-1,602,601,603,-1,602,603,604,-1,604,603,605,-1,604,605,606,-1,606,605,607,-1,606,607,608,-1,608,607,609,-1,608,609,610,-1,610,609,611,-1,610,611,612,-1,612,611,597,-1,612,597,613,-1,613,597,348,-1,613,348,614,-1,614,348,352,-1,614,352,600,-1,600,352,615,-1,600,615,598,-1,616,617,618,-1,617,619,618,-1,618,619,620,-1,618,620,621,-1,622,623,624,-1,624,623,625,-1,620,626,621,-1,621,626,622,-1,621,622,627,-1,627,622,624,-1,616,618,628,-1,628,618,629,-1,628,629,630,-1,630,629,631,-1,630,631,632,-1,632,631,633,-1,632,633,634,-1,634,633,635,-1,634,635,636,-1,636,635,637,-1,636,637,624,-1,624,637,638,-1,624,638,627,-1,639,640,641,-1,642,643,644,-1,644,643,36,-1,644,36,645,-1,639,641,37,-1,37,641,646,-1,37,646,36,-1,36,646,647,-1,36,647,648,-1,648,649,36,-1,36,649,650,-1,36,650,645,-1,651,652,653,-1,653,652,654,-1,655,656,657,-1,657,656,658,-1,658,659,657,-1,657,659,660,-1,657,660,661,-1,661,662,657,-1,657,662,663,-1,657,663,654,-1,654,663,664,-1,654,664,653,-1,639,575,640,-1,640,575,574,-1,651,580,652,-1,652,580,578,-1,595,582,596,-1,596,582,581,-1,623,585,625,-1,625,585,584,-1,578,577,652,-1,652,577,654,-1,581,349,596,-1,596,349,348,-1,639,37,575,-1,575,37,35,-1,623,622,585,-1,585,622,587,-1,654,577,657,-1,657,577,587,-1,665,657,626,-1,626,657,587,-1,626,587,622,-1,666,657,667,-1,667,657,665,-1,667,665,668,-1,668,669,667,-1,667,669,670,-1,667,670,671,-1,671,670,672,-1,673,674,666,-1,666,674,675,-1,666,675,657,-1,673,676,674,-1,674,676,677,-1,674,677,678,-1,
        ]
    }
}
Shape{
    appearance Appearance {
        material  Material 	{
            diffuseColor 0.6470588235294118 0.6196078431372549 0.5882352941176471
            specularColor 0.45098039215686275 0.43529411764705883 0.4117647058823529
            ambientIntensity 0.6242
            transparency 0.0
            shininess 0.5
        }
    }
    geometry IndexedFaceSet {
        ccw TRUE
        solid FALSE
        coord DEF co Coordinate {
            point [
                -0.626 0.2322 0.0, -0.626 0.2322 -0.0039, -0.626 0.118 0.0, -0.626 0.1141 -0.0039, -0.626 0.118 0.1024, -0.626 0.1141 0.1063, -0.626 0.2756 0.1024, -0.626 0.2756 0.1063, -0.5994 0.11 0.1063, -0.5994 0.11 -0.0039, -0.5745 0.0998 0.1063, -0.5745 0.0998 -0.0039, -0.5526 0.084 0.1063, -0.5526 0.084 -0.0039, -0.5351 0.0636 0.1063, -0.5351 0.0636 -0.0039, -0.5228 0.0396 0.1063, -0.5228 0.0396 -0.0039, -0.5165 0.0134 0.1063, -0.5165 0.0134 -0.0039, -0.5165 -0.0135 0.1063, -0.5165 -0.0135 -0.0039, -0.5228 -0.0397 0.1063, -0.5228 -0.0397 -0.0039, -0.5351 -0.0636 0.1063, -0.5351 -0.0636 -0.0039, -0.5526 -0.0841 0.1063, -0.5526 -0.0841 -0.0039, -0.5745 -0.0998 0.1063, -0.5745 -0.0998 -0.0039, -0.5994 -0.11 0.1063, -0.5994 -0.11 -0.0039, -0.626 -0.1141 0.1063, -0.626 -0.1141 -0.0039, -0.626 -0.2756 0.1024, -0.626 -0.2756 0.1063, -0.626 -0.1181 0.1024, -0.626 -0.1181 0.0, -0.626 -0.2323 0.0, -0.626 -0.2323 -0.0039, -0.3701 -0.2756 0.1063, -0.3701 -0.2756 0.1024, -0.3701 0.2756 0.1063, -0.3701 0.2756 0.1024, -0.4053 -0.0591 -0.0039, -0.4589 0.1572 -0.0039, -0.4358 0.1275 -0.0039, -0.5522 0.2189 -0.0039, -0.5886 0.2286 -0.0039, -0.3694 0.059 -0.0039, -0.3694 -0.0591 -0.0039, -0.4053 0.059 -0.0039, -0.4177 0.0945 -0.0039, -0.4589 -0.1572 -0.0039, -0.4865 -0.1828 -0.0039, -0.5179 -0.2035 -0.0039, -0.5179 0.2035 -0.0039, -0.4865 0.1827 -0.0039, -0.5886 -0.2286 -0.0039, -0.5522 -0.2189 -0.0039, -0.4177 -0.0946 -0.0039, -0.4358 -0.1276 -0.0039, 0.626 -0.1141 0.1063, 0.626 -0.1141 -0.0039, 0.5994 -0.11 0.1063, 0.5994 -0.11 -0.0039, 0.5745 -0.0998 0.1063, 0.5745 -0.0998 -0.0039, 0.5526 -0.0841 0.1063, 0.5526 -0.0841 -0.0039, 0.5351 -0.0636 0.1063, 0.5351 -0.0636 -0.0039, 0.5228 -0.0397 0.1063, 0.5228 -0.0397 -0.0039, 0.5165 -0.0135 0.1063, 0.5165 -0.0135 -0.0039, 0.5165 0.0134 0.1063, 0.5165 0.0134 -0.0039, 0.5228 0.0396 0.1063, 0.5228 0.0396 -0.0039, 0.5351 0.0636 0.1063, 0.5351 0.0636 -0.0039, 0.5526 0.084 0.1063, 0.5526 0.084 -0.0039, 0.5745 0.0998 0.1063, 0.5745 0.0998 -0.0039, 0.5994 0.11 0.1063, 0.5994 0.11 -0.0039, 0.626 0.1141 0.1063, 0.626 0.1141 -0.0039, 0.626 0.2756 0.1024, 0.626 0.2756 0.1063, 0.626 0.118 0.1024, 0.626 0.118 0.0, 0.626 0.2322 0.0, 0.626 0.2322 -0.0039, 0.3701 0.2756 0.1063, 0.3701 0.2756 0.1024, 0.3701 -0.2756 0.1063, 0.3701 -0.2756 0.1024, 0.626 -0.2756 0.1063, 0.626 -0.2756 0.1024, 0.626 -0.2323 0.0, 0.626 -0.2323 -0.0039, 0.626 -0.1181 0.0, 0.626 -0.1181 0.1024, 0.5886 -0.2286 -0.0039, 0.3694 -0.0591 -0.0039, 0.3694 0.059 -0.0039, 0.4053 -0.0591 -0.0039, 0.4053 0.059 -0.0039, 0.4177 0.0945 -0.0039, 0.4358 0.1275 -0.0039, 0.5522 -0.2189 -0.0039, 0.5179 -0.2035 -0.0039, 0.4177 -0.0946 -0.0039, 0.4358 -0.1276 -0.0039, 0.4589 -0.1572 -0.0039, 0.4865 -0.1828 -0.0039, 0.4589 0.1572 -0.0039, 0.4865 0.1827 -0.0039, 0.5886 0.2286 -0.0039, 0.5179 0.2035 -0.0039, 0.5522 0.2189 -0.0039, 0.4053 -0.0591 0.0, 0.4177 -0.0946 0.0, 0.4358 -0.1276 0.0, 0.4589 -0.1572 0.0, 0.4865 -0.1828 0.0, 0.5179 -0.2035 0.0, 0.5522 -0.2189 0.0, 0.5886 -0.2286 0.0, 0.3701 -0.0591 0.0, 0.5886 0.2286 0.0, 0.5522 0.2189 0.0, 0.5179 0.2035 0.0, 0.4865 0.1827 0.0, 0.4589 0.1572 0.0, 0.4358 0.1275 0.0, 0.4177 0.0945 0.0, 0.4053 0.059 0.0, 0.3701 0.059 0.0, -0.4053 0.059 0.0, -0.4177 0.0945 0.0, -0.4358 0.1275 0.0, -0.4589 0.1572 0.0, -0.4865 0.1827 0.0, -0.5179 0.2035 0.0, -0.5522 0.2189 0.0, -0.5886 0.2286 0.0, -0.3701 0.059 0.0, -0.3701 -0.0591 0.0, -0.4053 -0.0591 0.0, -0.5886 -0.2286 0.0, -0.5522 -0.2189 0.0, -0.5179 -0.2035 0.0, -0.4865 -0.1828 0.0, -0.4589 -0.1572 0.0, -0.4358 -0.1276 0.0, -0.4177 -0.0946 0.0
            ]
        }
        coordIndex [
            0,1,2,-1,2,1,3,-1,2,3,4,-1,4,3,5,-1,4,5,6,-1,6,5,7,-1,5,3,8,-1,8,3,9,-1,8,9,10,-1,10,9,11,-1,10,11,12,-1,12,11,13,-1,12,13,14,-1,14,13,15,-1,14,15,16,-1,16,15,17,-1,16,17,18,-1,18,17,19,-1,18,19,20,-1,20,19,21,-1,20,21,22,-1,22,21,23,-1,22,23,24,-1,24,23,25,-1,24,25,26,-1,26,25,27,-1,26,27,28,-1,28,27,29,-1,28,29,30,-1,30,29,31,-1,30,31,32,-1,32,31,33,-1,34,35,36,-1,36,35,32,-1,36,32,37,-1,37,32,33,-1,37,33,38,-1,38,33,39,-1,40,35,41,-1,41,35,34,-1,42,40,43,-1,43,40,41,-1,7,42,6,-1,6,42,43,-1,22,24,40,-1,7,5,8,-1,24,26,40,-1,40,26,28,-1,40,28,35,-1,35,28,30,-1,35,30,32,-1,7,8,42,-1,8,10,42,-1,42,10,12,-1,42,12,14,-1,14,16,42,-1,42,16,18,-1,42,18,40,-1,40,18,20,-1,40,20,22,-1,44,45,46,-1,47,44,48,-1,48,44,1,-1,49,50,51,-1,51,50,44,-1,51,44,52,-1,52,44,46,-1,25,53,27,-1,27,53,54,-1,27,54,29,-1,29,54,55,-1,29,55,31,-1,44,21,19,-1,3,1,9,-1,9,1,11,-1,47,56,44,-1,44,56,57,-1,44,57,45,-1,39,33,58,-1,58,33,31,-1,58,31,59,-1,59,31,55,-1,21,44,23,-1,23,44,60,-1,23,60,25,-1,25,60,61,-1,25,61,53,-1,19,17,44,-1,44,17,15,-1,44,15,1,-1,1,15,13,-1,1,13,11,-1,62,63,64,-1,64,63,65,-1,64,65,66,-1,66,65,67,-1,66,67,68,-1,68,67,69,-1,68,69,70,-1,70,69,71,-1,70,71,72,-1,72,71,73,-1,72,73,74,-1,74,73,75,-1,74,75,76,-1,76,75,77,-1,76,77,78,-1,78,77,79,-1,78,79,80,-1,80,79,81,-1,80,81,82,-1,82,81,83,-1,82,83,84,-1,84,83,85,-1,84,85,86,-1,86,85,87,-1,86,87,88,-1,88,87,89,-1,90,91,92,-1,92,91,88,-1,92,88,93,-1,93,88,89,-1,93,89,94,-1,94,89,95,-1,96,91,97,-1,97,91,90,-1,98,96,99,-1,99,96,97,-1,100,98,101,-1,101,98,99,-1,102,103,104,-1,104,103,63,-1,104,63,105,-1,105,63,62,-1,105,62,101,-1,101,62,100,-1,100,62,64,-1,100,64,98,-1,64,66,98,-1,98,66,68,-1,98,68,70,-1,78,80,96,-1,70,72,98,-1,98,72,74,-1,98,74,96,-1,96,74,76,-1,96,76,78,-1,80,82,96,-1,96,82,84,-1,96,84,91,-1,91,84,86,-1,91,86,88,-1,63,103,106,-1,107,108,109,-1,109,108,110,-1,109,110,95,-1,95,110,111,-1,95,111,112,-1,63,106,65,-1,65,106,113,-1,65,113,67,-1,67,113,114,-1,67,114,69,-1,85,95,87,-1,87,95,89,-1,85,83,95,-1,95,83,81,-1,95,81,109,-1,109,81,79,-1,79,77,109,-1,109,77,75,-1,109,75,115,-1,115,75,73,-1,115,73,116,-1,116,73,71,-1,116,71,117,-1,117,71,69,-1,117,69,118,-1,118,69,114,-1,112,119,95,-1,95,119,120,-1,95,120,121,-1,121,120,122,-1,121,122,123,-1,124,109,115,-1,124,115,125,-1,125,115,116,-1,125,116,126,-1,126,116,117,-1,126,117,127,-1,127,117,118,-1,127,118,128,-1,128,118,114,-1,128,114,129,-1,129,114,113,-1,129,113,130,-1,130,113,106,-1,130,106,131,-1,131,106,103,-1,131,103,102,-1,124,132,109,-1,109,132,107,-1,94,95,121,-1,94,121,133,-1,133,121,123,-1,133,123,134,-1,134,123,122,-1,134,122,135,-1,135,122,120,-1,135,120,136,-1,136,120,119,-1,136,119,137,-1,137,119,112,-1,137,112,138,-1,138,112,111,-1,138,111,139,-1,139,111,110,-1,139,110,140,-1,141,140,108,-1,108,140,110,-1,142,51,52,-1,142,52,143,-1,143,52,46,-1,143,46,144,-1,144,46,45,-1,144,45,145,-1,145,45,57,-1,145,57,146,-1,146,57,56,-1,146,56,147,-1,147,56,47,-1,147,47,148,-1,148,47,48,-1,148,48,149,-1,149,48,1,-1,149,1,0,-1,142,150,51,-1,51,150,49,-1,151,152,50,-1,50,152,44,-1,38,39,58,-1,38,58,153,-1,153,58,59,-1,153,59,154,-1,154,59,55,-1,154,55,155,-1,155,55,54,-1,155,54,156,-1,156,54,53,-1,156,53,157,-1,157,53,61,-1,157,61,158,-1,158,61,60,-1,158,60,159,-1,159,60,44,-1,159,44,152,-1,
        ]
    }
}
Shape{
    appearance Appearance {
        material  Material 	{
            diffuseColor 1.0 1.0 1.0
            specularColor 0.5019607843137255 0.5019607843137255 0.5019607843137255
            ambientIntensity 1.0
            transparency 0.0
            shininess 0.5
        }
    }
    geometry IndexedFaceSet {
        ccw TRUE
        solid FALSE
        coord DEF co Coordinate {
            point [
                0.3023 -0.2953 -0.1968, -0.3023 -0.2953 -0.1968, 0.3023 0.2953 -0.1968, -0.3023 0.2953 -0.1968, 0.3701 -0.0591 0.0, 0.3701 -0.2953 0.0, 0.3694 -0.0591 -0.0039, 0.3411 -0.2953 -0.1643, 0.3694 0.059 -0.0039, 0.3411 0.2953 -0.1643, 0.3701 0.059 0.0, 0.3701 0.2953 0.0, -0.3701 0.059 0.0, -0.3701 0.2953 0.0, -0.3694 0.059 -0.0039, -0.3411 0.2953 -0.1643, -0.3694 -0.0591 -0.0039, -0.3411 -0.2953 -0.1643, -0.3701 -0.0591 0.0, -0.3701 -0.2953 0.0, 0.3385 -0.2953 -0.1731, 0.3385 0.2953 -0.1731, 0.3339 -0.2953 -0.181, 0.3339 0.2953 -0.181, 0.3276 -0.2953 -0.1876, 0.3276 0.2953 -0.1876, 0.32 -0.2953 -0.1927, 0.32 0.2953 -0.1927, 0.3114 -0.2953 -0.1958, 0.3114 0.2953 -0.1958, -0.3385 0.2953 -0.1731, -0.3385 -0.2953 -0.1731, -0.3339 0.2953 -0.181, -0.3339 -0.2953 -0.181, -0.3276 0.2953 -0.1876, -0.3276 -0.2953 -0.1876, -0.32 0.2953 -0.1927, -0.32 -0.2953 -0.1927, -0.3114 0.2953 -0.1958, -0.3114 -0.2953 -0.1958
            ]
        }
        coordIndex [
            0,1,2,-1,2,1,3,-1,4,5,6,-1,6,5,7,-1,6,7,8,-1,8,7,9,-1,8,9,10,-1,10,9,11,-1,12,13,14,-1,14,13,15,-1,14,15,16,-1,16,15,17,-1,16,17,18,-1,18,17,19,-1,9,7,20,-1,9,20,21,-1,21,20,22,-1,21,22,23,-1,23,22,24,-1,23,24,25,-1,25,24,26,-1,25,26,27,-1,27,26,28,-1,27,28,29,-1,29,28,0,-1,29,0,2,-1,17,15,30,-1,17,30,31,-1,31,30,32,-1,31,32,33,-1,33,32,34,-1,33,34,35,-1,35,34,36,-1,35,36,37,-1,37,36,38,-1,37,38,39,-1,39,38,3,-1,39,3,1,-1,
        ]
    }
}
Shape{
    appearance Appearance {
        material  Material 	{
            diffuseColor 0.0 0.9686274509803922 0.6196078431372549
            specularColor 0.0 0.48627450980392156 0.30980392156862746
            ambientIntensity 0.6392
            transparency 0.0
            shininess 0.5
        }
    }
    geometry IndexedFaceSet {
        ccw TRUE
        solid FALSE
        coord DEF co Coordinate {
            point [
                -0.622 -0.24 -0.0004, -0.622 -0.24 0.0, -0.5835 -0.2357 -0.0004, -0.5835 -0.2357 0.0, -0.5463 -0.2251 -0.0004, -0.5463 -0.2251 0.0, -0.5111 -0.2087 -0.0004, -0.5111 -0.2087 0.0, -0.4791 -0.1869 -0.0004, -0.4791 -0.1869 0.0, -0.451 -0.1602 -0.0004, -0.451 -0.1602 0.0, -0.4276 -0.1294 -0.0004, -0.4276 -0.1294 0.0, -0.4276 -0.2874 -0.0004, -0.4276 -0.2874 0.0, -0.622 -0.2874 -0.0004, -0.622 -0.2874 0.0, -0.4276 0.1293 -0.0004, -0.4276 0.1293 0.0, -0.451 0.1602 -0.0004, -0.451 0.1602 0.0, -0.4791 0.1869 -0.0004, -0.4791 0.1869 0.0, -0.5111 0.2087 -0.0004, -0.5111 0.2087 0.0, -0.5463 0.2251 -0.0004, -0.5463 0.2251 0.0, -0.5835 0.2356 -0.0004, -0.5835 0.2356 0.0, -0.622 0.24 -0.0004, -0.622 0.24 0.0, -0.622 0.2874 -0.0004, -0.622 0.2874 0.0, -0.4276 0.2874 -0.0004, -0.4276 0.2874 0.0, 0.0744 -0.1587 0.1028, -0.1508 -0.0 0.1028, 0.0744 -0.1587 0.1024, -0.1508 -0.0 0.1024, 0.0744 0.1587 0.1028, 0.0744 0.1587 0.1024
            ]
        }
        coordIndex [
            0,1,2,-1,2,1,3,-1,2,3,4,-1,4,3,5,-1,4,5,6,-1,6,5,7,-1,6,7,8,-1,8,7,9,-1,8,9,10,-1,10,9,11,-1,10,11,12,-1,12,11,13,-1,14,12,15,-1,15,12,13,-1,16,14,17,-1,17,14,15,-1,0,16,1,-1,1,16,17,-1,4,6,14,-1,6,8,14,-1,14,8,10,-1,14,10,12,-1,4,14,2,-1,2,14,16,-1,2,16,0,-1,18,19,20,-1,20,19,21,-1,20,21,22,-1,22,21,23,-1,22,23,24,-1,24,23,25,-1,24,25,26,-1,26,25,27,-1,26,27,28,-1,28,27,29,-1,28,29,30,-1,30,29,31,-1,32,30,33,-1,33,30,31,-1,34,32,35,-1,35,32,33,-1,18,34,19,-1,19,34,35,-1,18,20,34,-1,34,20,22,-1,22,24,34,-1,34,24,26,-1,34,26,32,-1,32,26,28,-1,32,28,30,-1,36,37,38,-1,38,37,39,-1,40,36,41,-1,41,36,38,-1,37,40,39,-1,39,40,41,-1,36,40,37,-1,
        ]
    }
}
Shape{
    appearance Appearance {
        material  Material 	{
            diffuseColor 0.0 0.0 0.0
            specularColor 0.0 0.0 0.0
            ambientIntensity 0.0
            transparency 0.0
            shininess 0.5
        }
    }
    geometry IndexedFaceSet {
        ccw TRUE
        solid FALSE
        coord DEF co Coordinate {
            point [
                -0.0496 0.2953 -0.0616, -0.0495 0.2953 -0.0644, -0.0496 0.2953 -0.0616, -0.0495 0.2953 -0.0644, -0.04 0.2953 -0.0616, -0.04 0.2953 -0.0616, -0.0401 0.2953 -0.0403, -0.0401 0.2953 -0.0404, -0.0401 0.2953 -0.0403, -0.037 0.2953 -0.0402, -0.037 0.2953 -0.0402, -0.0369 0.2953 -0.0643, -0.0369 0.2953 -0.0643, -0.037 0.2953 -0.0404, -0.0685 0.2953 -0.0635, -0.0685 0.2953 -0.0635, -0.0681 0.2953 -0.0637, -0.0619 0.2953 -0.0649, -0.0619 0.2953 -0.0649, -0.0626 0.2953 -0.0648, -0.0655 0.2953 -0.0645, -0.0655 0.2953 -0.0645, -0.0675 0.2953 -0.0639, -0.0681 0.2953 -0.0637, -0.0685 0.2953 -0.0605, -0.0685 0.2953 -0.0605, -0.0675 0.2953 -0.061, -0.0662 0.2953 -0.0616, -0.0662 0.2953 -0.0616, -0.0634 0.2953 -0.0621, -0.0634 0.2953 -0.0621, -0.0623 0.2953 -0.0621, -0.0623 0.2953 -0.0621, -0.0602 0.2953 -0.0619, -0.0602 0.2953 -0.0619, -0.0585 0.2953 -0.0613, -0.0585 0.2953 -0.0613, -0.0569 0.2953 -0.0602, -0.0569 0.2953 -0.0602, -0.0562 0.2953 -0.0595, -0.0562 0.2953 -0.0595, -0.0551 0.2953 -0.058, -0.0551 0.2953 -0.058, -0.0543 0.2953 -0.0561, -0.0543 0.2953 -0.0561, -0.0539 0.2953 -0.0538, -0.0539 0.2953 -0.0538, -0.0539 0.2953 -0.0526, -0.0539 0.2953 -0.0526, -0.0543 0.2953 -0.0494, -0.0543 0.2953 -0.0494, -0.0551 0.2953 -0.0473, -0.0551 0.2953 -0.0473, -0.0563 0.2953 -0.0456, -0.0563 0.2953 -0.0456, -0.0564 0.2953 -0.0454, -0.0564 0.2953 -0.0454, -0.0579 0.2953 -0.0442, -0.0579 0.2953 -0.0442, -0.0598 0.2953 -0.0433, -0.0598 0.2953 -0.0433, -0.0618 0.2953 -0.0429, -0.0618 0.2953 -0.0429, -0.063 0.2953 -0.0428, -0.063 0.2953 -0.0428, -0.0687 0.2953 -0.0443, -0.0687 0.2953 -0.0443, -0.0684 0.2953 -0.0441, -0.066 0.2953 -0.0432, -0.066 0.2953 -0.0432, -0.0675 0.2953 -0.0438, -0.0684 0.2953 -0.0441, -0.0687 0.2953 -0.0411, -0.0687 0.2953 -0.0411, -0.0664 0.2953 -0.0404, -0.0661 0.2953 -0.0403, -0.0675 0.2953 -0.0407, -0.0661 0.2953 -0.0403, -0.063 0.2953 -0.04, -0.063 0.2953 -0.04, -0.0595 0.2953 -0.0404, -0.0599 0.2953 -0.0404, -0.0595 0.2953 -0.0404, -0.057 0.2953 -0.0414, -0.057 0.2953 -0.0414, -0.0547 0.2953 -0.0429, -0.0547 0.2953 -0.0429, -0.0541 0.2953 -0.0435, -0.0541 0.2953 -0.0435, -0.0524 0.2953 -0.0458, -0.0524 0.2953 -0.0458, -0.0515 0.2953 -0.0478, -0.0512 0.2953 -0.0484, -0.0512 0.2953 -0.0484, -0.0507 0.2953 -0.0516, -0.0507 0.2953 -0.0516, -0.0506 0.2953 -0.0528, -0.0506 0.2953 -0.0528, -0.0511 0.2953 -0.0567, -0.0511 0.2953 -0.0567, -0.0515 0.2953 -0.0579, -0.052 0.2953 -0.0592, -0.052 0.2953 -0.0592, -0.0534 0.2953 -0.0613, -0.0534 0.2953 -0.0613, -0.0536 0.2953 -0.0615, -0.0536 0.2953 -0.0615, -0.0606 0.2953 -0.0648, -0.0604 0.2953 -0.0648, -0.0604 0.2953 -0.0648, -0.0578 0.2953 -0.0642, -0.0578 0.2953 -0.0642, -0.0555 0.2953 -0.0631, -0.0555 0.2953 -0.0631, -0.0863 0.2953 -0.0619, -0.0862 0.2953 -0.0646, -0.0863 0.2953 -0.0619, -0.0862 0.2953 -0.0646, -0.0764 0.2953 -0.0618, -0.0764 0.2953 -0.0618, -0.0827 0.2953 -0.0619, -0.0765 0.2953 -0.0537, -0.0765 0.2953 -0.0537, -0.0851 0.2953 -0.0538, -0.0851 0.2953 -0.0538, -0.0827 0.2953 -0.0538, -0.0851 0.2953 -0.051, -0.0851 0.2953 -0.051, -0.0765 0.2953 -0.051, -0.0765 0.2953 -0.051, -0.0827 0.2953 -0.051, -0.0766 0.2953 -0.0433, -0.0766 0.2953 -0.0433, -0.0858 0.2953 -0.0434, -0.0858 0.2953 -0.0434, -0.0827 0.2953 -0.0433, -0.0859 0.2953 -0.0406, -0.0859 0.2953 -0.0406, -0.0735 0.2953 -0.0405, -0.0735 0.2953 -0.0405, -0.0827 0.2953 -0.0406, -0.0733 0.2953 -0.0645, -0.0733 0.2953 -0.0645, -0.0827 0.2953 -0.0646, -0.1067 0.2953 -0.0614, -0.1043 0.2953 -0.0598, -0.1042 0.2953 -0.0632, -0.1027 0.2953 -0.0608, -0.1015 0.2953 -0.0642, -0.1007 0.2953 -0.0616, -0.0974 0.2953 -0.0647, -0.0974 0.2953 -0.062, -0.0908 0.2953 -0.0647, -0.0939 0.2953 -0.0619, -0.0909 0.2953 -0.0406, -0.094 0.2953 -0.0434, -0.0978 0.2953 -0.0407, -0.0977 0.2953 -0.0434, -0.0979 0.2953 -0.0434, -0.1015 0.2953 -0.0411, -0.101 0.2953 -0.0439, -0.1044 0.2953 -0.0422, -0.103 0.2953 -0.0447, -0.1069 0.2953 -0.0439, -0.1046 0.2953 -0.0458, -0.1077 0.2953 -0.0448, -0.1052 0.2953 -0.0464, -0.1092 0.2953 -0.0469, -0.1062 0.2953 -0.0478, -0.11 0.2953 -0.0492, -0.1068 0.2953 -0.0495, -0.1104 0.2953 -0.0525, -0.1072 0.2953 -0.0525, -0.1103 0.2953 -0.054, -0.107 0.2953 -0.0542, -0.1097 0.2953 -0.0568, -0.1065 0.2953 -0.0564, -0.1085 0.2953 -0.0593, -0.1057 0.2953 -0.0581, -0.1045 0.2953 -0.0595, -0.0974 0.2953 -0.0647, -0.0908 0.2953 -0.0647, -0.1015 0.2953 -0.0642, -0.1042 0.2953 -0.0632, -0.1067 0.2953 -0.0614, -0.1085 0.2953 -0.0593, -0.1097 0.2953 -0.0568, -0.1103 0.2953 -0.054, -0.1104 0.2953 -0.0525, -0.11 0.2953 -0.0492, -0.1092 0.2953 -0.0469, -0.1077 0.2953 -0.0448, -0.1069 0.2953 -0.0439, -0.1044 0.2953 -0.0422, -0.1015 0.2953 -0.0411, -0.0978 0.2953 -0.0407, -0.0909 0.2953 -0.0406, -0.0977 0.2953 -0.0434, -0.094 0.2953 -0.0434, -0.0939 0.2953 -0.0619, -0.0974 0.2953 -0.062, -0.1045 0.2953 -0.0595, -0.1043 0.2953 -0.0598, -0.1027 0.2953 -0.0608, -0.1007 0.2953 -0.0616, -0.1072 0.2953 -0.0525, -0.107 0.2953 -0.0542, -0.1065 0.2953 -0.0564, -0.1057 0.2953 -0.0581, -0.1046 0.2953 -0.0458, -0.1052 0.2953 -0.0464, -0.1062 0.2953 -0.0478, -0.1068 0.2953 -0.0495, -0.0979 0.2953 -0.0434, -0.101 0.2953 -0.0439, -0.103 0.2953 -0.0447
            ]
        }
        coordIndex [
            0,1,2,-1,2,1,3,-1,4,0,5,-1,5,0,2,-1,4,5,6,-1,6,5,7,-1,6,7,8,-1,9,6,10,-1,10,6,8,-1,11,12,13,-1,13,12,9,-1,13,9,10,-1,1,12,3,-1,3,12,11,-1,6,9,4,-1,4,9,12,-1,4,12,0,-1,0,12,1,-1,14,15,16,-1,17,18,19,-1,17,19,20,-1,19,21,20,-1,20,21,22,-1,20,22,16,-1,16,22,23,-1,16,23,14,-1,24,15,25,-1,25,15,14,-1,24,25,26,-1,24,26,27,-1,26,28,27,-1,27,28,29,-1,27,29,30,-1,30,29,31,-1,30,31,32,-1,32,31,33,-1,32,33,34,-1,34,33,35,-1,34,35,36,-1,36,35,37,-1,36,37,38,-1,38,37,39,-1,38,39,40,-1,40,39,41,-1,40,41,42,-1,42,41,43,-1,42,43,44,-1,44,43,45,-1,44,45,46,-1,46,45,47,-1,46,47,48,-1,48,47,49,-1,48,49,50,-1,50,49,51,-1,50,51,52,-1,52,51,53,-1,52,53,54,-1,54,53,55,-1,54,55,56,-1,56,55,57,-1,56,57,58,-1,58,57,59,-1,58,59,60,-1,60,59,61,-1,60,61,62,-1,62,61,63,-1,62,63,64,-1,65,66,67,-1,64,63,68,-1,64,68,69,-1,69,68,70,-1,69,70,67,-1,67,70,71,-1,67,71,65,-1,72,66,73,-1,73,66,65,-1,74,75,76,-1,76,75,72,-1,76,72,73,-1,74,77,75,-1,75,77,78,-1,75,78,79,-1,80,79,81,-1,81,79,78,-1,81,82,80,-1,80,82,83,-1,80,83,84,-1,84,83,85,-1,84,85,86,-1,86,85,87,-1,86,87,88,-1,88,87,89,-1,88,89,90,-1,90,89,91,-1,90,91,92,-1,91,93,92,-1,92,93,94,-1,92,94,95,-1,95,94,96,-1,95,96,97,-1,97,96,98,-1,97,98,99,-1,99,98,100,-1,99,100,101,-1,100,102,101,-1,101,102,103,-1,101,103,104,-1,104,103,105,-1,104,105,106,-1,18,17,107,-1,107,17,108,-1,107,108,109,-1,109,108,110,-1,109,110,111,-1,111,110,112,-1,111,112,113,-1,113,112,106,-1,113,106,105,-1,58,60,80,-1,50,52,90,-1,90,52,88,-1,80,60,79,-1,97,48,95,-1,95,48,50,-1,95,50,92,-1,92,50,90,-1,60,62,79,-1,79,62,64,-1,79,64,75,-1,75,64,69,-1,75,69,72,-1,72,69,67,-1,72,67,66,-1,15,24,16,-1,16,24,27,-1,16,27,20,-1,20,27,30,-1,20,30,17,-1,17,30,32,-1,17,32,108,-1,108,32,34,-1,108,34,110,-1,110,34,36,-1,110,36,112,-1,112,36,38,-1,112,38,106,-1,106,38,40,-1,106,40,104,-1,104,40,42,-1,104,42,101,-1,101,42,99,-1,99,42,44,-1,99,44,97,-1,97,44,46,-1,97,46,48,-1,52,54,88,-1,88,54,56,-1,88,56,86,-1,86,56,58,-1,86,58,84,-1,84,58,80,-1,114,115,116,-1,116,115,117,-1,118,119,120,-1,120,119,114,-1,120,114,116,-1,121,119,122,-1,122,119,118,-1,123,124,125,-1,125,124,121,-1,125,121,122,-1,126,124,127,-1,127,124,123,-1,128,129,130,-1,130,129,126,-1,130,126,127,-1,131,129,132,-1,132,129,128,-1,133,134,135,-1,135,134,131,-1,135,131,132,-1,136,134,137,-1,137,134,133,-1,138,139,140,-1,140,139,136,-1,140,136,137,-1,141,139,142,-1,142,139,138,-1,117,115,143,-1,143,115,141,-1,143,141,142,-1,115,114,141,-1,141,114,119,-1,124,126,121,-1,121,126,129,-1,134,136,131,-1,131,136,139,-1,131,139,129,-1,129,139,141,-1,129,141,121,-1,121,141,119,-1,144,145,146,-1,146,145,147,-1,146,147,148,-1,148,147,149,-1,148,149,150,-1,150,149,151,-1,150,151,152,-1,152,151,153,-1,152,153,154,-1,154,153,155,-1,154,155,156,-1,155,157,156,-1,156,157,158,-1,156,158,159,-1,159,158,160,-1,159,160,161,-1,161,160,162,-1,161,162,163,-1,163,162,164,-1,163,164,165,-1,165,164,166,-1,165,166,167,-1,167,166,168,-1,167,168,169,-1,169,168,170,-1,169,170,171,-1,171,170,172,-1,171,172,173,-1,173,172,174,-1,173,174,175,-1,175,174,176,-1,175,176,177,-1,177,176,178,-1,177,178,144,-1,144,178,179,-1,144,179,145,-1,150,152,180,-1,180,152,181,-1,150,180,182,-1,150,182,148,-1,148,182,183,-1,148,183,146,-1,146,183,184,-1,146,184,144,-1,144,184,185,-1,144,185,177,-1,177,185,186,-1,177,186,175,-1,175,186,187,-1,175,187,173,-1,173,187,188,-1,173,188,171,-1,171,188,189,-1,171,189,169,-1,169,189,190,-1,169,190,167,-1,167,190,191,-1,167,191,165,-1,165,191,192,-1,165,192,163,-1,163,192,193,-1,163,193,161,-1,161,193,194,-1,161,194,159,-1,159,194,195,-1,159,195,156,-1,154,156,196,-1,196,156,195,-1,152,154,181,-1,181,154,196,-1,157,155,197,-1,197,155,198,-1,155,153,198,-1,198,153,199,-1,153,151,199,-1,199,151,200,-1,179,201,202,-1,179,202,145,-1,145,202,203,-1,145,203,147,-1,147,203,204,-1,147,204,149,-1,149,204,200,-1,149,200,151,-1,172,205,206,-1,172,206,174,-1,174,206,207,-1,174,207,176,-1,176,207,208,-1,176,208,178,-1,178,208,201,-1,178,201,179,-1,164,209,210,-1,164,210,166,-1,166,210,211,-1,166,211,168,-1,168,211,212,-1,168,212,170,-1,170,212,205,-1,170,205,172,-1,157,197,213,-1,157,213,158,-1,158,213,214,-1,158,214,160,-1,160,214,215,-1,160,215,162,-1,162,215,209,-1,162,209,164,-1,
        ]
    }
}
Shape{
    appearance Appearance {
        material  Material 	{
            diffuseColor 1.0 1.0 1.0
            specularColor 0.5019607843137255 0.5019607843137255 0.5019607843137255
            ambientIntensity 1.0
            transparency 0.0
            shininess 0.5
        }
    }
    geometry IndexedFaceSet {
        ccw TRUE
        solid FALSE
        coord DEF co Coordinate {
            point [
                -0.1027 0.2953 -0.0608, -0.1043 0.2953 -0.0598, -0.0979 0.2953 -0.0434, -0.094 0.2953 -0.0434, -0.0939 0.2953 -0.0619, -0.0977 0.2953 -0.0434, -0.0974 0.2953 -0.062, -0.1007 0.2953 -0.0616, -0.1045 0.2953 -0.0595, -0.1057 0.2953 -0.0581, -0.1065 0.2953 -0.0564, -0.1072 0.2953 -0.0525, -0.1046 0.2953 -0.0458, -0.103 0.2953 -0.0447, -0.1068 0.2953 -0.0495, -0.1062 0.2953 -0.0478, -0.1052 0.2953 -0.0464, -0.107 0.2953 -0.0542, -0.101 0.2953 -0.0439
            ]
        }
        coordIndex [
            0,1,2,-1,3,4,5,-1,5,4,6,-1,5,6,2,-1,2,6,7,-1,2,7,0,-1,1,8,2,-1,2,8,9,-1,2,9,10,-1,11,12,13,-1,14,15,11,-1,11,15,16,-1,11,16,12,-1,10,17,2,-1,2,17,11,-1,2,11,18,-1,18,11,13,-1,
        ]
    }
}
Shape{
    appearance Appearance {
        material  Material 	{
            diffuseColor 0.0 0.0 0.0
            specularColor 0.0 0.0 0.0
            ambientIntensity 0.0
            transparency 0.0
            shininess 0.5
        }
    }
    geometry IndexedFaceSet {
        ccw TRUE
        solid FALSE
        coord DEF co Coordinate {
            point [
                -0.1184 0.2953 -0.0556, -0.1221 0.2953 -0.0456, -0.121 0.2953 -0.0408, -0.1117 0.2953 -0.0648, -0.1151 0.2953 -0.0648, -0.1174 0.2953 -0.0583, -0.1223 0.2953 -0.0449, -0.1225 0.2953 -0.0439, -0.1243 0.2953 -0.0409, -0.1226 0.2953 -0.0439, -0.1228 0.2953 -0.0449, -0.123 0.2953 -0.0456, -0.1265 0.2953 -0.0556, -0.1333 0.2953 -0.065, -0.1299 0.2953 -0.0649, -0.1274 0.2953 -0.0583, -0.1243 0.2953 -0.0409, -0.1332 0.2953 -0.0648, -0.1333 0.2953 -0.065, -0.121 0.2953 -0.0408, -0.1117 0.2953 -0.0648, -0.1117 0.2953 -0.0648, -0.1183 0.2953 -0.0477, -0.1151 0.2953 -0.0648, -0.1174 0.2953 -0.0583, -0.1151 0.2953 -0.0648, -0.1274 0.2953 -0.0583, -0.1183 0.2953 -0.0583, -0.1299 0.2953 -0.0649, -0.1298 0.2953 -0.0648, -0.1184 0.2953 -0.0556, -0.1265 0.2953 -0.0556, -0.123 0.2953 -0.0456, -0.1226 0.2953 -0.0439, -0.1228 0.2953 -0.0449, -0.1225 0.2953 -0.0439, -0.1221 0.2953 -0.0456, -0.1223 0.2953 -0.0449
            ]
        }
        coordIndex [
            0,1,2,-1,3,4,5,-1,1,6,2,-1,2,6,7,-1,2,7,8,-1,8,7,9,-1,8,9,10,-1,10,11,8,-1,8,11,12,-1,8,12,13,-1,14,13,15,-1,15,13,12,-1,15,12,5,-1,5,12,0,-1,5,0,3,-1,3,0,2,-1,16,8,17,-1,17,8,13,-1,17,13,18,-1,2,8,19,-1,19,8,16,-1,20,21,3,-1,20,3,22,-1,22,3,2,-1,22,2,19,-1,4,3,23,-1,23,3,21,-1,24,5,25,-1,25,5,4,-1,25,4,23,-1,26,15,27,-1,27,15,5,-1,27,5,24,-1,28,14,29,-1,29,14,15,-1,29,15,26,-1,13,14,18,-1,18,14,28,-1,0,12,30,-1,30,12,31,-1,12,11,31,-1,31,11,32,-1,9,33,34,-1,9,34,10,-1,10,34,32,-1,10,32,11,-1,9,7,33,-1,33,7,35,-1,1,36,37,-1,1,37,6,-1,6,37,35,-1,6,35,7,-1,1,0,36,-1,36,0,30,-1,
        ]
    }
}
Shape{
    appearance Appearance {
        material  Material 	{
            diffuseColor 1.0 1.0 1.0
            specularColor 0.5019607843137255 0.5019607843137255 0.5019607843137255
            ambientIntensity 1.0
            transparency 0.0
            shininess 0.5
        }
    }
    geometry IndexedFaceSet {
        ccw TRUE
        solid FALSE
        coord DEF co Coordinate {
            point [
                -0.1226 0.2953 -0.0439, -0.1225 0.2953 -0.0439, -0.1228 0.2953 -0.0449, -0.1223 0.2953 -0.0449, -0.123 0.2953 -0.0456, -0.1221 0.2953 -0.0456, -0.1265 0.2953 -0.0556, -0.1184 0.2953 -0.0556
            ]
        }
        coordIndex [
            0,1,2,-1,2,1,3,-1,2,3,4,-1,4,3,5,-1,4,5,6,-1,6,5,7,-1,
        ]
    }
}
Shape{
    appearance Appearance {
        material  Material 	{
            diffuseColor 0.0 0.0 0.0
            specularColor 0.0 0.0 0.0
            ambientIntensity 0.0
            transparency 0.0
            shininess 0.5
        }
    }
    geometry IndexedFaceSet {
        ccw TRUE
        solid FALSE
        coord DEF co Coordinate {
            point [
                -0.0495 0.2953 -0.0997, -0.0495 0.2953 -0.1025, -0.0495 0.2953 -0.0997, -0.0495 0.2953 -0.1025, -0.0397 0.2953 -0.0997, -0.0397 0.2953 -0.0997, -0.0398 0.2953 -0.0916, -0.0398 0.2953 -0.0916, -0.0484 0.2953 -0.0916, -0.0484 0.2953 -0.0916, -0.0484 0.2953 -0.0889, -0.0484 0.2953 -0.0889, -0.0398 0.2953 -0.0888, -0.0398 0.2953 -0.0888, -0.0399 0.2953 -0.0811, -0.0399 0.2953 -0.0811, -0.0491 0.2953 -0.0812, -0.0491 0.2953 -0.0812, -0.0491 0.2953 -0.0784, -0.0491 0.2953 -0.0784, -0.0368 0.2953 -0.0784, -0.0368 0.2953 -0.0784, -0.0366 0.2953 -0.1024, -0.0366 0.2953 -0.1024, -0.0632 0.2953 -0.1026, -0.0662 0.2953 -0.1026, -0.0632 0.2953 -0.0999, -0.0663 0.2953 -0.0915, -0.0592 0.2953 -0.0945, -0.0632 0.2953 -0.094, -0.0632 0.2953 -0.0956, -0.0631 0.2953 -0.0999, -0.0615 0.2953 -0.0995, -0.0624 0.2953 -0.101, -0.0607 0.2953 -0.1, -0.0632 0.2953 -0.0958, -0.063 0.2953 -0.0971, -0.0626 0.2953 -0.0982, -0.0619 0.2953 -0.0991, -0.056 0.2953 -0.0928, -0.0547 0.2953 -0.0935, -0.0566 0.2953 -0.0953, -0.0563 0.2953 -0.0955, -0.0633 0.2953 -0.0917, -0.0632 0.2953 -0.0903, -0.0661 0.2953 -0.0894, -0.0629 0.2953 -0.0893, -0.0656 0.2953 -0.088, -0.0625 0.2953 -0.0886, -0.065 0.2953 -0.087, -0.0621 0.2953 -0.0881, -0.0642 0.2953 -0.0862, -0.0615 0.2953 -0.0878, -0.0632 0.2953 -0.0856, -0.0608 0.2953 -0.0875, -0.062 0.2953 -0.0852, -0.0598 0.2953 -0.0874, -0.0601 0.2953 -0.085, -0.0578 0.2953 -0.0877, -0.0571 0.2953 -0.0853, -0.0559 0.2953 -0.0883, -0.0548 0.2953 -0.0862, -0.0542 0.2953 -0.0895, -0.0542 0.2953 -0.0865, -0.0559 0.2953 -0.0959, -0.0537 0.2953 -0.0943, -0.0557 0.2953 -0.0965, -0.0531 0.2953 -0.0951, -0.0555 0.2953 -0.0972, -0.0561 0.2953 -0.0994, -0.0539 0.2953 -0.1016, -0.0563 0.2953 -0.0997, -0.0549 0.2953 -0.1023, -0.0569 0.2953 -0.1001, -0.056 0.2953 -0.1027, -0.0576 0.2953 -0.1003, -0.0578 0.2953 -0.1029, -0.0586 0.2953 -0.1005, -0.0595 0.2953 -0.1027, -0.0598 0.2953 -0.1004, -0.0607 0.2953 -0.1023, -0.0614 0.2953 -0.1019, -0.0572 0.2953 -0.095, -0.0582 0.2953 -0.0923, -0.0527 0.2953 -0.0962, -0.0525 0.2953 -0.0974, -0.0555 0.2953 -0.0977, -0.0524 0.2953 -0.0979, -0.0556 0.2953 -0.0984, -0.0526 0.2953 -0.0993, -0.0558 0.2953 -0.0989, -0.0529 0.2953 -0.1003, -0.0536 0.2953 -0.1012, -0.0601 0.2953 -0.085, -0.0571 0.2953 -0.0853, -0.0548 0.2953 -0.0862, -0.0542 0.2953 -0.0865, -0.0542 0.2953 -0.0895, -0.0559 0.2953 -0.0883, -0.0578 0.2953 -0.0877, -0.0598 0.2953 -0.0874, -0.0608 0.2953 -0.0875, -0.0615 0.2953 -0.0878, -0.0621 0.2953 -0.0881, -0.0625 0.2953 -0.0886, -0.0629 0.2953 -0.0893, -0.0632 0.2953 -0.0903, -0.0633 0.2953 -0.0917, -0.0582 0.2953 -0.0923, -0.056 0.2953 -0.0928, -0.0547 0.2953 -0.0935, -0.0537 0.2953 -0.0943, -0.0531 0.2953 -0.0951, -0.0527 0.2953 -0.0962, -0.0525 0.2953 -0.0974, -0.0524 0.2953 -0.0979, -0.0526 0.2953 -0.0993, -0.0529 0.2953 -0.1003, -0.0536 0.2953 -0.1012, -0.0539 0.2953 -0.1016, -0.0549 0.2953 -0.1023, -0.056 0.2953 -0.1027, -0.0578 0.2953 -0.1029, -0.0595 0.2953 -0.1027, -0.0607 0.2953 -0.1023, -0.0614 0.2953 -0.1019, -0.0624 0.2953 -0.101, -0.0631 0.2953 -0.0999, -0.0632 0.2953 -0.0999, -0.0632 0.2953 -0.1026, -0.0662 0.2953 -0.1026, -0.0663 0.2953 -0.0915, -0.0661 0.2953 -0.0894, -0.0656 0.2953 -0.088, -0.065 0.2953 -0.087, -0.0642 0.2953 -0.0862, -0.0632 0.2953 -0.0856, -0.062 0.2953 -0.0852, -0.0563 0.2953 -0.0955, -0.0566 0.2953 -0.0953, -0.0572 0.2953 -0.095, -0.0592 0.2953 -0.0945, -0.0555 0.2953 -0.0977, -0.0555 0.2953 -0.0972, -0.0557 0.2953 -0.0965, -0.0559 0.2953 -0.0959, -0.0563 0.2953 -0.0997, -0.0561 0.2953 -0.0994, -0.0558 0.2953 -0.0989, -0.0556 0.2953 -0.0984, -0.0586 0.2953 -0.1005, -0.0576 0.2953 -0.1003, -0.0569 0.2953 -0.1001, -0.0619 0.2953 -0.0991, -0.0615 0.2953 -0.0995, -0.0607 0.2953 -0.1, -0.0598 0.2953 -0.1004, -0.0632 0.2953 -0.0956, -0.0632 0.2953 -0.0958, -0.063 0.2953 -0.0971, -0.0626 0.2953 -0.0982, -0.0632 0.2953 -0.094
            ]
        }
        coordIndex [
            0,1,2,-1,2,1,3,-1,4,0,5,-1,5,0,2,-1,6,4,7,-1,7,4,5,-1,8,6,9,-1,9,6,7,-1,10,8,11,-1,11,8,9,-1,12,10,13,-1,13,10,11,-1,14,12,15,-1,15,12,13,-1,16,14,17,-1,17,14,15,-1,18,16,19,-1,19,16,17,-1,20,18,21,-1,21,18,19,-1,22,20,23,-1,23,20,21,-1,1,22,3,-1,3,22,23,-1,22,1,0,-1,0,4,22,-1,22,4,6,-1,22,6,20,-1,16,18,14,-1,14,18,20,-1,14,20,12,-1,12,20,6,-1,12,6,10,-1,10,6,8,-1,24,25,26,-1,26,25,27,-1,28,29,27,-1,27,29,30,-1,31,32,33,-1,33,32,34,-1,30,35,27,-1,27,35,36,-1,27,36,26,-1,26,36,37,-1,26,37,31,-1,31,37,38,-1,31,38,32,-1,39,40,41,-1,41,40,42,-1,43,27,44,-1,44,27,45,-1,44,45,46,-1,46,45,47,-1,46,47,48,-1,48,47,49,-1,48,49,50,-1,50,49,51,-1,50,51,52,-1,52,51,53,-1,52,53,54,-1,54,53,55,-1,54,55,56,-1,56,55,57,-1,56,57,58,-1,58,57,59,-1,58,59,60,-1,60,59,61,-1,60,61,62,-1,62,61,63,-1,42,40,64,-1,64,40,65,-1,64,65,66,-1,66,65,67,-1,66,67,68,-1,69,70,71,-1,71,70,72,-1,71,72,73,-1,73,72,74,-1,73,74,75,-1,75,74,76,-1,75,76,77,-1,77,76,78,-1,77,78,79,-1,79,78,80,-1,79,80,34,-1,34,80,81,-1,34,81,33,-1,28,27,82,-1,82,27,43,-1,82,43,41,-1,41,43,83,-1,41,83,39,-1,67,84,68,-1,68,84,85,-1,68,85,86,-1,86,85,87,-1,86,87,88,-1,88,87,89,-1,88,89,90,-1,90,89,91,-1,90,91,69,-1,69,91,92,-1,69,92,70,-1,57,93,94,-1,57,94,59,-1,59,94,95,-1,59,95,61,-1,61,95,96,-1,61,96,63,-1,62,63,97,-1,97,63,96,-1,62,97,98,-1,62,98,60,-1,60,98,99,-1,60,99,58,-1,58,99,100,-1,58,100,56,-1,56,100,101,-1,56,101,54,-1,54,101,102,-1,54,102,52,-1,52,102,103,-1,52,103,50,-1,50,103,104,-1,50,104,48,-1,48,104,105,-1,48,105,46,-1,46,105,106,-1,46,106,44,-1,44,106,107,-1,44,107,43,-1,83,43,108,-1,108,43,107,-1,83,108,109,-1,83,109,39,-1,39,109,110,-1,39,110,40,-1,40,110,111,-1,40,111,65,-1,65,111,112,-1,65,112,67,-1,67,112,113,-1,67,113,84,-1,84,113,114,-1,84,114,85,-1,85,114,115,-1,85,115,87,-1,87,115,116,-1,87,116,89,-1,89,116,117,-1,89,117,91,-1,91,117,118,-1,91,118,92,-1,92,118,119,-1,92,119,70,-1,70,119,120,-1,70,120,72,-1,72,120,121,-1,72,121,74,-1,74,121,122,-1,74,122,76,-1,76,122,123,-1,76,123,78,-1,78,123,124,-1,78,124,80,-1,80,124,125,-1,80,125,81,-1,81,125,126,-1,81,126,33,-1,33,126,127,-1,33,127,31,-1,26,31,128,-1,128,31,127,-1,24,26,129,-1,129,26,128,-1,25,24,130,-1,130,24,129,-1,27,25,131,-1,131,25,130,-1,27,131,132,-1,27,132,45,-1,45,132,133,-1,45,133,47,-1,47,133,134,-1,47,134,49,-1,49,134,135,-1,49,135,51,-1,51,135,136,-1,51,136,53,-1,53,136,137,-1,53,137,55,-1,55,137,93,-1,55,93,57,-1,42,138,139,-1,42,139,41,-1,41,139,140,-1,41,140,82,-1,82,140,141,-1,82,141,28,-1,86,142,143,-1,86,143,68,-1,68,143,144,-1,68,144,66,-1,66,144,145,-1,66,145,64,-1,64,145,138,-1,64,138,42,-1,71,146,147,-1,71,147,69,-1,69,147,148,-1,69,148,90,-1,90,148,149,-1,90,149,88,-1,88,149,142,-1,88,142,86,-1,77,150,151,-1,77,151,75,-1,75,151,152,-1,75,152,73,-1,73,152,146,-1,73,146,71,-1,38,153,154,-1,38,154,32,-1,32,154,155,-1,32,155,34,-1,34,155,156,-1,34,156,79,-1,79,156,150,-1,79,150,77,-1,30,157,158,-1,30,158,35,-1,35,158,159,-1,35,159,36,-1,36,159,160,-1,36,160,37,-1,37,160,153,-1,37,153,38,-1,30,29,157,-1,157,29,161,-1,29,28,161,-1,161,28,141,-1,
        ]
    }
}
Shape{
    appearance Appearance {
        material  Material 	{
            diffuseColor 1.0 1.0 1.0
            specularColor 0.5019607843137255 0.5019607843137255 0.5019607843137255
            ambientIntensity 1.0
            transparency 0.0
            shininess 0.5
        }
    }
    geometry IndexedFaceSet {
        ccw TRUE
        solid FALSE
        coord DEF co Coordinate {
            point [
                -0.0632 0.2953 -0.0958, -0.0632 0.2953 -0.0956, -0.0563 0.2953 -0.0955, -0.0632 0.2953 -0.094, -0.0592 0.2953 -0.0945, -0.0572 0.2953 -0.095, -0.0566 0.2953 -0.0953, -0.063 0.2953 -0.0971, -0.0559 0.2953 -0.0959, -0.0626 0.2953 -0.0982, -0.0561 0.2953 -0.0994, -0.0563 0.2953 -0.0997, -0.0615 0.2953 -0.0995, -0.0558 0.2953 -0.0989, -0.0607 0.2953 -0.1, -0.0598 0.2953 -0.1004, -0.0586 0.2953 -0.1005, -0.0557 0.2953 -0.0965, -0.0555 0.2953 -0.0972, -0.0619 0.2953 -0.0991, -0.0555 0.2953 -0.0977, -0.0556 0.2953 -0.0984, -0.0569 0.2953 -0.1001, -0.0576 0.2953 -0.1003
            ]
        }
        coordIndex [
            0,1,2,-1,1,3,4,-1,4,5,1,-1,1,5,6,-1,1,6,2,-1,0,2,7,-1,7,2,8,-1,7,8,9,-1,10,11,12,-1,10,12,13,-1,14,12,15,-1,15,12,16,-1,8,17,9,-1,9,17,18,-1,9,18,19,-1,19,18,20,-1,19,20,12,-1,12,20,21,-1,12,21,13,-1,11,22,12,-1,12,22,23,-1,12,23,16,-1,
        ]
    }
}
Shape{
    appearance Appearance {
        material  Material 	{
            diffuseColor 0.0 0.0 0.0
            specularColor 0.0 0.0 0.0
            ambientIntensity 0.0
            transparency 0.0
            shininess 0.5
        }
    }
    geometry IndexedFaceSet {
        ccw TRUE
        solid FALSE
        coord DEF co Coordinate {
            point [
                -0.0703 0.2953 -0.0989, -0.0703 0.2953 -0.0989, -0.0715 0.2953 -0.0997, -0.0752 0.2953 -0.1006, -0.0752 0.2953 -0.1006, -0.0734 0.2953 -0.1004, -0.0734 0.2953 -0.1004, -0.0718 0.2953 -0.0998, -0.0715 0.2953 -0.0997, -0.0703 0.2953 -0.102, -0.0703 0.2953 -0.102, -0.0718 0.2953 -0.1026, -0.0721 0.2953 -0.1027, -0.0721 0.2953 -0.1027, -0.0749 0.2953 -0.1031, -0.0749 0.2953 -0.103, -0.0749 0.2953 -0.1031, -0.075 0.2953 -0.103, -0.0776 0.2953 -0.1028, -0.0776 0.2953 -0.1028, -0.0792 0.2953 -0.1022, -0.0792 0.2953 -0.1022, -0.0799 0.2953 -0.1017, -0.0799 0.2953 -0.1017, -0.0808 0.2953 -0.101, -0.0808 0.2953 -0.101, -0.0814 0.2953 -0.1002, -0.0814 0.2953 -0.1002, -0.0817 0.2953 -0.0992, -0.0817 0.2953 -0.0992, -0.0819 0.2953 -0.098, -0.0819 0.2953 -0.098, -0.0818 0.2953 -0.0969, -0.0818 0.2953 -0.0969, -0.0815 0.2953 -0.096, -0.0815 0.2953 -0.096, -0.0809 0.2953 -0.0952, -0.0809 0.2953 -0.0952, -0.0802 0.2953 -0.0945, -0.0802 0.2953 -0.0945, -0.0782 0.2953 -0.0934, -0.0782 0.2953 -0.0934, -0.077 0.2953 -0.0929, -0.077 0.2953 -0.0929, -0.0752 0.2953 -0.0921, -0.0752 0.2953 -0.0921, -0.0741 0.2953 -0.0914, -0.0741 0.2953 -0.0914, -0.0738 0.2953 -0.0911, -0.0738 0.2953 -0.0911, -0.0736 0.2953 -0.0907, -0.0736 0.2953 -0.0907, -0.0735 0.2953 -0.0902, -0.0735 0.2953 -0.0902, -0.0735 0.2953 -0.0898, -0.0735 0.2953 -0.0898, -0.0735 0.2953 -0.0894, -0.0735 0.2953 -0.0894, -0.0737 0.2953 -0.089, -0.0737 0.2953 -0.089, -0.0739 0.2953 -0.0886, -0.0739 0.2953 -0.0886, -0.0744 0.2953 -0.0882, -0.0744 0.2953 -0.0882, -0.0751 0.2953 -0.0878, -0.0751 0.2953 -0.0878, -0.0759 0.2953 -0.0876, -0.0759 0.2953 -0.0876, -0.0768 0.2953 -0.0876, -0.0768 0.2953 -0.0876, -0.0787 0.2953 -0.0878, -0.0787 0.2953 -0.0878, -0.0804 0.2953 -0.0884, -0.0804 0.2953 -0.0884, -0.0811 0.2953 -0.0888, -0.0811 0.2953 -0.0888, -0.0811 0.2953 -0.0859, -0.0811 0.2953 -0.0859, -0.0792 0.2953 -0.0853, -0.0792 0.2953 -0.0853, -0.0771 0.2953 -0.0851, -0.0771 0.2953 -0.0851, -0.075 0.2953 -0.0853, -0.075 0.2953 -0.0853, -0.0733 0.2953 -0.0859, -0.0733 0.2953 -0.0859, -0.0723 0.2953 -0.0864, -0.0723 0.2953 -0.0864, -0.0714 0.2953 -0.0872, -0.0718 0.2953 -0.0869, -0.0714 0.2953 -0.0872, -0.0709 0.2953 -0.088, -0.0709 0.2953 -0.088, -0.0705 0.2953 -0.089, -0.0705 0.2953 -0.089, -0.0704 0.2953 -0.0901, -0.0704 0.2953 -0.0901, -0.0705 0.2953 -0.0913, -0.0705 0.2953 -0.0913, -0.0708 0.2953 -0.0922, -0.0708 0.2953 -0.0922, -0.0712 0.2953 -0.0928, -0.0712 0.2953 -0.0928, -0.0749 0.2953 -0.0951, -0.0749 0.2953 -0.0951, -0.0731 0.2953 -0.0943, -0.0717 0.2953 -0.0933, -0.0717 0.2953 -0.0933, -0.0718 0.2953 -0.0934, -0.0731 0.2953 -0.0943, -0.0769 0.2953 -0.0959, -0.0769 0.2953 -0.0959, -0.078 0.2953 -0.0967, -0.078 0.2953 -0.0967, -0.0784 0.2953 -0.0971, -0.0784 0.2953 -0.0971, -0.0786 0.2953 -0.0975, -0.0786 0.2953 -0.0975, -0.0788 0.2953 -0.0979, -0.0788 0.2953 -0.0979, -0.0788 0.2953 -0.0983, -0.0788 0.2953 -0.0983, -0.0787 0.2953 -0.0989, -0.0787 0.2953 -0.0989, -0.0786 0.2953 -0.0993, -0.0786 0.2953 -0.0993, -0.0783 0.2953 -0.0997, -0.0783 0.2953 -0.0997, -0.078 0.2953 -0.1, -0.078 0.2953 -0.1, -0.0777 0.2953 -0.1002, -0.0777 0.2953 -0.1002, -0.0769 0.2953 -0.1004, -0.0769 0.2953 -0.1004, -0.0754 0.2953 -0.1006, -0.0754 0.2953 -0.1006, -0.0969 0.2953 -0.0856, -0.1 0.2953 -0.0857, -0.0969 0.2953 -0.0856, -0.1 0.2953 -0.0857, -0.0921 0.2953 -0.0985, -0.0921 0.2953 -0.0985, -0.0919 0.2953 -0.0993, -0.0919 0.2953 -0.0993, -0.0917 0.2953 -0.0999, -0.0917 0.2953 -0.0999, -0.0917 0.2953 -0.0999, -0.0917 0.2953 -0.0999, -0.0913 0.2953 -0.0985, -0.0913 0.2953 -0.0985, -0.0869 0.2953 -0.0856, -0.0869 0.2953 -0.0856, -0.0885 0.2953 -0.0903, -0.0835 0.2953 -0.0856, -0.0835 0.2953 -0.0856, -0.0901 0.2953 -0.1027, -0.0901 0.2953 -0.1027, -0.0885 0.2953 -0.0985, -0.0888 0.2953 -0.1058, -0.0888 0.2953 -0.1058, -0.09 0.2953 -0.103, -0.0885 0.2953 -0.1063, -0.0882 0.2953 -0.1069, -0.0882 0.2953 -0.1069, -0.0881 0.2953 -0.107, -0.0876 0.2953 -0.1075, -0.0876 0.2953 -0.1075, -0.0871 0.2953 -0.1079, -0.0871 0.2953 -0.1079, -0.0865 0.2953 -0.1081, -0.0865 0.2953 -0.1081, -0.0857 0.2953 -0.1082, -0.0857 0.2953 -0.1082, -0.0846 0.2953 -0.1081, -0.0846 0.2953 -0.1081, -0.084 0.2953 -0.1079, -0.084 0.2953 -0.1079, -0.084 0.2953 -0.1105, -0.084 0.2953 -0.1105, -0.0853 0.2953 -0.1108, -0.0853 0.2953 -0.1108, -0.0859 0.2953 -0.1108, -0.0859 0.2953 -0.1108, -0.0871 0.2953 -0.1107, -0.0871 0.2953 -0.1107, -0.0883 0.2953 -0.1102, -0.0883 0.2953 -0.1102, -0.0885 0.2953 -0.1101, -0.0894 0.2953 -0.1095, -0.0921 0.2953 -0.1054, -0.0921 0.2953 -0.1054, -0.0912 0.2953 -0.107, -0.0907 0.2953 -0.108, -0.0907 0.2953 -0.108, -0.0896 0.2953 -0.1093, -0.0896 0.2953 -0.1093, -0.0894 0.2953 -0.1095, -0.093 0.2953 -0.103, -0.1161 0.2953 -0.1002, -0.116 0.2953 -0.1029, -0.1161 0.2953 -0.1002, -0.116 0.2953 -0.1029, -0.1062 0.2953 -0.1001, -0.1062 0.2953 -0.1001, -0.111 0.2953 -0.1002, -0.1063 0.2953 -0.092, -0.1063 0.2953 -0.092, -0.1149 0.2953 -0.0921, -0.1149 0.2953 -0.0921, -0.111 0.2953 -0.0921, -0.1149 0.2953 -0.0894, -0.1149 0.2953 -0.0894, -0.1063 0.2953 -0.0893, -0.1063 0.2953 -0.0893, -0.111 0.2953 -0.0893, -0.1064 0.2953 -0.0816, -0.1064 0.2953 -0.0816, -0.1157 0.2953 -0.0817, -0.1157 0.2953 -0.0817, -0.111 0.2953 -0.0816, -0.1157 0.2953 -0.0789, -0.1157 0.2953 -0.0789, -0.1033 0.2953 -0.0788, -0.1033 0.2953 -0.0788, -0.111 0.2953 -0.0789, -0.1031 0.2953 -0.1028, -0.1031 0.2953 -0.1028, -0.111 0.2953 -0.1029, -0.1365 0.2953 -0.0997, -0.1341 0.2953 -0.0981, -0.134 0.2953 -0.1015, -0.1325 0.2953 -0.0991, -0.1313 0.2953 -0.1026, -0.1305 0.2953 -0.0999, -0.1272 0.2953 -0.103, -0.1272 0.2953 -0.1003, -0.1206 0.2953 -0.103, -0.1237 0.2953 -0.1003, -0.1208 0.2953 -0.079, -0.1238 0.2953 -0.0817, -0.1276 0.2953 -0.079, -0.1275 0.2953 -0.0818, -0.1277 0.2953 -0.0818, -0.1313 0.2953 -0.0794, -0.1308 0.2953 -0.0822, -0.1342 0.2953 -0.0805, -0.1328 0.2953 -0.083, -0.1367 0.2953 -0.0822, -0.1344 0.2953 -0.0841, -0.1375 0.2953 -0.0831, -0.135 0.2953 -0.0847, -0.139 0.2953 -0.0852, -0.136 0.2953 -0.0861, -0.1399 0.2953 -0.0875, -0.1366 0.2953 -0.0878, -0.1402 0.2953 -0.0908, -0.137 0.2953 -0.0909, -0.1401 0.2953 -0.0923, -0.1369 0.2953 -0.0925, -0.1395 0.2953 -0.0951, -0.1364 0.2953 -0.0947, -0.1383 0.2953 -0.0976, -0.1355 0.2953 -0.0964, -0.1344 0.2953 -0.0978, -0.1272 0.2953 -0.103, -0.1206 0.2953 -0.103, -0.1313 0.2953 -0.1026, -0.134 0.2953 -0.1015, -0.1365 0.2953 -0.0997, -0.1383 0.2953 -0.0976, -0.1395 0.2953 -0.0951, -0.1401 0.2953 -0.0923, -0.1402 0.2953 -0.0908, -0.1399 0.2953 -0.0875, -0.139 0.2953 -0.0852, -0.1375 0.2953 -0.0831, -0.1367 0.2953 -0.0822, -0.1342 0.2953 -0.0805, -0.1313 0.2953 -0.0794, -0.1276 0.2953 -0.079, -0.1208 0.2953 -0.079, -0.1275 0.2953 -0.0818, -0.1238 0.2953 -0.0817, -0.1237 0.2953 -0.1003, -0.1272 0.2953 -0.1003, -0.1344 0.2953 -0.0978, -0.1341 0.2953 -0.0981, -0.1325 0.2953 -0.0991, -0.1305 0.2953 -0.0999, -0.137 0.2953 -0.0909, -0.1369 0.2953 -0.0925, -0.1364 0.2953 -0.0947, -0.1355 0.2953 -0.0964, -0.1344 0.2953 -0.0841, -0.135 0.2953 -0.0847, -0.136 0.2953 -0.0861, -0.1366 0.2953 -0.0878, -0.1277 0.2953 -0.0818, -0.1308 0.2953 -0.0822, -0.1328 0.2953 -0.083
            ]
        }
        coordIndex [
            0,1,2,-1,3,4,5,-1,3,5,6,-1,6,5,7,-1,6,7,2,-1,2,7,8,-1,2,8,0,-1,9,1,10,-1,10,1,0,-1,9,10,11,-1,9,11,12,-1,12,11,13,-1,12,13,14,-1,14,13,15,-1,14,15,16,-1,14,16,17,-1,14,17,18,-1,17,19,18,-1,18,19,20,-1,18,20,21,-1,21,20,22,-1,21,22,23,-1,23,22,24,-1,23,24,25,-1,25,24,26,-1,25,26,27,-1,27,26,28,-1,27,28,29,-1,29,28,30,-1,29,30,31,-1,31,30,32,-1,31,32,33,-1,33,32,34,-1,33,34,35,-1,35,34,36,-1,35,36,37,-1,37,36,38,-1,37,38,39,-1,39,38,40,-1,39,40,41,-1,41,40,42,-1,41,42,43,-1,43,42,44,-1,43,44,45,-1,45,44,46,-1,45,46,47,-1,47,46,48,-1,47,48,49,-1,49,48,50,-1,49,50,51,-1,51,50,52,-1,51,52,53,-1,53,52,54,-1,53,54,55,-1,55,54,56,-1,55,56,57,-1,57,56,58,-1,57,58,59,-1,59,58,60,-1,59,60,61,-1,61,60,62,-1,61,62,63,-1,63,62,64,-1,63,64,65,-1,65,64,66,-1,65,66,67,-1,67,66,68,-1,67,68,69,-1,69,68,70,-1,69,70,71,-1,71,70,72,-1,71,72,73,-1,73,72,74,-1,73,74,75,-1,76,75,77,-1,77,75,74,-1,76,77,78,-1,76,78,79,-1,79,78,80,-1,79,80,81,-1,81,80,82,-1,81,82,83,-1,83,82,84,-1,83,84,85,-1,85,84,86,-1,85,86,87,-1,88,87,89,-1,89,87,86,-1,89,90,88,-1,88,90,91,-1,88,91,92,-1,92,91,93,-1,92,93,94,-1,94,93,95,-1,94,95,96,-1,96,95,97,-1,96,97,98,-1,98,97,99,-1,98,99,100,-1,100,99,101,-1,100,101,102,-1,103,104,105,-1,102,101,106,-1,102,106,107,-1,107,106,108,-1,107,108,105,-1,105,108,109,-1,105,109,103,-1,104,103,110,-1,104,110,111,-1,111,110,112,-1,111,112,113,-1,113,112,114,-1,113,114,115,-1,115,114,116,-1,115,116,117,-1,117,116,118,-1,117,118,119,-1,119,118,120,-1,119,120,121,-1,121,120,122,-1,121,122,123,-1,123,122,124,-1,123,124,125,-1,125,124,126,-1,125,126,127,-1,127,126,128,-1,127,128,129,-1,129,128,130,-1,129,130,131,-1,131,130,132,-1,131,132,133,-1,133,132,134,-1,133,134,135,-1,135,134,4,-1,135,4,3,-1,61,63,85,-1,85,63,83,-1,111,43,104,-1,104,43,45,-1,21,23,127,-1,127,23,25,-1,127,25,125,-1,125,25,27,-1,125,27,123,-1,123,27,29,-1,123,29,121,-1,121,29,31,-1,121,31,119,-1,119,31,33,-1,119,33,117,-1,117,33,35,-1,117,35,115,-1,115,35,37,-1,115,37,113,-1,113,37,39,-1,113,39,111,-1,111,39,41,-1,111,41,43,-1,14,3,12,-1,12,3,6,-1,12,6,9,-1,9,6,2,-1,9,2,1,-1,63,65,83,-1,83,65,67,-1,83,67,81,-1,81,67,69,-1,81,69,79,-1,79,69,71,-1,79,71,76,-1,76,71,73,-1,76,73,75,-1,127,129,21,-1,21,129,131,-1,21,131,18,-1,18,131,133,-1,18,133,14,-1,14,133,135,-1,14,135,3,-1,85,87,61,-1,61,87,88,-1,61,88,59,-1,59,88,92,-1,59,92,57,-1,57,92,94,-1,57,94,55,-1,55,94,96,-1,55,96,53,-1,53,96,98,-1,53,98,51,-1,51,98,100,-1,51,100,49,-1,49,100,102,-1,49,102,47,-1,47,102,107,-1,47,107,45,-1,45,107,105,-1,45,105,104,-1,136,137,138,-1,138,137,139,-1,140,136,141,-1,141,136,138,-1,140,141,142,-1,140,142,143,-1,143,142,144,-1,143,144,145,-1,146,145,147,-1,147,145,144,-1,148,146,149,-1,149,146,147,-1,150,151,152,-1,152,151,148,-1,152,148,149,-1,153,151,154,-1,154,151,150,-1,155,156,157,-1,157,156,153,-1,157,153,154,-1,158,159,160,-1,160,159,156,-1,160,156,155,-1,159,158,161,-1,159,161,162,-1,161,163,162,-1,162,163,164,-1,162,164,165,-1,164,166,165,-1,165,166,167,-1,165,167,168,-1,168,167,169,-1,168,169,170,-1,170,169,171,-1,170,171,172,-1,172,171,173,-1,172,173,174,-1,174,173,175,-1,174,175,176,-1,177,176,178,-1,178,176,175,-1,177,178,179,-1,177,179,180,-1,180,179,181,-1,180,181,182,-1,182,181,183,-1,182,183,184,-1,184,183,185,-1,184,185,186,-1,186,185,187,-1,186,187,188,-1,189,190,191,-1,191,190,192,-1,191,192,193,-1,193,192,194,-1,193,194,195,-1,195,194,188,-1,195,188,196,-1,196,188,187,-1,139,137,197,-1,197,137,190,-1,197,190,189,-1,143,145,190,-1,137,136,190,-1,190,136,140,-1,190,140,143,-1,151,153,148,-1,148,153,156,-1,148,156,146,-1,176,177,174,-1,174,177,180,-1,174,180,172,-1,172,180,182,-1,172,182,170,-1,170,182,184,-1,170,184,168,-1,168,184,186,-1,168,186,165,-1,145,146,190,-1,190,146,156,-1,190,156,192,-1,156,159,192,-1,192,159,162,-1,192,162,194,-1,194,162,165,-1,194,165,188,-1,188,165,186,-1,198,199,200,-1,200,199,201,-1,202,203,204,-1,204,203,198,-1,204,198,200,-1,205,203,206,-1,206,203,202,-1,207,208,209,-1,209,208,205,-1,209,205,206,-1,210,208,211,-1,211,208,207,-1,212,213,214,-1,214,213,210,-1,214,210,211,-1,215,213,216,-1,216,213,212,-1,217,218,219,-1,219,218,215,-1,219,215,216,-1,220,218,221,-1,221,218,217,-1,222,223,224,-1,224,223,220,-1,224,220,221,-1,225,223,226,-1,226,223,222,-1,201,199,227,-1,227,199,225,-1,227,225,226,-1,225,199,198,-1,198,203,225,-1,225,203,205,-1,225,205,223,-1,218,220,215,-1,215,220,223,-1,215,223,213,-1,213,223,205,-1,213,205,210,-1,210,205,208,-1,228,229,230,-1,230,229,231,-1,230,231,232,-1,232,231,233,-1,232,233,234,-1,234,233,235,-1,234,235,236,-1,236,235,237,-1,236,237,238,-1,238,237,239,-1,238,239,240,-1,239,241,240,-1,240,241,242,-1,240,242,243,-1,243,242,244,-1,243,244,245,-1,245,244,246,-1,245,246,247,-1,247,246,248,-1,247,248,249,-1,249,248,250,-1,249,250,251,-1,251,250,252,-1,251,252,253,-1,253,252,254,-1,253,254,255,-1,255,254,256,-1,255,256,257,-1,257,256,258,-1,257,258,259,-1,259,258,260,-1,259,260,261,-1,261,260,262,-1,261,262,228,-1,228,262,263,-1,228,263,229,-1,234,236,264,-1,264,236,265,-1,234,264,266,-1,234,266,232,-1,232,266,267,-1,232,267,230,-1,230,267,268,-1,230,268,228,-1,228,268,269,-1,228,269,261,-1,261,269,270,-1,261,270,259,-1,259,270,271,-1,259,271,257,-1,257,271,272,-1,257,272,255,-1,255,272,273,-1,255,273,253,-1,253,273,274,-1,253,274,251,-1,251,274,275,-1,251,275,249,-1,249,275,276,-1,249,276,247,-1,247,276,277,-1,247,277,245,-1,245,277,278,-1,245,278,243,-1,243,278,279,-1,243,279,240,-1,238,240,280,-1,280,240,279,-1,236,238,265,-1,265,238,280,-1,241,239,281,-1,281,239,282,-1,239,237,282,-1,282,237,283,-1,237,235,283,-1,283,235,284,-1,263,285,286,-1,263,286,229,-1,229,286,287,-1,229,287,231,-1,231,287,288,-1,231,288,233,-1,233,288,284,-1,233,284,235,-1,256,289,290,-1,256,290,258,-1,258,290,291,-1,258,291,260,-1,260,291,292,-1,260,292,262,-1,262,292,285,-1,262,285,263,-1,248,293,294,-1,248,294,250,-1,250,294,295,-1,250,295,252,-1,252,295,296,-1,252,296,254,-1,254,296,289,-1,254,289,256,-1,241,281,297,-1,241,297,242,-1,242,297,298,-1,242,298,244,-1,244,298,299,-1,244,299,246,-1,246,299,293,-1,246,293,248,-1,
        ]
    }
}
Shape{
    appearance Appearance {
        material  Material 	{
            diffuseColor 1.0 1.0 1.0
            specularColor 0.5019607843137255 0.5019607843137255 0.5019607843137255
            ambientIntensity 1.0
            transparency 0.0
            shininess 0.5
        }
    }
    geometry IndexedFaceSet {
        ccw TRUE
        solid FALSE
        coord DEF co Coordinate {
            point [
                -0.1325 0.2953 -0.0991, -0.1341 0.2953 -0.0981, -0.1277 0.2953 -0.0818, -0.1238 0.2953 -0.0817, -0.1237 0.2953 -0.1003, -0.1275 0.2953 -0.0818, -0.1272 0.2953 -0.1003, -0.1305 0.2953 -0.0999, -0.1344 0.2953 -0.0978, -0.1355 0.2953 -0.0964, -0.1364 0.2953 -0.0947, -0.137 0.2953 -0.0909, -0.1344 0.2953 -0.0841, -0.1328 0.2953 -0.083, -0.1366 0.2953 -0.0878, -0.136 0.2953 -0.0861, -0.135 0.2953 -0.0847, -0.1369 0.2953 -0.0925, -0.1308 0.2953 -0.0822
            ]
        }
        coordIndex [
            0,1,2,-1,3,4,5,-1,5,4,6,-1,5,6,2,-1,2,6,7,-1,2,7,0,-1,1,8,2,-1,2,8,9,-1,2,9,10,-1,11,12,13,-1,14,15,11,-1,11,15,16,-1,11,16,12,-1,10,17,2,-1,2,17,11,-1,2,11,18,-1,18,11,13,-1,
        ]
    }
}
Shape{
    appearance Appearance {
        material  Material 	{
            diffuseColor 0.0 0.0 0.0
            specularColor 0.0 0.0 0.0
            ambientIntensity 0.0
            transparency 0.0
            shininess 0.5
        }
    }
    geometry IndexedFaceSet {
        ccw TRUE
        solid FALSE
        coord DEF co Coordinate {
            point [
                -0.1483 0.2953 -0.0939, -0.1519 0.2953 -0.0839, -0.1508 0.2953 -0.0792, -0.1415 0.2953 -0.1031, -0.1449 0.2953 -0.1031, -0.1473 0.2953 -0.0966, -0.1521 0.2953 -0.0832, -0.1523 0.2953 -0.0822, -0.1541 0.2953 -0.0792, -0.1524 0.2953 -0.0822, -0.1526 0.2953 -0.0833, -0.1528 0.2953 -0.0839, -0.1563 0.2953 -0.0939, -0.1631 0.2953 -0.1033, -0.1597 0.2953 -0.1032, -0.1573 0.2953 -0.0967, -0.1541 0.2953 -0.0792, -0.163 0.2953 -0.103, -0.1631 0.2953 -0.1033, -0.1508 0.2953 -0.0792, -0.1415 0.2953 -0.103, -0.1415 0.2953 -0.1031, -0.1449 0.2953 -0.1031, -0.1473 0.2953 -0.0966, -0.1449 0.2953 -0.103, -0.1573 0.2953 -0.0967, -0.1597 0.2953 -0.1032, -0.1596 0.2953 -0.103, -0.1483 0.2953 -0.0939, -0.1563 0.2953 -0.0939, -0.1528 0.2953 -0.0839, -0.1524 0.2953 -0.0822, -0.1526 0.2953 -0.0833, -0.1523 0.2953 -0.0822, -0.1519 0.2953 -0.0839, -0.1521 0.2953 -0.0832
            ]
        }
        coordIndex [
            0,1,2,-1,3,4,5,-1,1,6,2,-1,2,6,7,-1,2,7,8,-1,8,7,9,-1,8,9,10,-1,10,11,8,-1,8,11,12,-1,8,12,13,-1,14,13,15,-1,15,13,12,-1,15,12,5,-1,5,12,0,-1,5,0,3,-1,3,0,2,-1,16,8,17,-1,17,8,13,-1,17,13,18,-1,2,8,19,-1,19,8,16,-1,2,19,3,-1,3,19,20,-1,3,20,21,-1,4,3,22,-1,22,3,21,-1,23,5,24,-1,24,5,4,-1,24,4,22,-1,15,5,25,-1,25,5,23,-1,26,14,27,-1,27,14,15,-1,27,15,25,-1,13,14,18,-1,18,14,26,-1,0,12,28,-1,28,12,29,-1,12,11,29,-1,29,11,30,-1,9,31,32,-1,9,32,10,-1,10,32,30,-1,10,30,11,-1,9,7,31,-1,31,7,33,-1,1,34,35,-1,1,35,6,-1,6,35,33,-1,6,33,7,-1,1,0,34,-1,34,0,28,-1,
        ]
    }
}
Shape{
    appearance Appearance {
        material  Material 	{
            diffuseColor 1.0 1.0 1.0
            specularColor 0.5019607843137255 0.5019607843137255 0.5019607843137255
            ambientIntensity 1.0
            transparency 0.0
            shininess 0.5
        }
    }
    geometry IndexedFaceSet {
        ccw TRUE
        solid FALSE
        coord DEF co Coordinate {
            point [
                -0.1524 0.2953 -0.0822, -0.1523 0.2953 -0.0822, -0.1526 0.2953 -0.0833, -0.1521 0.2953 -0.0832, -0.1528 0.2953 -0.0839, -0.1519 0.2953 -0.0839, -0.1563 0.2953 -0.0939, -0.1483 0.2953 -0.0939
            ]
        }
        coordIndex [
            0,1,2,-1,2,1,3,-1,2,3,4,-1,4,3,5,-1,4,5,6,-1,6,5,7,-1,
        ]
    }
}
Shape{
    appearance Appearance {
        material  Material 	{
            diffuseColor 0.0 0.0 0.0
            specularColor 0.0 0.0 0.0
            ambientIntensity 0.0
            transparency 0.0
            shininess 0.5
        }
    }
    geometry IndexedFaceSet {
        ccw TRUE
        solid FALSE
        coord DEF co Coordinate {
            point [
                0.0695 0.2953 -0.105, 0.067 0.2953 -0.1082, 0.0709 0.2953 -0.0899, 0.0138 0.2953 -0.0819, 0.0191 0.2953 -0.0729, 0.042 0.2953 -0.0847, 0.0539 0.2953 -0.0896, 0.0523 0.2953 -0.0901, 0.0737 0.2953 -0.0602, 0.0699 0.2953 -0.0582, 0.0707 0.2953 -0.0477, 0.06 0.2953 -0.0473, 0.0548 0.2953 -0.0598, 0.0522 0.2953 -0.0544, 0.0746 0.2953 -0.0876, 0.0734 0.2953 -0.1007, 0.0712 0.2953 -0.1014, 0.064 0.2953 -0.0469, 0.0509 0.2953 -0.091, 0.0497 0.2953 -0.0922, 0.0378 0.2953 -0.0944, 0.0489 0.2953 -0.0936, 0.0485 0.2953 -0.0952, 0.0378 0.2953 -0.0961, 0.0485 0.2953 -0.0968, 0.0567 0.2953 -0.0897, 0.0589 0.2953 -0.0792, 0.0582 0.2953 -0.0903, 0.0627 0.2953 -0.0806, 0.0595 0.2953 -0.0912, 0.0662 0.2953 -0.083, 0.0604 0.2953 -0.0921, 0.069 0.2953 -0.0863, 0.0612 0.2953 -0.0935, 0.0617 0.2953 -0.0952, 0.0486 0.2953 -0.0799, 0.0527 0.2953 -0.0789, 0.0548 0.2953 -0.0788, 0.0081 0.2953 -0.0651, 0.0067 0.2953 -0.0651, -0.0004 0.2953 -0.0559, 0.0035 0.2953 -0.0655, -0.0012 0.2953 -0.0562, 0.0005 0.2953 -0.0667, -0.0063 0.2953 -0.0588, -0.0109 0.2953 -0.0627, 0.0565 0.2953 -0.0432, 0.0483 0.2953 -0.0499, 0.0525 0.2953 -0.0398, 0.0437 0.2953 -0.0465, 0.0475 0.2953 -0.0369, 0.0656 0.2953 -0.0572, 0.0639 0.2953 -0.0572, 0.062 0.2953 -0.047, 0.0599 0.2953 -0.0577, 0.0561 0.2953 -0.0591, 0.0596 0.2953 -0.1011, 0.0582 0.2953 -0.102, 0.0637 0.2953 -0.1107, 0.0567 0.2953 -0.1026, -0.0107 0.2953 -0.0946, -0.0028 0.2953 -0.0878, -0.006 0.2953 -0.0985, -0.0002 0.2953 -0.0898, -0.0008 0.2953 -0.101, 0.0028 0.2953 -0.0912, 0.0049 0.2953 -0.1022, 0.0059 0.2953 -0.0917, 0.015 0.2953 -0.1021, 0.0136 0.2953 -0.0917, 0.016 0.2953 -0.1019, 0.055 0.2953 -0.0895, 0.045 0.2953 -0.0819, -0.0021 0.2953 -0.0686, -0.0041 0.2953 -0.0708, -0.0143 0.2953 -0.0676, -0.0057 0.2953 -0.0737, -0.0164 0.2953 -0.0728, -0.0064 0.2953 -0.077, -0.0171 0.2953 -0.0784, -0.0065 0.2953 -0.0785, -0.0163 0.2953 -0.0845, -0.0061 0.2953 -0.0818, -0.0141 0.2953 -0.0899, -0.0049 0.2953 -0.0849, -0.003 0.2953 -0.0875, 0.0088 0.2953 -0.0424, 0.0155 0.2953 -0.0502, 0.0029 0.2953 -0.0494, 0.0117 0.2953 -0.0548, 0.0091 0.2953 -0.0603, 0.0805 0.2953 -0.07, 0.0918 0.2953 -0.0727, 0.0811 0.2953 -0.0741, 0.0918 0.2953 -0.0744, 0.0809 0.2953 -0.0768, 0.0911 0.2953 -0.0811, 0.0797 0.2953 -0.0809, 0.0887 0.2953 -0.0875, 0.0777 0.2953 -0.0844, 0.0848 0.2953 -0.0931, 0.0795 0.2953 -0.0976, 0.0607 0.2953 -0.0998, 0.0614 0.2953 -0.0984, 0.0617 0.2953 -0.0968, 0.0396 0.2953 -0.0341, 0.0381 0.2953 -0.0443, 0.0319 0.2953 -0.0333, 0.0318 0.2953 -0.0436, 0.0238 0.2953 -0.0344, 0.0261 0.2953 -0.0443, 0.0153 0.2953 -0.0377, 0.0207 0.2953 -0.0464, 0.0159 0.2953 -0.0498, 0.077 0.2953 -0.0501, 0.0825 0.2953 -0.0539, 0.0767 0.2953 -0.0628, 0.0837 0.2953 -0.055, 0.079 0.2953 -0.0662, 0.0878 0.2953 -0.0602, 0.0906 0.2953 -0.0663, 0.0597 0.2953 -0.1124, 0.0557 0.2953 -0.1131, 0.0551 0.2953 -0.1028, 0.055 0.2953 -0.1131, 0.0535 0.2953 -0.1026, 0.0509 0.2953 -0.1126, 0.052 0.2953 -0.1021, 0.0471 0.2953 -0.1112, 0.0507 0.2953 -0.1012, 0.0437 0.2953 -0.1088, 0.0496 0.2953 -0.1, 0.041 0.2953 -0.1059, 0.0488 0.2953 -0.0985, 0.039 0.2953 -0.1021, 0.038 0.2953 -0.0979, 0.0144 0.2953 -0.0915, 0.0186 0.2953 -0.1003, 0.0182 0.2953 -0.1007, 0.0139 0.2953 -0.0916, 0.0171 0.2953 -0.1015, 0.0199 0.2953 -0.0968, 0.0198 0.2953 -0.098, 0.0193 0.2953 -0.0992, 0.0159 0.2953 -0.0917, 0.0171 0.2953 -0.0921, 0.0199 0.2953 -0.0961, 0.0181 0.2953 -0.0929, 0.0189 0.2953 -0.0936, 0.0195 0.2953 -0.0948, 0.0146 0.2953 -0.0915, -0.0171 0.2953 -0.0784, -0.0164 0.2953 -0.0728, -0.0123 0.2953 -0.0648, -0.0159 0.2953 -0.0717, -0.0143 0.2953 -0.0676, -0.0109 0.2953 -0.0627, -0.0063 0.2953 -0.0588, -0.0012 0.2953 -0.0562, -0.0004 0.2953 -0.0559, 0.0029 0.2953 -0.0494, 0.0088 0.2953 -0.0424, 0.0116 0.2953 -0.0404, 0.0153 0.2953 -0.0377, 0.0238 0.2953 -0.0344, 0.0319 0.2953 -0.0333, 0.0396 0.2953 -0.0341, 0.0475 0.2953 -0.0369, 0.0525 0.2953 -0.0398, 0.06 0.2953 -0.0473, 0.0531 0.2953 -0.0404, 0.0565 0.2953 -0.0432, 0.062 0.2953 -0.047, 0.064 0.2953 -0.0469, 0.0707 0.2953 -0.0477, 0.077 0.2953 -0.0501, 0.0825 0.2953 -0.0539, 0.0837 0.2953 -0.055, 0.0918 0.2953 -0.0744, 0.0878 0.2953 -0.0602, 0.0899 0.2953 -0.0648, 0.0906 0.2953 -0.0663, 0.0916 0.2953 -0.0717, 0.0918 0.2953 -0.0727, 0.0911 0.2953 -0.0811, 0.0887 0.2953 -0.0875, 0.0848 0.2953 -0.0931, 0.0795 0.2953 -0.0976, 0.0734 0.2953 -0.1007, 0.0712 0.2953 -0.1014, 0.0704 0.2953 -0.103, 0.0679 0.2953 -0.107, 0.0695 0.2953 -0.105, 0.067 0.2953 -0.1082, 0.0637 0.2953 -0.1107, 0.0597 0.2953 -0.1124, 0.0557 0.2953 -0.1131, 0.055 0.2953 -0.1131, 0.0509 0.2953 -0.1126, 0.0395 0.2953 -0.103, 0.0471 0.2953 -0.1112, 0.0437 0.2953 -0.1088, 0.0421 0.2953 -0.107, 0.041 0.2953 -0.1059, 0.039 0.2953 -0.1021, 0.038 0.2953 -0.0979, 0.0378 0.2953 -0.0961, 0.0378 0.2953 -0.0944, 0.0138 0.2953 -0.0819, 0.0191 0.2953 -0.0729, 0.042 0.2953 -0.0847, 0.045 0.2953 -0.0819, 0.0486 0.2953 -0.0799, 0.0527 0.2953 -0.0789, 0.0548 0.2953 -0.0788, 0.0589 0.2953 -0.0792, 0.0627 0.2953 -0.0806, 0.0662 0.2953 -0.083, 0.069 0.2953 -0.0863, 0.0709 0.2953 -0.0899, 0.0746 0.2953 -0.0876, 0.0777 0.2953 -0.0844, 0.0797 0.2953 -0.0809, 0.0809 0.2953 -0.0768, 0.0811 0.2953 -0.0741, 0.0807 0.2953 -0.0717, 0.0805 0.2953 -0.07, 0.079 0.2953 -0.0662, 0.078 0.2953 -0.0648, 0.0767 0.2953 -0.0628, 0.0737 0.2953 -0.0602, 0.0699 0.2953 -0.0582, 0.0656 0.2953 -0.0572, 0.0639 0.2953 -0.0572, 0.0599 0.2953 -0.0577, 0.0561 0.2953 -0.0591, 0.0548 0.2953 -0.0598, 0.0522 0.2953 -0.0544, 0.0483 0.2953 -0.0499, 0.0437 0.2953 -0.0465, 0.0381 0.2953 -0.0443, 0.0318 0.2953 -0.0436, 0.0081 0.2953 -0.0651, 0.0081 0.2953 -0.0648, 0.0091 0.2953 -0.0603, 0.0117 0.2953 -0.0548, 0.0155 0.2953 -0.0502, 0.0159 0.2953 -0.0498, 0.0207 0.2953 -0.0464, 0.0261 0.2953 -0.0443, 0.0067 0.2953 -0.0651, 0.0035 0.2953 -0.0655, 0.0005 0.2953 -0.0667, -0.0021 0.2953 -0.0686, -0.0041 0.2953 -0.0708, -0.0046 0.2953 -0.0717, -0.0057 0.2953 -0.0737, -0.0064 0.2953 -0.077, -0.0065 0.2953 -0.0785, -0.0061 0.2953 -0.0818, -0.0049 0.2953 -0.0849, -0.003 0.2953 -0.0875, -0.0028 0.2953 -0.0878, -0.0002 0.2953 -0.0898, 0.0028 0.2953 -0.0912, 0.0059 0.2953 -0.0917, 0.0136 0.2953 -0.0917, 0.0139 0.2953 -0.0916, 0.0144 0.2953 -0.0915, 0.0146 0.2953 -0.0915, 0.0159 0.2953 -0.0917, 0.0171 0.2953 -0.0921, 0.0181 0.2953 -0.0929, 0.0189 0.2953 -0.0936, 0.0195 0.2953 -0.0948, 0.0199 0.2953 -0.0961, 0.0199 0.2953 -0.0968, 0.0198 0.2953 -0.098, 0.0193 0.2953 -0.0992, 0.0186 0.2953 -0.1003, 0.0182 0.2953 -0.1007, 0.0171 0.2953 -0.1015, 0.016 0.2953 -0.1019, 0.015 0.2953 -0.1021, 0.0049 0.2953 -0.1022, -0.0008 0.2953 -0.101, -0.006 0.2953 -0.0985, -0.0107 0.2953 -0.0946, -0.0141 0.2953 -0.0899, -0.0163 0.2953 -0.0845, 0.055 0.2953 -0.0895, 0.0539 0.2953 -0.0896, 0.0523 0.2953 -0.0901, 0.0509 0.2953 -0.091, 0.0497 0.2953 -0.0922, 0.0489 0.2953 -0.0936, 0.0485 0.2953 -0.0952, 0.0485 0.2953 -0.0968, 0.0488 0.2953 -0.0985, 0.0496 0.2953 -0.1, 0.0507 0.2953 -0.1012, 0.052 0.2953 -0.1021, 0.0535 0.2953 -0.1026, 0.0551 0.2953 -0.1028, 0.0567 0.2953 -0.1026, 0.0582 0.2953 -0.102, 0.0596 0.2953 -0.1011, 0.0607 0.2953 -0.0998, 0.0614 0.2953 -0.0984, 0.0617 0.2953 -0.0968, 0.0617 0.2953 -0.0952, 0.0612 0.2953 -0.0935, 0.0604 0.2953 -0.0921, 0.0595 0.2953 -0.0912, 0.0582 0.2953 -0.0903, 0.0567 0.2953 -0.0897
            ]
        }
        coordIndex [
            0,1,2,-1,3,4,5,-1,6,7,3,-1,8,9,10,-1,11,12,13,-1,14,15,2,-1,2,15,16,-1,2,16,0,-1,10,9,17,-1,7,18,3,-1,3,18,19,-1,3,19,20,-1,19,21,20,-1,20,21,22,-1,20,22,23,-1,23,22,24,-1,25,26,27,-1,27,26,28,-1,27,28,29,-1,29,28,30,-1,29,30,31,-1,31,30,32,-1,31,32,33,-1,33,32,2,-1,33,2,34,-1,35,36,25,-1,25,36,37,-1,25,37,26,-1,38,39,40,-1,40,39,41,-1,40,41,42,-1,42,41,43,-1,42,43,44,-1,44,43,45,-1,11,13,46,-1,46,13,47,-1,46,47,48,-1,48,47,49,-1,48,49,50,-1,9,51,17,-1,17,51,52,-1,17,52,53,-1,53,52,54,-1,53,54,11,-1,11,54,55,-1,11,55,12,-1,56,1,57,-1,57,1,58,-1,57,58,59,-1,60,61,62,-1,62,61,63,-1,62,63,64,-1,64,63,65,-1,64,65,66,-1,66,65,67,-1,66,67,68,-1,68,67,69,-1,68,69,70,-1,6,3,71,-1,71,3,5,-1,71,5,25,-1,25,5,72,-1,25,72,35,-1,43,73,45,-1,45,73,74,-1,45,74,75,-1,75,74,76,-1,75,76,77,-1,77,76,78,-1,77,78,79,-1,79,78,80,-1,79,80,81,-1,81,80,82,-1,81,82,83,-1,83,82,84,-1,83,84,60,-1,60,84,85,-1,60,85,61,-1,86,87,88,-1,88,87,89,-1,88,89,40,-1,40,89,90,-1,40,90,38,-1,91,92,93,-1,93,92,94,-1,93,94,95,-1,95,94,96,-1,95,96,97,-1,97,96,98,-1,97,98,99,-1,99,98,100,-1,99,100,14,-1,14,100,101,-1,14,101,15,-1,56,102,1,-1,1,102,103,-1,1,103,2,-1,2,103,104,-1,2,104,34,-1,50,49,105,-1,105,49,106,-1,105,106,107,-1,107,106,108,-1,107,108,109,-1,109,108,110,-1,109,110,111,-1,111,110,112,-1,111,112,86,-1,86,112,113,-1,86,113,87,-1,10,114,8,-1,8,114,115,-1,8,115,116,-1,116,115,117,-1,116,117,118,-1,118,117,119,-1,118,119,91,-1,91,119,120,-1,91,120,92,-1,58,121,59,-1,59,121,122,-1,59,122,123,-1,123,122,124,-1,123,124,125,-1,125,124,126,-1,125,126,127,-1,127,126,128,-1,127,128,129,-1,129,128,130,-1,129,130,131,-1,131,130,132,-1,131,132,133,-1,133,132,134,-1,133,134,24,-1,24,134,135,-1,24,135,23,-1,136,137,138,-1,69,139,70,-1,70,139,136,-1,70,136,140,-1,140,136,138,-1,141,142,136,-1,136,142,143,-1,136,143,137,-1,144,145,146,-1,145,147,146,-1,146,147,148,-1,146,148,149,-1,141,136,146,-1,146,136,150,-1,146,150,144,-1,79,151,152,-1,153,45,75,-1,79,152,77,-1,77,152,154,-1,77,154,75,-1,75,154,155,-1,75,155,153,-1,153,156,45,-1,45,156,157,-1,45,157,44,-1,44,157,158,-1,44,158,42,-1,42,158,159,-1,42,159,40,-1,40,159,160,-1,40,160,88,-1,88,160,161,-1,88,161,86,-1,86,161,162,-1,86,162,111,-1,162,163,111,-1,111,163,164,-1,111,164,109,-1,109,164,165,-1,109,165,107,-1,107,165,166,-1,107,166,105,-1,105,166,167,-1,105,167,50,-1,50,167,168,-1,50,168,48,-1,169,11,46,-1,48,168,170,-1,48,170,46,-1,46,170,171,-1,46,171,169,-1,11,169,172,-1,11,172,53,-1,53,172,173,-1,53,173,17,-1,17,173,174,-1,17,174,10,-1,10,174,175,-1,10,175,114,-1,114,175,176,-1,114,176,115,-1,115,176,177,-1,115,177,117,-1,178,94,92,-1,117,177,179,-1,117,179,119,-1,119,179,180,-1,119,180,120,-1,180,181,120,-1,120,181,182,-1,120,182,92,-1,92,182,183,-1,92,183,178,-1,94,178,184,-1,94,184,96,-1,96,184,185,-1,96,185,98,-1,98,185,186,-1,98,186,100,-1,100,186,187,-1,100,187,101,-1,101,187,188,-1,101,188,15,-1,15,188,189,-1,15,189,16,-1,16,189,190,-1,191,1,0,-1,16,190,0,-1,0,190,192,-1,0,192,191,-1,191,193,1,-1,1,193,194,-1,1,194,58,-1,58,194,195,-1,58,195,121,-1,121,195,196,-1,121,196,122,-1,122,196,197,-1,122,197,124,-1,124,197,198,-1,199,134,132,-1,124,198,126,-1,126,198,200,-1,126,200,128,-1,128,200,201,-1,128,201,130,-1,130,201,202,-1,130,202,132,-1,132,202,203,-1,132,203,199,-1,199,204,134,-1,134,204,205,-1,134,205,135,-1,135,205,206,-1,135,206,23,-1,20,23,207,-1,207,23,206,-1,3,20,208,-1,208,20,207,-1,4,3,209,-1,209,3,208,-1,5,4,210,-1,210,4,209,-1,5,210,211,-1,5,211,72,-1,72,211,212,-1,72,212,35,-1,35,212,213,-1,35,213,36,-1,36,213,214,-1,36,214,37,-1,37,214,215,-1,37,215,26,-1,26,215,216,-1,26,216,28,-1,28,216,217,-1,28,217,30,-1,30,217,218,-1,30,218,32,-1,32,218,219,-1,32,219,2,-1,2,219,220,-1,2,220,14,-1,14,220,221,-1,14,221,99,-1,99,221,222,-1,99,222,97,-1,97,222,223,-1,97,223,95,-1,95,223,224,-1,95,224,93,-1,91,93,225,-1,225,93,224,-1,225,226,91,-1,91,226,227,-1,91,227,118,-1,118,227,228,-1,118,228,116,-1,228,229,116,-1,116,229,230,-1,116,230,8,-1,8,230,231,-1,8,231,9,-1,9,231,232,-1,9,232,51,-1,51,232,233,-1,51,233,52,-1,52,233,234,-1,52,234,54,-1,54,234,235,-1,54,235,55,-1,55,235,236,-1,55,236,12,-1,12,236,237,-1,12,237,13,-1,13,237,238,-1,13,238,47,-1,47,238,239,-1,47,239,49,-1,49,239,240,-1,49,240,106,-1,106,240,241,-1,106,241,108,-1,242,38,243,-1,243,38,90,-1,243,90,244,-1,244,90,89,-1,244,89,245,-1,245,89,87,-1,245,87,246,-1,246,87,113,-1,246,113,247,-1,247,113,112,-1,247,112,248,-1,248,112,110,-1,248,110,249,-1,249,110,108,-1,249,108,241,-1,39,38,250,-1,250,38,242,-1,39,250,251,-1,39,251,41,-1,41,251,252,-1,41,252,43,-1,43,252,253,-1,43,253,73,-1,73,253,254,-1,73,254,74,-1,74,254,255,-1,74,255,76,-1,255,256,76,-1,76,256,257,-1,76,257,78,-1,78,257,258,-1,78,258,80,-1,80,258,259,-1,80,259,82,-1,82,259,260,-1,82,260,84,-1,84,260,261,-1,84,261,85,-1,85,261,262,-1,85,262,61,-1,61,262,263,-1,61,263,63,-1,63,263,264,-1,63,264,65,-1,65,264,265,-1,65,265,67,-1,69,67,266,-1,266,67,265,-1,69,266,267,-1,69,267,139,-1,139,267,268,-1,139,268,136,-1,136,268,269,-1,136,269,150,-1,150,269,270,-1,150,270,144,-1,144,270,271,-1,144,271,145,-1,145,271,272,-1,145,272,147,-1,147,272,273,-1,147,273,148,-1,148,273,274,-1,148,274,149,-1,149,274,275,-1,149,275,146,-1,146,275,276,-1,146,276,141,-1,141,276,277,-1,141,277,142,-1,142,277,278,-1,142,278,143,-1,143,278,279,-1,143,279,137,-1,137,279,280,-1,137,280,138,-1,138,280,281,-1,138,281,140,-1,140,281,282,-1,140,282,70,-1,70,282,283,-1,70,283,68,-1,66,68,284,-1,284,68,283,-1,66,284,285,-1,66,285,64,-1,64,285,286,-1,64,286,62,-1,62,286,287,-1,62,287,60,-1,60,287,288,-1,60,288,83,-1,83,288,289,-1,83,289,81,-1,81,289,151,-1,81,151,79,-1,71,290,291,-1,71,291,6,-1,6,291,292,-1,6,292,7,-1,7,292,293,-1,7,293,18,-1,18,293,294,-1,18,294,19,-1,19,294,295,-1,19,295,21,-1,21,295,296,-1,21,296,22,-1,22,296,297,-1,22,297,24,-1,24,297,298,-1,24,298,133,-1,133,298,299,-1,133,299,131,-1,131,299,300,-1,131,300,129,-1,129,300,301,-1,129,301,127,-1,127,301,302,-1,127,302,125,-1,125,302,303,-1,125,303,123,-1,123,303,304,-1,123,304,59,-1,59,304,305,-1,59,305,57,-1,57,305,306,-1,57,306,56,-1,56,306,307,-1,56,307,102,-1,102,307,308,-1,102,308,103,-1,103,308,309,-1,103,309,104,-1,104,309,310,-1,104,310,34,-1,34,310,311,-1,34,311,33,-1,33,311,312,-1,33,312,31,-1,31,312,313,-1,31,313,29,-1,29,313,314,-1,29,314,27,-1,27,314,315,-1,27,315,25,-1,25,315,290,-1,25,290,71,-1,
        ]
    }
}
Shape{
    appearance Appearance {
        material  Material 	{
            diffuseColor 1.0 1.0 1.0
            specularColor 0.5019607843137255 0.5019607843137255 0.5019607843137255
            ambientIntensity 1.0
            transparency 0.0
            shininess 0.5
        }
    }
    geometry IndexedFaceSet {
        ccw TRUE
        solid FALSE
        coord DEF co Coordinate {
            point [
                0.0551 0.2953 -0.1028, 0.0595 0.2953 -0.0912, 0.0604 0.2953 -0.0921, 0.055 0.2953 -0.0895, 0.0539 0.2953 -0.0896, 0.0535 0.2953 -0.1026, 0.0567 0.2953 -0.0897, 0.0582 0.2953 -0.0903, 0.0507 0.2953 -0.1012, 0.0497 0.2953 -0.0922, 0.0509 0.2953 -0.091, 0.0614 0.2953 -0.0984, 0.0607 0.2953 -0.0998, 0.0596 0.2953 -0.1011, 0.052 0.2953 -0.1021, 0.0523 0.2953 -0.0901, 0.0582 0.2953 -0.102, 0.0567 0.2953 -0.1026, 0.0612 0.2953 -0.0935, 0.0617 0.2953 -0.0952, 0.0617 0.2953 -0.0968, 0.0488 0.2953 -0.0985, 0.0485 0.2953 -0.0968, 0.0496 0.2953 -0.1, 0.0485 0.2953 -0.0952, 0.0489 0.2953 -0.0936
            ]
        }
        coordIndex [
            0,1,2,-1,3,0,4,-1,4,0,5,-1,3,6,0,-1,0,6,7,-1,0,7,1,-1,8,9,10,-1,11,12,2,-1,2,12,13,-1,5,14,4,-1,4,14,8,-1,4,8,15,-1,15,8,10,-1,13,16,2,-1,2,16,17,-1,2,17,0,-1,18,19,2,-1,2,19,20,-1,2,20,11,-1,21,22,23,-1,23,22,24,-1,23,24,8,-1,8,24,25,-1,8,25,9,-1,
        ]
    }
}